<svg xmlns="http://www.w3.org/2000/svg" xmlns:xlink="http://www.w3.org/1999/xlink" width="55" height="35" viewBox="0 0 55 35">
  <defs>
    <clipPath id="clip-path">
      <rect id="Rectangle_198" data-name="Rectangle 198" width="35.021" height="22.05" fill="none"/>
    </clipPath>
  </defs>
  <g id="icon-kurier-pobranie" transform="translate(-193 -1574)">
    <rect id="_55x35" data-name="55x35" width="55" height="35" transform="translate(193 1574)" fill="#fff" opacity="0"/>
    <g id="Group_499" data-name="Group 499" transform="translate(203 1580.5)">
      <g id="Group_498" data-name="Group 498" clip-path="url(#clip-path)">
        <path id="Path_1060" data-name="Path 1060" d="M51.946,13.322H51.3a1.3,1.3,0,0,1-1.3-1.3V2.3A1.3,1.3,0,0,1,51.3,1h.649" transform="translate(-17.574 -0.351)" fill="none" stroke="#3a3a3c" stroke-linecap="round" stroke-linejoin="round" stroke-width="1.5"/>
        <path id="Path_1061" data-name="Path 1061" d="M42.767,3H33.427a3.993,3.993,0,0,0-3.1,1.475L29.42,5.594" transform="translate(-10.34 -1.054)" fill="none" stroke="#3a3a3c" stroke-linecap="round" stroke-linejoin="round" stroke-width="1.5"/>
        <path id="Path_1062" data-name="Path 1062" d="M33.392,8l-2.907,2.954a1.713,1.713,0,0,0,0,2.389,1.653,1.653,0,0,0,2.356,0l2.185-2.219a3.375,3.375,0,0,0,3.744.581,4.942,4.942,0,0,0,.958-.581" transform="translate(-10.544 -2.812)" fill="none" stroke="#3a3a3c" stroke-linecap="round" stroke-linejoin="round" stroke-width="1.5"/>
        <path id="Path_1063" data-name="Path 1063" d="M48.243,18H47.025A4.658,4.658,0,0,1,45,20.077" transform="translate(-15.816 -6.326)" fill="none" stroke="#3a3a3c" stroke-linecap="round" stroke-linejoin="round" stroke-width="1.5"/>
        <path id="Path_1064" data-name="Path 1064" d="M1,10.243V8.3A1.3,1.3,0,0,1,2.3,7H21.1" transform="translate(-0.351 -2.46)" fill="none" stroke="#3a3a3c" stroke-linecap="round" stroke-linejoin="round" stroke-width="1.5"/>
        <path id="Path_1065" data-name="Path 1065" d="M29.535,15.594v9.079a1.3,1.3,0,0,1-1.3,1.3H2.3a1.3,1.3,0,0,1-1.3-1.3V13" transform="translate(-0.351 -4.569)" fill="none" stroke="#3a3a3c" stroke-linecap="round" stroke-linejoin="round" stroke-width="1.5"/>
        <path id="Path_1066" data-name="Path 1066" d="M5,19.431V11h8.431" transform="translate(-1.757 -3.866)" fill="none" stroke="#3a3a3c" stroke-linecap="round" stroke-linejoin="round" stroke-width="1.5"/>
        <line id="Line_8" data-name="Line 8" x1="7.782" transform="translate(3.891 18.807)" fill="none" stroke="#3a3a3c" stroke-linecap="round" stroke-linejoin="round" stroke-width="1.5"/>
        <path id="Path_1067" data-name="Path 1067" d="M36.431,16v8.431H28" transform="translate(-9.841 -5.624)" fill="none" stroke="#3a3a3c" stroke-linecap="round" stroke-linejoin="round" stroke-width="1.5"/>
        <path id="Path_1068" data-name="Path 1068" d="M21.243,15a3.243,3.243,0,1,0,3.243,3.243" transform="translate(-6.326 -5.272)" fill="none" stroke="#3a3a3c" stroke-linecap="round" stroke-linejoin="round" stroke-width="1.5"/>
      </g>
    </g>
  </g>
</svg>
