<svg xmlns="http://www.w3.org/2000/svg" width="55" height="35" viewBox="0 0 55 35">
  <g id="dhl" transform="translate(-196 -1176)">
    <rect id="_55x35" data-name="55x35" width="55" height="35" transform="translate(196 1176)" fill="#fff" opacity="0"/>
    <g id="dhl-2" data-name="dhl" transform="translate(196 1187.295)">
      <rect id="Rectangle_8" data-name="Rectangle 8" width="55" height="27" rx="3" transform="translate(0 -7.295)" fill="#fdcc31"/>
      <path id="Path_171" data-name="Path 171" d="M55,.136V12.274H0V.136Z" fill="#fecc00"/>
      <path id="Path_172" data-name="Path 172" d="M17.733,102.1c-.24.325-.642.891-.887,1.222-.124.168-.349.473.4.473h3.917l1.16-1.577c.72-.977.062-3.01-2.511-3.01H9.673L7.915,101.6h9.577c.483,0,.477.184.241.5Zm-2.877,2.284c-.744,0-.52-.306-.4-.474.245-.33.653-.89.894-1.216s.243-.5-.241-.5h-4.38l-3.529,4.8H15.81a6.094,6.094,0,0,0,4.913-2.6Zm5.6,2.6H25.5l1.914-2.6H22.369s-1.915,2.6-1.915,2.6Zm13.026-7.778-1.937,2.63H29.291l1.936-2.63H26.18L22.8,103.8H35.152l3.376-4.587Zm-5.724,7.778H32.8l1.915-2.6H29.672S27.757,106.991,27.757,106.991ZM0,105.415v.553H7.031l.406-.553Zm8.193-1.026H0v.552H7.786ZM0,106.991H6.278l.4-.55H0Zm47.591-1.023H55v-.553H48Zm-.753,1.023H55v-.55H47.242Zm1.914-2.6-.406.553H55v-.553Zm-6.611-.589,3.376-4.587H40.172s-3.379,4.587-3.379,4.587Zm-5.781.589s-.369.5-.548.747c-.634.856-.073,1.855,2,1.855h8.106l1.915-2.6H36.361Z" transform="translate(0 -96.897)" fill="#d50029"/>
    </g>
  </g>
</svg>
