<svg xmlns="http://www.w3.org/2000/svg" xmlns:xlink="http://www.w3.org/1999/xlink" width="55" height="35" viewBox="0 0 55 35">
  <defs>
    <linearGradient id="linear-gradient" x1="3.216" y1="-0.572" x2="5.427" y2="1.02" gradientUnits="objectBoundingBox">
      <stop offset="0" stop-color="#a90034"/>
      <stop offset="0.272" stop-color="#b03"/>
      <stop offset="0.723" stop-color="#d30032"/>
      <stop offset="1" stop-color="#dc0032"/>
    </linearGradient>
  </defs>
  <g id="dtp" transform="translate(-4.135 -0.424)">
    <rect id="_55x35" data-name="55x35" width="55" height="35" transform="translate(4.135 0.424)" fill="#fff" opacity="0"/>
    <g id="Group_513" data-name="Group 513" transform="translate(2.035 1.324)">
      <path id="Path_91" data-name="Path 91" d="M231.357,58.98a13.941,13.941,0,0,1-3.3.378c-2.8,0-4.655-1.491-4.655-4.219a4.02,4.02,0,0,1,4.254-4.254,3.759,3.759,0,0,1,1.525.252V47.4h2.179V58.98Zm-2.179-5.9a3.216,3.216,0,0,0-1.341-.252,2.067,2.067,0,0,0-2.213,2.259,2.262,2.262,0,0,0,2.511,2.419,6.15,6.15,0,0,0,1.055-.092V53.076Zm20.077,5.9a13.968,13.968,0,0,1-3.314.378c-2.8,0-4.655-1.491-4.655-4.219a4.02,4.02,0,0,1,4.254-4.254,3.76,3.76,0,0,1,1.525.252V47.4h2.178l.011,11.58Zm-2.178-5.9a3.217,3.217,0,0,0-1.342-.252,2.067,2.067,0,0,0-2.213,2.259,2.262,2.262,0,0,0,2.511,2.419,6.149,6.149,0,0,0,1.055-.092V53.076Zm-12.28-.023a3.721,3.721,0,0,1,1.307-.195,2.066,2.066,0,0,1,2.27,2.179,2.222,2.222,0,0,1-2.4,2.419v1.9h.115c2.821,0,4.506-1.582,4.506-4.4,0-2.568-1.8-4.07-4.449-4.07a9.688,9.688,0,0,0-3.543.676V62.455h2.2l-.011-9.4Z" transform="translate(-194.156 -37.45)" fill="#414042"/>
      <path id="Path_92" data-name="Path 92" d="M17.412,15.064a.322.322,0,0,1-.321-.011l-.516-.31a.364.364,0,0,1-.115-.115v-.011a.342.342,0,0,1-.057-.161l-.011-.608a.352.352,0,0,1,.149-.275L22.778,9.95,14.029,5.18a.68.68,0,0,0-.355-.08.737.737,0,0,0-.355.08L4.582,9.95l9.8,5.71a.333.333,0,0,1,.161.275v8.324a.363.363,0,0,1-.161.275l-.527.3a.366.366,0,0,1-.161.034h-.011a.383.383,0,0,1-.172-.034l-.527-.3a.333.333,0,0,1-.161-.275V16.841a.189.189,0,0,0-.092-.149L4.1,11.658V21.5a.812.812,0,0,0,.344.608l8.886,5.24a.777.777,0,0,0,.688,0l8.9-5.24a.761.761,0,0,0,.344-.608V11.658Z" fill="url(#linear-gradient)"/>
    </g>
  </g>
</svg>
