<svg xmlns="http://www.w3.org/2000/svg" width="55" height="35" viewBox="0 0 55 35">
  <g id="gls" transform="translate(-73 -227)">
    <rect id="_55x35" data-name="55x35" width="55" height="35" transform="translate(73 227)" fill="#fff" opacity="0"/>
    <g id="Group_580" data-name="Group 580" transform="translate(73 232)">
      <path id="Path_1145" data-name="Path 1145" d="M731.454,343.092c0,.853-2.382,1.545-5.321,1.545s-5.321-.692-5.321-1.545,2.382-1.545,5.321-1.545,5.321.692,5.321,1.545" transform="translate(-676.454 -320.528)" fill="#061ab1"/>
      <path id="Path_1146" data-name="Path 1146" d="M746.478,171.559c0,3.427-3.294,6.3-4.112,6.927a.3.3,0,0,1-.363,0c-.815-.636-4.114-3.618-4.114-6.926a4.295,4.295,0,0,1,8.59,0" transform="translate(-692.479 -156.971)" fill="#ffd100"/>
      <path id="Path_1147" data-name="Path 1147" d="M763.814,188.1a2.855,2.855,0,1,1-2.855,2.855,2.855,2.855,0,0,1,2.855-2.855" transform="translate(-714.13 -176.524)" fill="#fff"/>
      <path id="Path_1148" data-name="Path 1148" d="M8.213,8.089v3.736h3.108a2.784,2.784,0,0,1-2.172,1.092c-2.34,0-3.51-1.334-3.51-4.025,0-2.972,1.544-4.493,4.61-4.493a15.966,15.966,0,0,1,4.516.842V.773a10.71,10.71,0,0,0-2.2-.538A15.891,15.891,0,0,0,9.968,0,10.358,10.358,0,0,0,2.714,2.458,8.5,8.5,0,0,0,0,9.08a8.394,8.394,0,0,0,2.106,6.037,7.419,7.419,0,0,0,5.686,2.246c2.4,0,4.6-1.244,5.308-2.823l-.015,2.542h3.466V8.089Z" transform="translate(0 -0.001)" fill="#061ab1"/>
      <path id="Path_1149" data-name="Path 1149" d="M296.737,21.363V4.563h5.382V16.988h5.873v4.376Z" transform="translate(-278.476 -4.282)" fill="#061ab1"/>
      <path id="Path_1150" data-name="Path 1150" d="M503.818,16.66V12.074a21.385,21.385,0,0,0,2.784.655,15.95,15.95,0,0,0,2.738.281c1.31,0,1.989-.328,1.989-.913,0-.374-.211-.562-1.17-.772l-1.872-.421c-3.206-.725-4.7-2.34-4.7-5.078a5.334,5.334,0,0,1,1.872-4.282A7.856,7.856,0,0,1,510.6,0,25.453,25.453,0,0,1,515.8.655V5.031c-.725-.187-1.591-.374-2.644-.538a16.747,16.747,0,0,0-2.48-.234c-1.146,0-1.8.328-1.8.913,0,.351.3.585.936.749l2.176.515c3.182.749,4.656,2.387,4.656,5.171a5.113,5.113,0,0,1-1.942,4.212,8.323,8.323,0,0,1-5.335,1.544,20.151,20.151,0,0,1-5.545-.7" transform="translate(-472.594)" fill="#061ab1"/>
      <path id="Path_1151" data-name="Path 1151" d="M192.709,333.992a1.338,1.338,0,0,1-.646-.341.819.819,0,0,1-.2-.573,1.03,1.03,0,0,1,.085-.427.883.883,0,0,1,.248-.324,1.15,1.15,0,0,1,.394-.206,1.771,1.771,0,0,1,.526-.072,3.452,3.452,0,0,1,.471.035,3.817,3.817,0,0,1,.449.087v.684l-.191-.042q-.112-.024-.237-.046t-.252-.035a2.248,2.248,0,0,0-.228-.013.624.624,0,0,0-.333.071.217.217,0,0,0-.11.19.177.177,0,0,0,.059.135.576.576,0,0,0,.2.1l.372.1a1.385,1.385,0,0,1,.659.355.85.85,0,0,1,.208.6,1,1,0,0,1-.088.425.912.912,0,0,1-.254.324,1.172,1.172,0,0,1-.405.208,1.888,1.888,0,0,1-.545.072,3.853,3.853,0,0,1-.567-.039,2.2,2.2,0,0,1-.44-.105v-.723q.1.035.221.068t.259.057q.134.024.269.04a2.293,2.293,0,0,0,.259.015q.469,0,.469-.268a.175.175,0,0,0-.085-.156,1.247,1.247,0,0,0-.243-.112Z" transform="translate(-180.056 -311.614)" fill="#061ab1"/>
      <path id="Path_1152" data-name="Path 1152" d="M233.8,347.675V347.2l1.021-1.31h-.977v-.6h1.923v.482l-1.021,1.293h1.082v.609H233.8Z" transform="translate(-219.41 -324.042)" fill="#061ab1"/>
      <path id="Path_1153" data-name="Path 1153" d="M269.484,347.676l-.714-2.384h.872l.394,1.967.4-1.967h.837l-.745,2.467a2.423,2.423,0,0,1-.2.5,1.129,1.129,0,0,1-.272.329.993.993,0,0,1-.366.184,1.846,1.846,0,0,1-.484.057q-.14,0-.261-.011a1.876,1.876,0,0,1-.186-.024v-.644a1.816,1.816,0,0,0,.2.028q.12.011.239.011a.715.715,0,0,0,.438-.116.723.723,0,0,0,.232-.392Z" transform="translate(-252.218 -324.043)" fill="#061ab1"/>
      <path id="Path_1154" data-name="Path 1154" d="M313.824,333.911v-3.286h.806V331.7a1,1,0,0,1,.278-.162.906.906,0,0,1,.34-.066,1.008,1.008,0,0,1,.39.074.861.861,0,0,1,.313.223,1.044,1.044,0,0,1,.208.372,1.65,1.65,0,0,1,.074.521,1.7,1.7,0,0,1-.081.543,1.2,1.2,0,0,1-.228.41.958.958,0,0,1-.353.256,1.14,1.14,0,0,1-.451.088.964.964,0,0,1-.149-.013,1.059,1.059,0,0,1-.169-.042.849.849,0,0,1-.167-.077.666.666,0,0,1-.147-.118l-.057.2h-.609Zm.806-.679a.4.4,0,0,0,.16.094.59.59,0,0,0,.186.033.382.382,0,0,0,.331-.162.892.892,0,0,0,.116-.513.768.768,0,0,0-.11-.46.358.358,0,0,0-.3-.145.528.528,0,0,0-.193.039.662.662,0,0,0-.188.114v1Z" transform="translate(-294.511 -310.278)" fill="#061ab1"/>
      <path id="Path_1155" data-name="Path 1155" d="M360.461,333.911l-.762-1.174v1.174h-.806v-3.286h.806v1.862l.719-.96h.951l-.9,1.052.968,1.332h-.973Z" transform="translate(-336.806 -310.278)" fill="#061ab1"/>
      <path id="Path_1156" data-name="Path 1156" d="M402.956,346.874l-.18.024a1.919,1.919,0,0,1-.245.015.489.489,0,0,1-.495-.254.978.978,0,0,1-.71.263.831.831,0,0,1-.572-.188.64.64,0,0,1-.212-.5.694.694,0,0,1,.274-.594,1.335,1.335,0,0,1,.8-.2c.047,0,.1,0,.153.007s.108.009.158.015v-.14a.239.239,0,0,0-.092-.215.63.63,0,0,0-.329-.061q-.061,0-.153.009t-.2.026l-.212.037q-.107.02-.2.042v-.587a3.716,3.716,0,0,1,.469-.092,3.663,3.663,0,0,1,.491-.035,1.275,1.275,0,0,1,.745.184.62.62,0,0,1,.259.539v.99a.188.188,0,0,0,.031.123.134.134,0,0,0,.105.035l.053,0,.057-.007v.574Zm-1.025-1a.746.746,0,0,0-.1-.011l-.112,0a.584.584,0,0,0-.322.068.236.236,0,0,0-.1.208.218.218,0,0,0,.074.182.33.33,0,0,0,.21.059.69.69,0,0,0,.175-.024.563.563,0,0,0,.171-.077v-.4Z" transform="translate(-375.893 -323.241)" fill="#061ab1"/>
      <path id="Path_1157" data-name="Path 1157" d="M459.566,336.048V332.9h1.266a1.78,1.78,0,0,1,.519.07,1.082,1.082,0,0,1,.39.206.909.909,0,0,1,.245.329,1.06,1.06,0,0,1,.085.434,1.2,1.2,0,0,1-.1.5.978.978,0,0,1-.278.359,1.214,1.214,0,0,1-.429.217,1.982,1.982,0,0,1-.552.072H460.4v.955h-.832Zm1.012-1.582a.817.817,0,0,0,.5-.118.425.425,0,0,0,.153-.359.416.416,0,0,0-.145-.357.877.877,0,0,0-.5-.107h-.18v.942Z" transform="translate(-431.284 -312.415)" fill="#061ab1"/>
      <path id="Path_1158" data-name="Path 1158" d="M505.911,346.874l-.18.024a1.916,1.916,0,0,1-.245.015.489.489,0,0,1-.5-.254.978.978,0,0,1-.71.263.831.831,0,0,1-.572-.188.64.64,0,0,1-.212-.5.694.694,0,0,1,.274-.594,1.335,1.335,0,0,1,.8-.2q.07,0,.153.007c.055,0,.108.009.158.015v-.14a.239.239,0,0,0-.092-.215.63.63,0,0,0-.329-.061q-.061,0-.153.009t-.2.026l-.213.037q-.107.02-.2.042v-.587a3.711,3.711,0,0,1,.469-.092,3.663,3.663,0,0,1,.491-.035,1.275,1.275,0,0,1,.745.184.62.62,0,0,1,.259.539v.99a.188.188,0,0,0,.031.123.134.134,0,0,0,.105.035l.053,0,.057-.007v.574Zm-1.025-1a.745.745,0,0,0-.1-.011l-.112,0a.583.583,0,0,0-.322.068.236.236,0,0,0-.1.208.218.218,0,0,0,.075.182.33.33,0,0,0,.21.059.69.69,0,0,0,.175-.024.563.563,0,0,0,.171-.077Z" transform="translate(-472.512 -323.241)" fill="#061ab1"/>
      <path id="Path_1159" data-name="Path 1159" d="M546.936,346.817a1.242,1.242,0,0,1-.294.083,2.078,2.078,0,0,1-.329.026,1.392,1.392,0,0,1-.973-.309,1.166,1.166,0,0,1-.337-.9,1.354,1.354,0,0,1,.1-.519,1.144,1.144,0,0,1,.276-.4,1.247,1.247,0,0,1,.432-.261,1.63,1.63,0,0,1,.563-.092,1.854,1.854,0,0,1,.3.024,2.391,2.391,0,0,1,.248.051v.6c-.056-.012-.1-.02-.142-.026l-.109-.015c-.034,0-.066-.007-.1-.009l-.1,0a.657.657,0,0,0-.478.162.754.754,0,0,0,0,.94.663.663,0,0,0,.469.151,1.541,1.541,0,0,0,.239-.02,1.9,1.9,0,0,0,.243-.055Z" transform="translate(-511.465 -323.24)" fill="#061ab1"/>
      <path id="Path_1160" data-name="Path 1160" d="M580.816,347.675V347.2l1.021-1.31h-.977v-.6h1.923v.482l-1.021,1.293h1.082v.609h-2.029Z" transform="translate(-545.073 -324.042)" fill="#061ab1"/>
      <path id="Path_1161" data-name="Path 1161" d="M620.975,333.911l-.763-1.174v1.174h-.806v-3.286h.806v1.862l.719-.96h.951l-.9,1.052.968,1.332h-.973Z" transform="translate(-581.288 -310.278)" fill="#061ab1"/>
      <path id="Path_1162" data-name="Path 1162" d="M663.471,346.874l-.18.024a1.918,1.918,0,0,1-.245.015.489.489,0,0,1-.5-.254.978.978,0,0,1-.71.263.83.83,0,0,1-.572-.188.64.64,0,0,1-.212-.5.694.694,0,0,1,.274-.594,1.335,1.335,0,0,1,.8-.2c.047,0,.1,0,.153.007s.108.009.158.015v-.14a.238.238,0,0,0-.092-.215.63.63,0,0,0-.329-.061q-.061,0-.153.009c-.061.006-.127.015-.2.026l-.212.037q-.108.02-.2.042v-.587a3.713,3.713,0,0,1,.469-.092,3.661,3.661,0,0,1,.491-.035,1.275,1.275,0,0,1,.745.184.62.62,0,0,1,.259.539v.99a.187.187,0,0,0,.031.123.133.133,0,0,0,.105.035l.053,0,.057-.007Zm-1.025-1a.746.746,0,0,0-.1-.011l-.112,0a.584.584,0,0,0-.322.068.236.236,0,0,0-.1.208.218.218,0,0,0,.075.182.33.33,0,0,0,.21.059.691.691,0,0,0,.175-.024.562.562,0,0,0,.171-.077Z" transform="translate(-620.376 -323.241)" fill="#061ab1"/>
    </g>
  </g>
</svg>
