<svg xmlns="http://www.w3.org/2000/svg" width="55" height="35" viewBox="0 0 55 35">
  <g id="inpost_kurier" data-name="inpost kurier" transform="translate(-1072.188 -1035.148)">
    <rect id="_55x35" data-name="55x35" width="55" height="35" transform="translate(1072.188 1035.148)" fill="#fff" opacity="0"/>
    <g id="inpost" transform="translate(1072.188 1036.148)">
      <path id="Path_78" data-name="Path 78" d="M100.771,65.961H99.063v-9.18h1.708v9.18" transform="translate(-78.133 -44.783)" fill="#414042"/>
      <path id="Path_79" data-name="Path 79" d="M118.331,73.753h-1.5V69.4c0-.908-.4-1.4-1.127-1.453a6.753,6.753,0,0,0-1.692.188v5.62h-1.5V67.065a18.584,18.584,0,0,1,3.472-.405,2.332,2.332,0,0,1,1.708.681,2.409,2.409,0,0,1,.64,1.783v4.629" transform="translate(-88.74 -52.575)" fill="#414042"/>
      <path id="Path_80" data-name="Path 80" d="M153.163,59.926a3.015,3.015,0,0,1-.868,2.253,3.218,3.218,0,0,1-2.355.851h-2.077v2.931h-1.68v-9.18h3.645a3.406,3.406,0,0,1,2.473.838,3.071,3.071,0,0,1,.861,2.308m-1.764,0a1.452,1.452,0,0,0-1.624-1.661h-1.911v3.3h1.882a1.659,1.659,0,0,0,1.216-.429,1.611,1.611,0,0,0,.437-1.2" transform="translate(-115.298 -44.783)" fill="#414042"/>
      <path id="Path_81" data-name="Path 81" d="M187.224,70.18a3.775,3.775,0,0,1-.923,2.655,3.353,3.353,0,0,1-4.791,0,4.269,4.269,0,0,1,0-5.3,3.376,3.376,0,0,1,4.8,0,3.767,3.767,0,0,1,.917,2.648m-1.569.007a2.562,2.562,0,0,0-.479-1.635,1.633,1.633,0,0,0-2.543.007,3.027,3.027,0,0,0,0,3.264,1.64,1.64,0,0,0,2.543,0,2.567,2.567,0,0,0,.479-1.636" transform="translate(-142.431 -52.473)" fill="#414042"/>
      <path id="Path_82" data-name="Path 82" d="M220.076,71.545a2.113,2.113,0,0,1-.806,1.7,3.22,3.22,0,0,1-2.123.667,4.1,4.1,0,0,1-3.181-1.226l1.152-.966a2.783,2.783,0,0,0,2.014.844,1.793,1.793,0,0,0,1.014-.252.742.742,0,0,0,.375-.633.6.6,0,0,0-.43-.6,9.192,9.192,0,0,0-1.334-.259,4.621,4.621,0,0,1-1.861-.571,1.591,1.591,0,0,1-.652-1.388,1.941,1.941,0,0,1,.791-1.573,3.288,3.288,0,0,1,2.112-.634,3.847,3.847,0,0,1,2.721,1.049l-.9.953a2.74,2.74,0,0,0-1.862-.722q-1.333,0-1.332.749,0,.436.611.6.86.135,1.708.285,1.986.368,1.986,1.974" transform="translate(-168.757 -52.572)" fill="#414042"/>
      <path id="Path_84" data-name="Path 84" d="M7.949,75.883a12.248,12.248,0,0,1-3.975.688A12.246,12.246,0,0,1,0,75.883,12.232,12.232,0,0,1,3.974,75.2a12.234,12.234,0,0,1,3.975.688" transform="translate(0 -59.307)" fill="#ffcb04"/>
      <path id="Path_85" data-name="Path 85" d="M47.039,6.457a11.907,11.907,0,0,1-2.8-2.846A11.679,11.679,0,0,1,42.594,0a11.941,11.941,0,0,1,2.8,2.846,11.677,11.677,0,0,1,1.641,3.615" transform="translate(-33.595 0.004)" fill="#ffcb04"/>
      <path id="Path_86" data-name="Path 86" d="M18.382,37.577a12.219,12.219,0,0,1-3.839-1.222,11.993,11.993,0,0,1-3.18-2.436A12.219,12.219,0,0,1,15.2,35.14a11.993,11.993,0,0,1,3.18,2.436" transform="translate(-8.962 -26.751)" fill="#ffcb04"/>
      <path id="Path_87" data-name="Path 87" d="M49.956,42.881a13.825,13.825,0,0,0,2.124-.858,3.5,3.5,0,0,1-2.51-3.583,10.425,10.425,0,0,1,9.088-8.877,10.84,10.84,0,0,0-1.528-.1,10.337,10.337,0,1,0,.095,20.67,10.782,10.782,0,0,0,1.43-.1,10.48,10.48,0,0,1-8.7-7.146" transform="translate(-36.783 -23.235)" fill="#ffcb04"/>
      <path id="Path_89" data-name="Path 89" d="M18.382,105.484a12.19,12.19,0,0,0-3.839,1.222,11.98,11.98,0,0,0-3.18,2.435,12.2,12.2,0,0,0,3.839-1.221,12,12,0,0,0,3.18-2.437" transform="translate(-8.962 -83.196)" fill="#ffcb04"/>
      <path id="Path_169" data-name="Path 169" d="M47.039,126.141a11.922,11.922,0,0,0-2.8,2.846,11.672,11.672,0,0,0-1.641,3.614,11.926,11.926,0,0,0,2.8-2.846,11.667,11.667,0,0,0,1.641-3.615" transform="translate(-33.595 -99.489)" fill="#ffcb04"/>
      <path id="Path_170" data-name="Path 170" d="M249.383,66.978a3.141,3.141,0,0,1-.777.1,2,2,0,0,1-1.7-.572,3.072,3.072,0,0,1-.33-1.7V58.07h1.5v1.978h1.331v1.225h-1.331V64.7a1.385,1.385,0,0,0,.152.791.922.922,0,0,0,.764.244,3.224,3.224,0,0,0,.389-.026v1.265" transform="translate(-194.48 -45.8)" fill="#414042"/>
      <text id="Kurier" transform="translate(54.612 27.53)" fill="#010101" font-size="7" font-family="Inter-Bold, Inter" font-weight="700"><tspan x="-20" y="0">Kurier</tspan></text>
    </g>
  </g>
</svg>
