<svg xmlns="http://www.w3.org/2000/svg" width="55" height="35" viewBox="0 0 55 35">
  <g id="poczta-polska" transform="translate(-400.5 -466.957)">
    <rect id="_55x35" data-name="55x35" width="55" height="35" transform="translate(400.5 466.957)" fill="#fff" opacity="0"/>
    <rect id="Rectangle_63" data-name="Rectangle 63" width="55" height="28.957" transform="translate(400.5 470)" fill="#e31319"/>
    <g id="_ffffffff" data-name="#ffffffff" transform="translate(406.5 487.865)">
      <path id="Path_402" data-name="Path 402" d="M604.309,568.1c.159,0,.42-.066.5.109.007,1.823,0,3.647,0,5.471.007.17-.218.147-.333.155-.119-.009-.354.021-.343-.156q0-2.722,0-5.444C604.124,568.137,604.231,568.109,604.309,568.1Z" transform="translate(-573.489 -568.092)" fill="#fff"/>
      <path id="Path_403" data-name="Path 403" d="M629.709,568.249c-.009-.145.175-.133.275-.142.129.009.3-.029.393.089.013,1.127,0,2.255.006,3.382.465-.5.922-1.011,1.384-1.517.176-.218.492-.167.737-.136.156.032.074.219-.007.289q-.676.683-1.358,1.359c.512.671,1.034,1.334,1.543,2.007.084.081.08.245-.062.251-.234.01-.559.086-.7-.154-.51-.668-1.017-1.339-1.532-2,0,.673,0,1.346,0,2.019.01.173-.219.147-.335.155-.111-.011-.317.024-.337-.127Q629.709,570.985,629.709,568.249Z" transform="translate(-594.405 -568.104)" fill="#fff"/>
      <path id="Path_404" data-name="Path 404" d="M435.862,570.572a.283.283,0,0,1,.344-.264,9.65,9.65,0,0,1,1.763.075,1.444,1.444,0,0,1,1.047.87,1.731,1.731,0,0,1-.623,2.046,3.265,3.265,0,0,1-1.83.3c0,.645.006,1.291,0,1.936-.074.14-.281.094-.414.105-.106-.009-.3,0-.284-.157,0-1.638,0-3.276,0-4.915m.7.317c0,.712,0,1.424,0,2.137.488-.023,1.051.091,1.458-.251a1.161,1.161,0,0,0,.078-1.611C437.685,570.778,437.075,570.917,436.563,570.889Z" transform="translate(-435.859 -569.901)" fill="#fff"/>
      <path id="Path_405" data-name="Path 405" d="M560.644,570.593a.281.281,0,0,1,.327-.286,7.866,7.866,0,0,1,1.911.109,1.418,1.418,0,0,1,.96.956,1.775,1.775,0,0,1-.451,1.763,2.834,2.834,0,0,1-2.044.468q0,.928,0,1.856c0,.06,0,.138-.076.151a1.091,1.091,0,0,1-.549,0c-.088-.015-.083-.115-.081-.183,0-1.612,0-3.224,0-4.836m.7.3c0,.711,0,1.423,0,2.134a2.852,2.852,0,0,0,1.319-.151,1.1,1.1,0,0,0-.1-1.9A4.488,4.488,0,0,0,561.347,570.889Z" transform="translate(-537.916 -569.901)" fill="#fff"/>
      <path id="Path_406" data-name="Path 406" d="M514.189,572.614c.067-.114.228-.081.34-.091.107.009.276-.016.321.109.013.3,0,.6.005.9.337,0,.674,0,1.011,0a.491.491,0,0,1-.007.544c-.333.029-.67,0-1,.013,0,.705,0,1.411,0,2.116a.859.859,0,0,0,.2.63.707.707,0,0,0,.685.008c.057-.028.166-.058.176.037.034.185.065.48-.169.543a1.408,1.408,0,0,1-1.2-.114,1.2,1.2,0,0,1-.366-.98c-.006-.747,0-1.494,0-2.241a3.952,3.952,0,0,1-.583-.02.48.48,0,0,1,0-.524,4.091,4.091,0,0,1,.58-.015C514.188,573.228,514.169,572.92,514.189,572.614Z" transform="translate(-499.377 -571.716)" fill="#fff"/>
      <path id="Path_407" data-name="Path 407" d="M480.3,577.667a1.66,1.66,0,0,1,1.062.338.553.553,0,0,1,.113.587c-.07.157-.231.019-.315-.05a1.181,1.181,0,0,0-1.375-.15,1.516,1.516,0,0,0-.472,1.235,1.851,1.851,0,0,0,.3,1.195,1.028,1.028,0,0,0,1.246.193c.2-.084.346-.249.538-.339.12-.017.116.148.125.228a.469.469,0,0,1-.174.479,1.827,1.827,0,0,1-2.19-.045,2.1,2.1,0,0,1-.548-1.529,2.4,2.4,0,0,1,.451-1.595A1.6,1.6,0,0,1,480.3,577.667Z" transform="translate(-470.821 -575.923)" fill="#fff"/>
      <path id="Path_408" data-name="Path 408" d="M581.732,577.658a1.709,1.709,0,0,1,2.052,1.829,2.366,2.366,0,0,1-.44,1.6,1.724,1.724,0,0,1-1.211.609,1.952,1.952,0,0,1-1.454-.382,1.885,1.885,0,0,1-.574-1.306,2.55,2.55,0,0,1,.356-1.65,1.685,1.685,0,0,1,1.27-.7m.025.563c-.657.061-.967.769-.954,1.356a2.143,2.143,0,0,0,.207,1.071,1.112,1.112,0,0,0,1.857-.014,2.218,2.218,0,0,0,.185-1.328,1.285,1.285,0,0,0-.42-.889A1.163,1.163,0,0,0,581.756,578.221Z" transform="translate(-553.826 -575.906)" fill="#fff"/>
      <path id="Path_409" data-name="Path 409" d="M612.788,577.665a1.673,1.673,0,0,1,1.135.255.592.592,0,0,1,.038.484c-.044.1-.152.028-.215-.008a1.306,1.306,0,0,0-1.174-.134.5.5,0,0,0-.09.823c.44.344,1.063.378,1.459.789a1.091,1.091,0,0,1-.352,1.652,2.118,2.118,0,0,1-1.834-.041c-.231-.1-.214-.405-.158-.609.054-.111.183-.016.257.024a1.474,1.474,0,0,0,1.367.173.52.52,0,0,0,.127-.846c-.4-.331-.966-.363-1.355-.712a1.039,1.039,0,0,1-.08-1.454A1.353,1.353,0,0,1,612.788,577.665Z" transform="translate(-579.563 -575.914)" fill="#fff"/>
      <path id="Path_410" data-name="Path 410" d="M648.95,577.985a2.523,2.523,0,0,1,1.626-.31,1.217,1.217,0,0,1,.819.422,1.62,1.62,0,0,1,.249,1c0,.82.006,1.639,0,2.459-.073.145-.288.092-.423.093-.252-.01-.121-.328-.152-.488a1.619,1.619,0,0,1-1.594.5,1.049,1.049,0,0,1-.857-.962,1.071,1.071,0,0,1,.587-1.1,3.816,3.816,0,0,1,1.771-.247,1.8,1.8,0,0,0-.106-.821.708.708,0,0,0-.624-.333,1.958,1.958,0,0,0-1.156.31c-.074.036-.191.113-.251.015a.417.417,0,0,1,.116-.543m.655,2.021a.647.647,0,0,0-.15.973.828.828,0,0,0,.826.16,1.6,1.6,0,0,0,.683-.5c.023-.262,0-.528.01-.791A3.015,3.015,0,0,0,649.6,580.006Z" transform="translate(-609.86 -575.91)" fill="#fff"/>
      <path id="Path_411" data-name="Path 411" d="M456.767,577.672a2.061,2.061,0,0,1,1.6.324,1.843,1.843,0,0,1,.616,1.323,2.527,2.527,0,0,1-.369,1.681,1.7,1.7,0,0,1-1.229.682,1.943,1.943,0,0,1-1.534-.411,2.019,2.019,0,0,1-.546-1.425,2.246,2.246,0,0,1,.586-1.752,1.715,1.715,0,0,1,.881-.422m.181.544a.982.982,0,0,0-.758.545,2.374,2.374,0,0,0-.133,1.445,1.066,1.066,0,0,0,.64.852,1.157,1.157,0,0,0,1.307-.33,2.067,2.067,0,0,0,.251-1.437,1.271,1.271,0,0,0-.424-.884A1.172,1.172,0,0,0,456.949,578.216Z" transform="translate(-451.758 -575.9)" fill="#fff"/>
      <path id="Path_412" data-name="Path 412" d="M529.325,578.151a2.387,2.387,0,0,1,1.572-.378,1.236,1.236,0,0,1,1,.52,1.885,1.885,0,0,1,.194.986c0,.8.007,1.595-.006,2.391-.084.144-.3.092-.44.089-.23-.03-.105-.326-.135-.482a1.606,1.606,0,0,1-1.971.345,1.129,1.129,0,0,1-.38-1.42,1.212,1.212,0,0,1,.746-.593,4.782,4.782,0,0,1,1.514-.138,1.7,1.7,0,0,0-.112-.83.733.733,0,0,0-.667-.328,2.117,2.117,0,0,0-1.171.344c-.282.137-.3-.378-.142-.506m.7,1.98a.635.635,0,0,0,.08,1.1,1.155,1.155,0,0,0,1.3-.505c.012-.257,0-.515,0-.772A2.889,2.889,0,0,0,530.029,580.131Z" transform="translate(-512.08 -576.002)" fill="#fff"/>
      <path id="Path_413" data-name="Path 413" d="M497.761,578.071c.695-.02,1.392,0,2.089-.009.093,0,.222,0,.257.106a.825.825,0,0,1-.094.636c-.549.867-1.107,1.729-1.656,2.6.548,0,1.1,0,1.645,0,.331-.072.331.644,0,.57-.72,0-1.44,0-2.16,0a.19.19,0,0,1-.209-.137.821.821,0,0,1,.1-.6c.554-.869,1.115-1.733,1.669-2.6-.542-.009-1.087.014-1.627-.011A.423.423,0,0,1,497.761,578.071Z" transform="translate(-486.369 -576.246)" fill="#fff"/>
    </g>
    <g id="Group_415" data-name="Group 415" transform="translate(418.5 475.209)">
      <path id="Path_414" data-name="Path 414" d="M507.876,499.115a5.484,5.484,0,0,1,1.754-.512c.219.011.506.094.526.356a3.315,3.315,0,0,1-.684,1.718,6.043,6.043,0,0,0-.979,2.7,3.531,3.531,0,0,0,.785,2.734,3.061,3.061,0,0,0,2.372.9,6.244,6.244,0,0,0,2.843-.823,9.506,9.506,0,0,0,3.2-3.154c.1-.16.3-.317.492-.214s.143.33.121.5a11.617,11.617,0,0,1-3.857,4.511,6.4,6.4,0,0,1-3.606,1.09,6.755,6.755,0,0,1-2.914-.6c-.8-.343-1.53-.824-2.305-1.215a7.917,7.917,0,0,0-4.388-1.059,5.13,5.13,0,0,1-1.148.054c-.219-.03-.485-.138-.5-.395a1.6,1.6,0,0,1,.4-.9,13.461,13.461,0,0,1,1.6-1.63,1.373,1.373,0,0,0-.05,1.252,1.4,1.4,0,0,0,1.2.627,2.8,2.8,0,0,0,.76-.04,7.008,7.008,0,0,0,3.151-1.518,4.466,4.466,0,0,0,1.474-2.043,1.146,1.146,0,0,0-.3-1.211,1.877,1.877,0,0,0-1.464-.322A11.513,11.513,0,0,1,507.876,499.115Z" transform="translate(-499.589 -498.603)" fill="#ffe500"/>
      <path id="Path_415" data-name="Path 415" d="M522.357,513.913c.345-.087.914.006.89.466a2.141,2.141,0,0,1-1.257,1.406,1.911,1.911,0,0,1-1.184.228.456.456,0,0,1-.383-.418,1.246,1.246,0,0,1,.368-.785A2.925,2.925,0,0,1,522.357,513.913Z" transform="translate(-516.629 -511.101)" fill="#ffe500"/>
      <path id="Path_416" data-name="Path 416" d="M565.07,516.06a1.53,1.53,0,0,1,1.465.482,1.347,1.347,0,0,1,.214,1.058,2.4,2.4,0,0,1-2.4,1.779,1.39,1.39,0,0,1-1.078-.526,1.416,1.416,0,0,1-.083-1.388A2.45,2.45,0,0,1,565.07,516.06Z" transform="translate(-551.492 -512.861)" fill="#ffe500"/>
    </g>
  </g>
</svg>
