<svg xmlns="http://www.w3.org/2000/svg" width="55" height="35" viewBox="0 0 55 35">
  <g id="orlen_paczka" data-name="orlen paczka" transform="translate(-61 -182)">
    <rect id="_55x35" data-name="55x35" width="55" height="35" transform="translate(61 182)" fill="#fff" opacity="0"/>
    <g id="Group_583" data-name="Group 583" transform="translate(71 181.999)">
      <path id="Path_1163" data-name="Path 1163" d="M27.85,34.967,1.8,30.373A2.178,2.178,0,0,1,.034,27.85L4.627,1.8A2.177,2.177,0,0,1,7.15.034L33.2,4.627a2.179,2.179,0,0,1,1.767,2.523L30.373,33.2a2.18,2.18,0,0,1-2.523,1.767" transform="translate(0 0)" fill="#db3830" fill-rule="evenodd"/>
      <path id="Path_1164" data-name="Path 1164" d="M33.662,36.835c0,.354.275.524.694.524a1.377,1.377,0,0,0,.751-.214v-.716a2.553,2.553,0,0,0-.759-.12c-.468,0-.686.24-.686.526m2.457-1.363v1.942a.385.385,0,0,1-.186.368A2.988,2.988,0,0,1,34.3,38.2c-1.127,0-1.635-.612-1.635-1.341,0-.662.454-1.259,1.546-1.259a3.147,3.147,0,0,1,.9.12v-.283c0-.387-.19-.6-.724-.6a2.351,2.351,0,0,0-.732.14,1.019,1.019,0,0,1-.275.046.459.459,0,0,1-.458-.446.485.485,0,0,1,.345-.473,3.032,3.032,0,0,1,1.12-.208c1.127,0,1.736.485,1.736,1.577m-6.5-1.031v1.084H29.7a.439.439,0,0,0,.388-.178l1.154-1.2a.567.567,0,0,1,.43-.209.532.532,0,0,1,.345.936L30.846,36l1.193,1.237a.563.563,0,0,1,.178.4.53.53,0,0,1-.929.344l-1.178-1.27a.408.408,0,0,0-.372-.174h-.116v1.084a.533.533,0,0,1-.531.547.547.547,0,0,1-.527-.547V34.442a.527.527,0,0,1,.527-.546.538.538,0,0,1,.531.546m-1.78.107a.68.68,0,0,1-.159.427l-1.845,2.162H27.3a.5.5,0,0,1,.543.5.508.508,0,0,1-.543.492H25.119a.574.574,0,0,1-.627-.577.668.668,0,0,1,.158-.427L26.5,34.949H25.123a.5.5,0,0,1-.542-.481.511.511,0,0,1,.542-.5h2.09a.575.575,0,0,1,.628.581m-3.787.52a.506.506,0,0,1-.935.275.794.794,0,0,0-.764-.438.762.762,0,0,0-.818.741,5.375,5.375,0,0,0,0,.779.772.772,0,0,0,.814.763.793.793,0,0,0,.764-.438.506.506,0,0,1,.935.275c0,.562-.726,1.174-1.729,1.174a1.782,1.782,0,0,1-1.833-1.635,6.9,6.9,0,0,1,0-1.077A1.732,1.732,0,0,1,22.324,33.9c1,0,1.729.612,1.729,1.174M17.3,36.835c0,.354.275.524.694.524a1.381,1.381,0,0,0,.752-.214v-.716a2.59,2.59,0,0,0-.76-.12c-.469,0-.686.24-.686.526m2.457-1.363v1.942a.387.387,0,0,1-.186.368,2.989,2.989,0,0,1-1.635.418c-1.128,0-1.635-.612-1.635-1.341,0-.662.453-1.259,1.545-1.259a3.164,3.164,0,0,1,.9.12v-.283c0-.387-.19-.6-.725-.6a2.346,2.346,0,0,0-.732.14,1.021,1.021,0,0,1-.275.046.458.458,0,0,1-.458-.446A.484.484,0,0,1,16.9,34.1a3.037,3.037,0,0,1,1.12-.208c1.128,0,1.736.485,1.736,1.577m-6.65-.338v1.842a1.578,1.578,0,0,0,.763.192.718.718,0,0,0,.775-.743,5.106,5.106,0,0,0,0-.764.759.759,0,0,0-.811-.756,1.41,1.41,0,0,0-.729.229m2.588.338a6.922,6.922,0,0,1,0,1.116,1.628,1.628,0,0,1-1.713,1.594,2.323,2.323,0,0,1-.875-.187v.854a.539.539,0,0,1-.531.542.527.527,0,0,1-.531-.542V34.659a.281.281,0,0,1,.132-.264,3,3,0,0,1,1.67-.5A1.737,1.737,0,0,1,15.7,35.473m4.6-6.714c0-.354-.213-.566-.638-.566H19.38V29.33h.283c.425,0,.638-.214.638-.57m-5.815-1.983a2.755,2.755,0,0,1,2.695,2.766,2.732,2.732,0,0,1-5.464,0,2.771,2.771,0,0,1,2.77-2.766m3.26.141h2.128c1.349,0,2.058.639,2.058,1.774a1.193,1.193,0,0,1-.993,1.276l1.348,2.127H20.23l-.85-1.7v1.7H17.746Zm5.036,0h1.847v3.757H26.26v1.42H22.782Zm4.046,0h3.616v1.276H28.457v.64h1.065v1.2H28.457v.637h2.2v1.42H26.828Zm4.4,0h1.56l1.773,2.7c0-.356-.07-.638-.07-.853V26.917h1.631v5.177H34.558l-1.773-2.7a3.133,3.133,0,0,1,.071.781v1.914H31.224ZM14.486,30.606a1.09,1.09,0,0,0,1.061-1.063,1.043,1.043,0,0,0-1.062-1.064,1.065,1.065,0,0,0-1.137,1.064,1.11,1.11,0,0,0,1.137,1.063" transform="translate(-6.582 -15.043)" fill="#fffffe" fill-rule="evenodd"/>
    </g>
  </g>
</svg>
