<svg xmlns="http://www.w3.org/2000/svg" xmlns:xlink="http://www.w3.org/1999/xlink" width="55" height="35" viewBox="0 0 55 35">
  <defs>
    <clipPath id="clip-path">
      <rect id="Rectangle_26" data-name="Rectangle 26" width="2.962" height="9.096" fill="none"/>
    </clipPath>
    <clipPath id="clip-path-2">
      <rect id="Rectangle_27" data-name="Rectangle 27" width="4.654" height="6.494" fill="none"/>
    </clipPath>
  </defs>
  <g id="sg-integracje-inpost" transform="translate(-2 0.618)">
    <rect id="_55x35" data-name="55x35" width="55" height="35" transform="translate(2 -0.618)" fill="#fff" opacity="0"/>
    <g id="Group_512" data-name="Group 512" transform="translate(2 0.382)">
      <path id="Path_79" data-name="Path 79" d="M100.713,65.981H99V56.8h1.713v9.181" transform="translate(-78.058 -44.785)" fill="#414042"/>
      <path id="Path_80" data-name="Path 80" d="M118.417,73.787h-1.5V69.429c0-.91-.4-1.4-1.121-1.46a6.109,6.109,0,0,0-1.692.19v5.627h-1.5V67.1a18.8,18.8,0,0,1,3.469-.4,2.342,2.342,0,0,1,1.713.677,2.4,2.4,0,0,1,.635,1.777v4.633" transform="translate(-88.781 -52.59)" fill="#414042"/>
      <path id="Path_81" data-name="Path 81" d="M153.181,59.952a3.078,3.078,0,0,1-.867,2.263,3.2,3.2,0,0,1-2.348.846h-2.073V66H146.2V56.8h3.66a3.347,3.347,0,0,1,2.475.846,3.035,3.035,0,0,1,.846,2.306m-1.756,0a1.467,1.467,0,0,0-1.629-1.671h-1.9v3.3h1.883A1.726,1.726,0,0,0,151,61.158a1.707,1.707,0,0,0,.423-1.206" transform="translate(-115.273 -44.785)" fill="#414042"/>
      <path id="Path_82" data-name="Path 82" d="M187.242,70.238a3.822,3.822,0,0,1-.931,2.665,3.321,3.321,0,0,1-4.781,0,3.822,3.822,0,0,1-.931-2.665,3.732,3.732,0,0,1,.931-2.644,3.07,3.07,0,0,1,2.39-.994,3.157,3.157,0,0,1,2.412.994,3.721,3.721,0,0,1,.91,2.644m-1.565,0a2.534,2.534,0,0,0-.487-1.629,1.62,1.62,0,0,0-2.538,0,2.575,2.575,0,0,0-.487,1.629,2.534,2.534,0,0,0,.487,1.629,1.62,1.62,0,0,0,2.538,0,2.493,2.493,0,0,0,.487-1.629" transform="translate(-142.396 -52.511)" fill="#414042"/>
      <path id="Path_83" data-name="Path 83" d="M220.035,71.665a2.175,2.175,0,0,1-.8,1.713,3.232,3.232,0,0,1-2.137.677,4.114,4.114,0,0,1-3.194-1.227l1.163-.973a2.752,2.752,0,0,0,2.01.846,1.8,1.8,0,0,0,1.015-.254.746.746,0,0,0,.381-.635.591.591,0,0,0-.423-.592,9.1,9.1,0,0,0-1.333-.254,4.591,4.591,0,0,1-1.862-.571A1.6,1.6,0,0,1,214.2,69a1.9,1.9,0,0,1,.783-1.565,3.275,3.275,0,0,1,2.115-.635,3.909,3.909,0,0,1,2.729,1.058l-.91.952a2.712,2.712,0,0,0-1.862-.719c-.888,0-1.333.254-1.333.74,0,.3.212.487.613.592.571.085,1.142.19,1.713.3,1.333.212,1.988.867,1.988,1.946" transform="translate(-168.652 -52.669)" fill="#414042"/>
      <g id="Group_25" data-name="Group 25" transform="translate(52.039 12.269)">
        <g id="Group_24" data-name="Group 24">
          <g id="Group_23" data-name="Group 23" clip-path="url(#clip-path)">
            <g id="Group_22" data-name="Group 22" transform="translate(0.127 0.021)">
              <path id="Path_84" data-name="Path 84" d="M249.413,67.006a3.175,3.175,0,0,1-.783.106,1.977,1.977,0,0,1-1.692-.571,3.153,3.153,0,0,1-.338-1.713V58.1h1.5v1.988h1.333v1.227H248.1v3.427a1.321,1.321,0,0,0,.148.783.912.912,0,0,0,.762.254,2.566,2.566,0,0,0,.381-.021v1.248" transform="translate(-246.6 -58.1)" fill="#414042"/>
            </g>
          </g>
        </g>
      </g>
      <path id="Path_85" data-name="Path 85" d="M7.954,75.9a12.072,12.072,0,0,1-3.977.7A12.752,12.752,0,0,1,0,75.9a12.072,12.072,0,0,1,3.977-.7,12.072,12.072,0,0,1,3.977.7" transform="translate(0 -59.292)" fill="#ffcb04"/>
      <path id="Path_86" data-name="Path 86" d="M47.042,6.473a11.693,11.693,0,0,1-2.813-2.856A11.624,11.624,0,0,1,42.6,0a11.693,11.693,0,0,1,2.813,2.856,11.408,11.408,0,0,1,1.629,3.617" transform="translate(-33.588)" fill="#ffcb04"/>
      <path id="Path_87" data-name="Path 87" d="M18.423,37.56a12.223,12.223,0,0,1-3.85-1.227A11.868,11.868,0,0,1,11.4,33.9a12.223,12.223,0,0,1,3.85,1.227,11.868,11.868,0,0,1,3.173,2.433" transform="translate(-8.988 -26.729)" fill="#ffcb04"/>
      <path id="Path_88" data-name="Path 88" d="M49.921,42.854a15.63,15.63,0,0,0,2.137-.867,3.523,3.523,0,0,1-2.517-3.6,10.417,10.417,0,0,1,9.1-8.885,12.285,12.285,0,0,0-1.523-.106A10.346,10.346,0,1,0,57.2,50.088a10.708,10.708,0,0,0,1.438-.106,10.483,10.483,0,0,1-8.715-7.129" transform="translate(-36.742 -23.181)" fill="#ffcb04"/>
      <g id="Group_29" data-name="Group 29" transform="translate(8.885 26.654)">
        <g id="Group_28" data-name="Group 28">
          <g id="Group_27" data-name="Group 27" clip-path="url(#clip-path-2)">
            <g id="Group_26" data-name="Group 26" transform="translate(0.106 0.021)">
              <path id="Path_89" data-name="Path 89" d="M46.963,126.1a11.465,11.465,0,0,0-4.463,6.473,11.692,11.692,0,0,0,2.813-2.856,11.193,11.193,0,0,0,1.65-3.617" transform="translate(-42.5 -126.1)" fill="#ffcb04"/>
            </g>
          </g>
        </g>
      </g>
      <path id="Path_90" data-name="Path 90" d="M18.344,105.5a11.822,11.822,0,0,0-7.044,3.66,12.224,12.224,0,0,0,3.85-1.227,12.2,12.2,0,0,0,3.194-2.433" transform="translate(-8.91 -83.183)" fill="#ffcb04"/>
    </g>
  </g>
</svg>
