<svg xmlns="http://www.w3.org/2000/svg" xmlns:xlink="http://www.w3.org/1999/xlink" width="55" height="35" viewBox="0 0 55 35">
  <defs>
    <clipPath id="clip-path">
      <path id="Path_174" data-name="Path 174" d="M54.155,29.249a26.16,26.16,0,0,0-9-2.766,36.222,36.222,0,0,0-5.084-.32c.006.008-.568-.012-1.531.021a36.206,36.206,0,0,0-3.959.356,30.952,30.952,0,0,0-4.038.862,22.118,22.118,0,0,0-4.558,1.848V45.943a10.567,10.567,0,0,0,3.712,8.468,16.582,16.582,0,0,0,2.481,1.612c.863.479,1.821.965,2.762,1.421,1.11.537,2.2,1.031,3.084,1.422,1.216.537,2.053.881,2.046.874-.01.009,1.851-.757,4.051-1.784a34.511,34.511,0,0,0,6.324-3.546,10.563,10.563,0,0,0,3.714-8.469V32.657q0-1.7,0-3.408" transform="translate(-25.981 -26.162)" fill="none"/>
    </clipPath>
    <linearGradient id="linear-gradient" x1="0.357" y1="0.627" x2="0.47" y2="0.627" gradientUnits="objectBoundingBox">
      <stop offset="0" stop-color="#ffd66b"/>
      <stop offset="0.282" stop-color="#fde2d2"/>
      <stop offset="0.491" stop-color="#e9aa70"/>
      <stop offset="1" stop-color="#dc931d"/>
    </linearGradient>
    <clipPath id="clip-path-2">
      <path id="Path_176" data-name="Path 176" d="M128.759,239.09a44.036,44.036,0,0,0-13.183.354,29.328,29.328,0,0,0-3.915,1.065,25.386,25.386,0,0,0-4.064,1.83,23.675,23.675,0,0,0-4.825,3.592q0,.468,0,.935,0,2.245,0,4.493,0,2.109,0,4.219a9.518,9.518,0,0,0,3.334,7.606l4.068,2.106,3.108,1.61,2.5,1.294c1.66-.692,7.711-3.35,9.676-5.01a9.517,9.517,0,0,0,3.333-7.606q.005-4.534,0-9.067-.006-3.072-.018-6.144,0-.638-.005-1.277" transform="translate(-102.766 -238.762)" fill="none"/>
    </clipPath>
    <linearGradient id="linear-gradient-2" x1="0.344" y1="0.616" x2="0.397" y2="0.606" gradientUnits="objectBoundingBox">
      <stop offset="0" stop-color="#dbc9b8"/>
      <stop offset="0.311" stop-color="#775024"/>
      <stop offset="1" stop-color="#4e2700"/>
    </linearGradient>
    <clipPath id="clip-path-3">
      <path id="Path_195" data-name="Path 195" d="M1613.684,1409.06a1.066,1.066,0,0,0,.278-.763c0-.013,0-.023,0-.035l-.091,0c0,.012,0,.023,0,.034a.968.968,0,0,1-.252.7,1.187,1.187,0,0,1-.87.3v.092a1.269,1.269,0,0,0,.936-.333" transform="translate(-1612.748 -1408.262)" fill="none"/>
    </clipPath>
    <linearGradient id="linear-gradient-3" x1="-18.241" y1="3.328" x2="-18.188" y2="3.328" gradientUnits="objectBoundingBox">
      <stop offset="0" stop-color="#492300"/>
      <stop offset="1" stop-color="#492300"/>
    </linearGradient>
    <clipPath id="clip-path-5">
      <path id="Path_200" data-name="Path 200" d="M1733.863,1125.28l.089,0c.044-1.564-.371-2.8-2.566-4.122l-.047.078c2.157,1.3,2.565,2.509,2.524,4.04" transform="translate(-1731.339 -1121.162)" fill="none"/>
    </clipPath>
    <linearGradient id="linear-gradient-4" x1="-9.636" y1="1.645" x2="-9.612" y2="1.645" gradientUnits="objectBoundingBox">
      <stop offset="0" stop-color="#70491c"/>
      <stop offset="1" stop-color="#9c7955"/>
    </linearGradient>
    <clipPath id="clip-path-7">
      <path id="Path_204" data-name="Path 204" d="M1415.848,1418.1l-.136-.079-.09.05.179.108a5.709,5.709,0,0,0,2.928.807v-.09a5.618,5.618,0,0,1-2.881-.8m6.719-2.849.089,0a3.937,3.937,0,0,1-.975,2.511,3.893,3.893,0,0,1-2.951,1.221v-.091a3.8,3.8,0,0,0,2.883-1.192,3.862,3.862,0,0,0,.954-2.454Z" transform="translate(-1415.622 -1415.255)" fill="none"/>
    </clipPath>
    <linearGradient id="linear-gradient-5" x1="-3.162" y1="0.737" x2="-3.153" y2="0.737" gradientUnits="objectBoundingBox">
      <stop offset="0" stop-color="#492300"/>
      <stop offset="1" stop-color="#9c7955"/>
    </linearGradient>
    <clipPath id="clip-path-9">
      <path id="Path_208" data-name="Path 208" d="M1416.829,1378.552a3.63,3.63,0,0,0,2.208.946v-.092a3.581,3.581,0,0,1-2.148-.922l-.6-.542.09.2.453.407" transform="translate(-1416.286 -1377.943)" fill="none"/>
    </clipPath>
    <linearGradient id="linear-gradient-6" x1="-7.765" y1="2.529" x2="-7.741" y2="2.529" gradientUnits="objectBoundingBox">
      <stop offset="0" stop-color="#663f0f"/>
      <stop offset="1" stop-color="#492300"/>
    </linearGradient>
    <clipPath id="clip-path-11">
      <path id="Path_212" data-name="Path 212" d="M1625.528,1014.369l.2.118.047-.078-.2-.118c-.86-.511-1.271-.785-1.258-1.4l-.091,0c-.014.661.437.96,1.3,1.476" transform="translate(-1624.224 -1012.893)" fill="none"/>
    </clipPath>
    <linearGradient id="linear-gradient-7" x1="-18.248" y1="3.698" x2="-18.207" y2="3.698" xlink:href="#linear-gradient-4"/>
    <clipPath id="clip-path-13">
      <path id="Path_216" data-name="Path 216" d="M384.963,779.088q-.019,4.007-.012,8.013h.091c0-2.645,0-5.341.011-8.012l0-.369-.09.092,0,.276" transform="translate(-384.949 -778.72)" fill="none"/>
    </clipPath>
    <linearGradient id="linear-gradient-8" x1="-82.309" y1="1.507" x2="-81.716" y2="1.507" gradientUnits="objectBoundingBox">
      <stop offset="0" stop-color="#9c7955"/>
      <stop offset="1" stop-color="#af906f"/>
    </linearGradient>
    <clipPath id="clip-path-15">
      <path id="Path_223" data-name="Path 223" d="M386.117,1378.792v-.091c-.257,0-.942-.007-.945-1.413h-.091c0,1.494.78,1.5,1.035,1.5m0,0v-.091a1.978,1.978,0,0,0,.816-.146l.091.056a2.008,2.008,0,0,1-.907.181Z" transform="translate(-385.082 -1377.288)" fill="none"/>
    </clipPath>
    <linearGradient id="linear-gradient-9" x1="-5.218" y1="0.444" x2="-5.184" y2="0.444" gradientUnits="objectBoundingBox">
      <stop offset="0" stop-color="#532d00"/>
      <stop offset="1" stop-color="#9c7955"/>
    </linearGradient>
    <clipPath id="clip-path-17">
      <path id="Path_228" data-name="Path 228" d="M173.305,793.071a6.851,6.851,0,0,1-3.928,1.031v.091a6.944,6.944,0,0,0,3.98-1.048l.16-.109-.09-.048-.121.083m-6.886-.089a4.638,4.638,0,0,1-.98-3.183h-.091a4.713,4.713,0,0,0,1,3.243,3.958,3.958,0,0,0,3.024,1.151V794.1a3.871,3.871,0,0,1-2.958-1.12Zm-1.071-11.4.09.089V789.8h-.091V781.58Z" transform="translate(-165.348 -781.58)" fill="none"/>
    </clipPath>
    <linearGradient id="linear-gradient-10" x1="-0.603" y1="0.872" x2="-0.595" y2="0.872" gradientUnits="objectBoundingBox">
      <stop offset="0" stop-color="#815b33"/>
      <stop offset="1" stop-color="#9c7955"/>
    </linearGradient>
    <clipPath id="clip-path-19">
      <path id="Path_233" data-name="Path 233" d="M1410.977,1023.032l-.047.078c1.059.629,1.353.963,1.365,1.561l.091,0c-.014-.637-.317-.987-1.409-1.637m0,0-.047.078a5.926,5.926,0,0,1-2.115-1.862,3.67,3.67,0,0,1-.5-2.025h.09c.006,1.45.429,2.538,2.576,3.81Z" transform="translate(-1408.31 -1019.222)" fill="none"/>
    </clipPath>
    <linearGradient id="linear-gradient-11" x1="-5.33" y1="1.475" x2="-5.314" y2="1.475" gradientUnits="objectBoundingBox">
      <stop offset="0" stop-color="#492300"/>
      <stop offset="0.5" stop-color="#9c7955"/>
      <stop offset="1" stop-color="#492300"/>
    </linearGradient>
    <clipPath id="clip-path-21">
      <path id="Path_238" data-name="Path 238" d="M1011.141,1218.5a1.368,1.368,0,0,1-1.307.822v.092a1.456,1.456,0,0,0,1.387-.87,6.714,6.714,0,0,0,.5-2.968h-.091a6.622,6.622,0,0,1-.492,2.925m-1.307.822v.092a2.059,2.059,0,0,1-.55-.079l.09-.071A1.855,1.855,0,0,0,1009.834,1219.317Z" transform="translate(-1009.286 -1215.57)" fill="none"/>
    </clipPath>
    <linearGradient id="linear-gradient-12" x1="-7.677" y1="0.951" x2="-7.65" y2="0.951" gradientUnits="objectBoundingBox">
      <stop offset="0" stop-color="#492300"/>
      <stop offset="1" stop-color="#70491c"/>
    </linearGradient>
    <clipPath id="clip-path-23">
      <path id="Path_242" data-name="Path 242" d="M1009.892,947.821v.09a1.287,1.287,0,0,1,1.272.748,6.726,6.726,0,0,1,.451,2.911h.09a6.821,6.821,0,0,0-.46-2.953,1.367,1.367,0,0,0-1.354-.8m-.534.163-.09-.067a2.126,2.126,0,0,1,.624-.1v.09a2.052,2.052,0,0,0-.534.072Z" transform="translate(-1009.268 -947.821)" fill="none"/>
    </clipPath>
    <linearGradient id="linear-gradient-13" x1="-7.677" y1="1.979" x2="-7.65" y2="1.979" xlink:href="#linear-gradient-5"/>
    <clipPath id="clip-path-25">
      <path id="Path_247" data-name="Path 247" d="M783.577,758.311a6.307,6.307,0,0,1,3.555-.948v-.09a6.392,6.392,0,0,0-3.606.962l-.164.107.091.049.123-.08m3.555-1.038v.09a4.469,4.469,0,0,1,3.694,1.717,7.423,7.423,0,0,1,1.266,4.542h.092a7.541,7.541,0,0,0-1.284-4.6A4.556,4.556,0,0,0,787.132,757.272Zm-.605,12.784.09.107a5.363,5.363,0,0,0,.779.053v-.091a4.846,4.846,0,0,1-.869-.069Zm5.565-6.435h.092a8.3,8.3,0,0,1-1.224,4.712,4.175,4.175,0,0,1-3.564,1.884v-.091a4.081,4.081,0,0,0,3.489-1.846,8.218,8.218,0,0,0,1.208-4.659Z" transform="translate(-783.363 -757.272)" fill="none"/>
    </clipPath>
    <linearGradient id="linear-gradient-14" x1="-1.537" y1="0.876" x2="-1.529" y2="0.876" gradientUnits="objectBoundingBox">
      <stop offset="0" stop-color="#3e1700"/>
      <stop offset="1" stop-color="#9c7955"/>
    </linearGradient>
    <clipPath id="clip-path-27">
      <path id="Path_252" data-name="Path 252" d="M1627.419,947.568a2.987,2.987,0,0,0-2-.964l0,.091a2.9,2.9,0,0,1,1.938.936l.628.666-.093-.228-.471-.5m-2-.964,0,.091a1.319,1.319,0,0,0-.772.193.746.746,0,0,0-.315.646l-.091,0c.021-.857.832-.934,1.18-.928Z" transform="translate(-1624.238 -946.604)" fill="none"/>
    </clipPath>
    <linearGradient id="linear-gradient-15" x1="-7.186" y1="4.058" x2="-7.168" y2="4.058" xlink:href="#linear-gradient-14"/>
    <clipPath id="clip-path-29">
      <path id="Path_256" data-name="Path 256" d="M1408.283,764.192v.022h.09v-.023a3.319,3.319,0,0,1,1.149-2.566,3.9,3.9,0,0,1,2.456-.94v-.091a4,4,0,0,0-2.517.964,3.451,3.451,0,0,0-1.177,2.635m3.695-3.508v-.091a4.517,4.517,0,0,1,2.931.922l.136.108-.09.044-.1-.082a4.433,4.433,0,0,0-2.873-.9Z" transform="translate(-1408.283 -760.592)" fill="none"/>
    </clipPath>
    <linearGradient id="linear-gradient-16" x1="-3.272" y1="3.256" x2="-3.262" y2="3.256" xlink:href="#linear-gradient-12"/>
    <clipPath id="clip-path-31">
      <path id="Path_261" data-name="Path 261" d="M135.31,259.271a43.075,43.075,0,0,1,12.75-.382l.09-.081a43.193,43.193,0,0,0-12.858.374,24.955,24.955,0,0,0-12.585,6.339l.092.04a24.874,24.874,0,0,1,12.511-6.289" transform="translate(-122.707 -258.509)" fill="none"/>
    </clipPath>
    <linearGradient id="linear-gradient-17" x1="-0.18" y1="2.578" x2="-0.178" y2="2.578" gradientUnits="objectBoundingBox">
      <stop offset="0" stop-color="#8c6741"/>
      <stop offset="1" stop-color="#9c7955"/>
    </linearGradient>
    <clipPath id="clip-path-33">
      <path id="Path_266" data-name="Path 266" d="M122.249,768.748a9.262,9.262,0,0,0,3.235,7.4c1.812,1.53,7.372,4.029,9.5,4.924v-.1c-2.151-.9-7.649-3.38-9.443-4.9a9.176,9.176,0,0,1-3.2-7.326q0-1.472,0-2.984c0-2.121,0-4.3.007-6.5l-.092-.04c0,2.219-.006,4.41-.006,6.543q0,1.514,0,2.985" transform="translate(-122.247 -759.22)" fill="none"/>
    </clipPath>
    <linearGradient id="linear-gradient-18" x1="-0.393" y1="0.492" x2="-0.387" y2="0.492" xlink:href="#linear-gradient-12"/>
    <clipPath id="clip-path-35">
      <path id="Path_271" data-name="Path 271" d="M16.9,264.174a10.568,10.568,0,0,1-3.711-8.469q0-8.348,0-16.694L13,238.9l0,16.8a12.144,12.144,0,0,0,.915,4.781,10.086,10.086,0,0,0,2.863,3.828,34.028,34.028,0,0,0,6.129,3.461q1.49.7,3,1.353c.424.183,1.165.492,1.358.572v-.2c.022.02-7.936-3.268-10.373-5.33" transform="translate(-13.004 -238.904)" fill="none"/>
    </clipPath>
    <linearGradient id="linear-gradient-19" x1="-0.207" y1="0.598" x2="-0.203" y2="0.598" gradientUnits="objectBoundingBox">
      <stop offset="0" stop-color="#ffd568"/>
      <stop offset="0.835" stop-color="#a36d12"/>
      <stop offset="1" stop-color="#905800"/>
    </linearGradient>
    <clipPath id="clip-path-37">
      <path id="Path_276" data-name="Path 276" d="M1604.888,928.4l.181,0c.023-.964.979-1.022,1.27-1.017l0-.18c-.7-.014-1.435.3-1.456,1.193" transform="translate(-1604.888 -927.207)" fill="none"/>
    </clipPath>
    <linearGradient id="linear-gradient-20" x1="-15.524" y1="8.534" x2="-15.48" y2="8.534" gradientUnits="objectBoundingBox">
      <stop offset="0" stop-color="#905800"/>
      <stop offset="1" stop-color="#905800"/>
    </linearGradient>
    <clipPath id="clip-path-39">
      <path id="Path_280" data-name="Path 280" d="M1424.761,773.777l0-.182a3.8,3.8,0,0,0-2.4.918,3.23,3.23,0,0,0-1.117,2.5v.023l.183,0a3.284,3.284,0,0,1,3.336-3.255" transform="translate(-1421.243 -773.595)" fill="none"/>
    </clipPath>
    <linearGradient id="linear-gradient-21" x1="-6.181" y1="3.406" x2="-6.162" y2="3.406" gradientUnits="objectBoundingBox">
      <stop offset="0" stop-color="#efcb95"/>
      <stop offset="1" stop-color="#e2ab53"/>
    </linearGradient>
    <clipPath id="clip-path-41">
      <path id="Path_284" data-name="Path 284" d="M1708.55,927.249l0,.18a3.093,3.093,0,0,1,2.067.992l.314.334-.183-.458a3.256,3.256,0,0,0-2.194-1.049" transform="translate(-1708.545 -927.249)" fill="none"/>
    </clipPath>
    <linearGradient id="linear-gradient-22" x1="-10.556" y1="6.75" x2="-10.529" y2="6.75" gradientUnits="objectBoundingBox">
      <stop offset="0" stop-color="#905800"/>
      <stop offset="0.578" stop-color="#bf8934"/>
      <stop offset="1" stop-color="#e4af5d"/>
    </linearGradient>
    <clipPath id="clip-path-43">
      <path id="Path_288" data-name="Path 288" d="M1675.094,774.561l.18-.088-.067-.054a4.329,4.329,0,0,0-2.813-.883l0,.182a4.181,4.181,0,0,1,2.7.844" transform="translate(-1672.394 -773.534)" fill="none"/>
    </clipPath>
    <linearGradient id="linear-gradient-23" x1="-8.662" y1="11.927" x2="-8.64" y2="11.927" gradientUnits="objectBoundingBox">
      <stop offset="0" stop-color="#e2ab53"/>
      <stop offset="1" stop-color="#c27913"/>
    </linearGradient>
    <clipPath id="clip-path-45">
      <path id="Path_293" data-name="Path 293" d="M1606.487,1014.276l.094-.156-.2-.119c-.822-.489-1.363-.81-1.346-1.555l-.182,0c-.021.917.714,1.282,1.631,1.834" transform="translate(-1604.856 -1012.442)" fill="none"/>
    </clipPath>
    <linearGradient id="linear-gradient-24" x1="-16.112" y1="4.735" x2="-16.075" y2="4.735" gradientUnits="objectBoundingBox">
      <stop offset="0" stop-color="#ddac72"/>
      <stop offset="1" stop-color="#905800"/>
    </linearGradient>
    <clipPath id="clip-path-47">
      <path id="Path_297" data-name="Path 297" d="M1603.465,1276.561l.181,0c-.018-.791-.452-1.218-1.543-1.865l-.092.156c1.113.661,1.438,1.044,1.454,1.712" transform="translate(-1602.011 -1274.693)" fill="none"/>
    </clipPath>
    <linearGradient id="linear-gradient-25" x1="-17.139" y1="1.228" x2="-17.099" y2="1.228" gradientUnits="objectBoundingBox">
      <stop offset="0" stop-color="#eabd79"/>
      <stop offset="1" stop-color="#c27913"/>
    </linearGradient>
    <clipPath id="clip-path-49">
      <path id="Path_301" data-name="Path 301" d="M1428.824,1602.06l-.181.1.089.053a5.543,5.543,0,0,0,2.835.784l0-.182a5.371,5.371,0,0,1-2.742-.758" transform="translate(-1428.643 -1602.06)" fill="none"/>
    </clipPath>
    <linearGradient id="linear-gradient-26" x1="-7.39" y1="1.305" x2="-7.368" y2="1.305" gradientUnits="objectBoundingBox">
      <stop offset="0" stop-color="#c27913"/>
      <stop offset="0.854" stop-color="#985d03"/>
      <stop offset="1" stop-color="#905800"/>
    </linearGradient>
    <clipPath id="clip-path-51">
      <path id="Path_306" data-name="Path 306" d="M1421.426,1019.089l-.183,0c.007,1.416.422,2.482,2.531,3.733l.092-.156c-2.057-1.22-2.436-2.23-2.44-3.579" transform="translate(-1421.243 -1019.089)" fill="none"/>
    </clipPath>
    <linearGradient id="linear-gradient-27" x1="-8.141" y1="2.211" x2="-8.116" y2="2.211" gradientUnits="objectBoundingBox">
      <stop offset="0" stop-color="#efcb95"/>
      <stop offset="1" stop-color="#c27913"/>
    </linearGradient>
    <clipPath id="clip-path-53">
      <path id="Path_310" data-name="Path 310" d="M1431.744,1408.312v-.182a3.728,3.728,0,0,1-2.27-.971l-.3-.27.18.406a3.913,3.913,0,0,0,2.39,1.017" transform="translate(-1429.174 -1406.889)" fill="none"/>
    </clipPath>
    <linearGradient id="linear-gradient-28" x1="-9.582" y1="0.141" x2="-9.556" y2="0.141" xlink:href="#linear-gradient-25"/>
    <clipPath id="clip-path-55">
      <path id="Path_314" data-name="Path 314" d="M1637.4,1417.895l0,.182a3.566,3.566,0,0,0,3.746-3.558l-.18-.008a3.39,3.39,0,0,1-3.568,3.384" transform="translate(-1637.401 -1414.511)" fill="none"/>
    </clipPath>
    <linearGradient id="linear-gradient-29" x1="-6.618" y1="0.787" x2="-6.601" y2="0.787" gradientUnits="objectBoundingBox">
      <stop offset="0" stop-color="#905800"/>
      <stop offset="1" stop-color="#9a6419"/>
    </linearGradient>
    <clipPath id="clip-path-57">
      <path id="Path_318" data-name="Path 318" d="M1614.216,1407.854l-.182,0c0,.013,0,.025,0,.038a1.152,1.152,0,0,1-.3.826,1.361,1.361,0,0,1-1,.361v.182a1.336,1.336,0,0,0,1.485-1.409" transform="translate(-1612.731 -1407.854)" fill="none"/>
    </clipPath>
    <linearGradient id="linear-gradient-30" x1="-15.135" y1="2.555" x2="-15.092" y2="2.555" gradientUnits="objectBoundingBox">
      <stop offset="0" stop-color="#eabd79"/>
      <stop offset="1" stop-color="#eabd79"/>
    </linearGradient>
    <clipPath id="clip-path-59">
      <path id="Path_322" data-name="Path 322" d="M1723.772,1136.188l.18.008a3.77,3.77,0,0,0-.431-2.075,5.443,5.443,0,0,0-2.047-1.885l-.093.156c2.058,1.241,2.43,2.339,2.391,3.8" transform="translate(-1721.381 -1132.236)" fill="none"/>
    </clipPath>
    <linearGradient id="linear-gradient-31" x1="-9.963" y1="1.192" x2="-9.938" y2="1.192" gradientUnits="objectBoundingBox">
      <stop offset="0" stop-color="#ddac72"/>
      <stop offset="1" stop-color="#9a6419"/>
    </linearGradient>
    <clipPath id="clip-path-61">
      <path id="Path_326" data-name="Path 326" d="M1053.838,928.563a1.471,1.471,0,0,1,1.434.846,6.868,6.868,0,0,1,.469,2.995h.183c0-2.846-.615-4.02-2.086-4.02v.18" transform="translate(-1053.838 -928.382)" fill="none"/>
    </clipPath>
    <linearGradient id="linear-gradient-32" x1="-9.103" y1="2.398" x2="-9.072" y2="2.398" gradientUnits="objectBoundingBox">
      <stop offset="0" stop-color="#eabd79"/>
      <stop offset="1" stop-color="#905800"/>
    </linearGradient>
    <clipPath id="clip-path-63">
      <path id="Path_330" data-name="Path 330" d="M990.629,928.571v-.18a2.237,2.237,0,0,0-.9.182l.182.121a2.188,2.188,0,0,1,.716-.122" transform="translate(-989.731 -928.391)" fill="none"/>
    </clipPath>
    <linearGradient id="linear-gradient-33" x1="-14.14" y1="36.722" x2="-14.068" y2="36.722" xlink:href="#linear-gradient-20"/>
    <clipPath id="clip-path-65">
      <path id="Path_334" data-name="Path 334" d="M1071.383,1216.934v.183a4.007,4.007,0,0,0,3.415-1.808,8.129,8.129,0,0,0,1.191-4.607h-.181c0,3.7-1.617,6.23-4.424,6.233" transform="translate(-1071.383 -1210.701)" fill="none"/>
    </clipPath>
    <linearGradient id="linear-gradient-34" x1="-3.729" y1="0.825" x2="-3.715" y2="0.825" xlink:href="#linear-gradient-20"/>
    <clipPath id="clip-path-67">
      <path id="Path_338" data-name="Path 338" d="M795.8,857.192v.18l.181-.182q-.041-8.213-.023-16.425l-.18-.1v.1c-.012,5.529,0,11.057.023,16.427" transform="translate(-795.772 -840.667)" fill="none"/>
    </clipPath>
    <linearGradient id="linear-gradient-35" x1="-63.986" y1="0.47" x2="-63.686" y2="0.47" gradientUnits="objectBoundingBox">
      <stop offset="0" stop-color="#e0b27c"/>
      <stop offset="1" stop-color="#c27913"/>
    </linearGradient>
    <clipPath id="clip-path-69">
      <path id="Path_342" data-name="Path 342" d="M989.913,941.5l-.182-.121c0,2.592,0,5.2,0,7.8l.181-.129V941.5" transform="translate(-989.731 -941.377)" fill="none"/>
    </clipPath>
    <linearGradient id="linear-gradient-36" x1="20.14" y1="1.148" x2="20.496" y2="1.148" xlink:href="#linear-gradient-20"/>
    <clipPath id="clip-path-71">
      <path id="Path_346" data-name="Path 346" d="M1057.19,776.391h.181a7.344,7.344,0,0,0-1.247-4.488,4.382,4.382,0,0,0-3.623-1.68v.183c3.024,0,4.686,2.292,4.689,5.985" transform="translate(-1052.501 -770.223)" fill="none"/>
    </clipPath>
    <linearGradient id="linear-gradient-37" x1="-3.482" y1="1.855" x2="-3.469" y2="1.855" gradientUnits="objectBoundingBox">
      <stop offset="0" stop-color="#edc68c"/>
      <stop offset="1" stop-color="#905800"/>
    </linearGradient>
    <clipPath id="clip-path-73">
      <path id="Path_350" data-name="Path 350" d="M799.832,770.406v-.183a6.228,6.228,0,0,0-3.506.933l-.083.054.18.1a6.071,6.071,0,0,1,3.408-.9" transform="translate(-796.243 -770.223)" fill="none"/>
    </clipPath>
    <linearGradient id="linear-gradient-38" x1="-3.661" y1="11.576" x2="-3.643" y2="11.576" gradientUnits="objectBoundingBox">
      <stop offset="0" stop-color="#ffecc0"/>
      <stop offset="0.126" stop-color="#fde7b9"/>
      <stop offset="1" stop-color="#edc68c"/>
    </linearGradient>
    <clipPath id="clip-path-75">
      <path id="Path_354" data-name="Path 354" d="M989.846,1645.771l.182.233a4.683,4.683,0,0,0,.96.091v-.183a3.954,3.954,0,0,1-1.142-.14" transform="translate(-989.846 -1645.771)" fill="none"/>
    </clipPath>
    <linearGradient id="linear-gradient-39" x1="-17.668" y1="-12.94" x2="-17.611" y2="-12.94" gradientUnits="objectBoundingBox">
      <stop offset="0" stop-color="#905800"/>
      <stop offset="1" stop-color="#c27913"/>
    </linearGradient>
    <clipPath id="clip-path-77">
      <path id="Path_358" data-name="Path 358" d="M989.859,1651.036l.183.184v-.184s0-4.6,0-5.024l-.182-.232c0,1.768,0,3.526,0,5.256" transform="translate(-989.855 -1645.78)" fill="none"/>
    </clipPath>
    <linearGradient id="linear-gradient-40" x1="17.021" y1="-0.123" x2="17.369" y2="-0.123" xlink:href="#linear-gradient-20"/>
    <clipPath id="clip-path-79">
      <path id="Path_363" data-name="Path 363" d="M1050.487,1215.482h.183c0,2.776-.7,4.111-2.16,4.112v-.182a1.551,1.551,0,0,0,1.467-.918,6.781,6.781,0,0,0,.511-3.01" transform="translate(-1048.509 -1215.481)" fill="none"/>
    </clipPath>
    <linearGradient id="linear-gradient-41" x1="-7.317" y1="1.331" x2="-7.287" y2="1.331" gradientUnits="objectBoundingBox">
      <stop offset="0" stop-color="#ffe4a2"/>
      <stop offset="0.1" stop-color="#ffe4a2"/>
      <stop offset="0.6" stop-color="#f7e4ca"/>
      <stop offset="1" stop-color="#eabd79"/>
    </linearGradient>
    <clipPath id="clip-path-81">
      <path id="Path_368" data-name="Path 368" d="M530.125,790.6l-.182-.181v.179c-.008,1.959-.014,3.939-.014,5.918q0,1.752.006,3.5l.18.1c-.008-3.17-.005-6.359.01-9.515" transform="translate(-529.929 -790.423)" fill="none"/>
    </clipPath>
    <linearGradient id="linear-gradient-42" x1="-50.615" y1="0.891" x2="-50.285" y2="0.891" gradientUnits="objectBoundingBox">
      <stop offset="0" stop-color="#db9a28"/>
      <stop offset="1" stop-color="#c27913"/>
    </linearGradient>
    <clipPath id="clip-path-83">
      <path id="Path_372" data-name="Path 372" d="M722.176,800.306l.182.1v-.1c-.01-3.669-.011-7.361,0-10.976v-.182l-.182.182q-.021,5.488,0,10.976" transform="translate(-722.167 -789.148)" fill="none"/>
    </clipPath>
    <linearGradient id="linear-gradient-43" x1="-64.738" y1="1.753" x2="-64.407" y2="1.753" xlink:href="#linear-gradient-26"/>
    <clipPath id="clip-path-85">
      <path id="Path_377" data-name="Path 377" d="M453.2,1587.031l0,.182a6.761,6.761,0,0,0,3.876-1.016l.08-.055-.182-.1a6.557,6.557,0,0,1-3.772.985" transform="translate(-453.199 -1586.046)" fill="none"/>
    </clipPath>
    <linearGradient id="linear-gradient-44" x1="-2.146" y1="1.089" x2="-2.13" y2="1.089" xlink:href="#linear-gradient-20"/>
    <clipPath id="clip-path-87">
      <path id="Path_381" data-name="Path 381" d="M366.828,801.855a2.053,2.053,0,0,0,1.181-.3l-.18-.1a2.027,2.027,0,0,1-1,.218v.18m0,0v-.18a.957.957,0,0,1-.919-.527,2.352,2.352,0,0,1-.207-1.067h-.181C365.523,800.791,365.692,801.847,366.828,801.855Zm-1.294-9.787.183-.184v.184q-.018,4.007-.013,8.014h-.181c0-2.674,0-5.351.012-8.014Z" transform="translate(-365.52 -791.884)" fill="none"/>
    </clipPath>
    <linearGradient id="linear-gradient-45" x1="2.336" y1="1.032" x2="2.449" y2="1.032" gradientUnits="objectBoundingBox">
      <stop offset="0" stop-color="#ce8e3e"/>
      <stop offset="1" stop-color="#ffe7b0"/>
    </linearGradient>
    <clipPath id="clip-path-88">
      <path id="Path_383" data-name="Path 383" d="M178.507,1368.587h-.182a4.535,4.535,0,0,0,.957,3.121,3.787,3.787,0,0,0,2.892,1.092l0-.182c-2.459-.026-3.664-1.385-3.669-4.03" transform="translate(-178.325 -1368.587)" fill="none"/>
    </clipPath>
    <linearGradient id="linear-gradient-46" x1="-1.213" y1="0.791" x2="-1.196" y2="0.791" gradientUnits="objectBoundingBox">
      <stop offset="0" stop-color="#db9a28"/>
      <stop offset="0.938" stop-color="#955c03"/>
      <stop offset="1" stop-color="#905800"/>
    </linearGradient>
    <clipPath id="clip-path-90">
      <path id="Path_388" data-name="Path 388" d="M178.325,802.376h.182v-7.862l-.182-.179v8.041" transform="translate(-178.325 -794.336)" fill="none"/>
    </clipPath>
    <linearGradient id="linear-gradient-47" x1="-33.537" y1="1.523" x2="-33.182" y2="1.523" xlink:href="#linear-gradient-46"/>
    <clipPath id="clip-path-92">
      <path id="Path_394" data-name="Path 394" d="M106.219,767.836a9.355,9.355,0,0,1-3.267-7.467q0-4.784,0-9.567l-.182-.08q-.008,4.817,0,9.647a9.514,9.514,0,0,0,3.334,7.606c1.966,1.66,8.019,4.319,9.675,5.011v-.2c-2.106-.883-7.729-3.407-9.56-4.952" transform="translate(-102.768 -750.722)" fill="none"/>
    </clipPath>
    <linearGradient id="linear-gradient-48" x1="-0.36" y1="0.509" x2="-0.355" y2="0.509" gradientUnits="objectBoundingBox">
      <stop offset="0" stop-color="#c27913"/>
      <stop offset="0.3" stop-color="#db9a28"/>
      <stop offset="1" stop-color="#c27913"/>
    </linearGradient>
    <clipPath id="clip-path-94">
      <path id="Path_398" data-name="Path 398" d="M212.742,792c-.017-.791-.451-1.218-1.543-1.866-2.056-1.22-2.436-2.23-2.442-3.577A3.285,3.285,0,0,1,212.1,783.3a4.183,4.183,0,0,1,2.7.844q0,1.086,0,2.174a3.261,3.261,0,0,0-2.194-1.048c-.7-.013-1.433.3-1.456,1.193-.02.916.715,1.282,1.632,1.834,2.057,1.241,2.431,2.337,2.391,3.8a3.39,3.39,0,0,1-3.567,3.383,5.389,5.389,0,0,1-2.742-.757q0-1.162.007-2.328a3.92,3.92,0,0,0,2.389,1.017A1.335,1.335,0,0,0,212.742,792m-10.208-6.532a2.249,2.249,0,0,1,.9-.181c1.472,0,2.084,1.175,2.086,4.02,0,2.774-.7,4.111-2.161,4.111a2.409,2.409,0,0,1-.823-.154c0-2.594,0-5.2,0-7.8Zm0,15.121c0-1.733,0-3.488,0-5.256a4.031,4.031,0,0,0,1.141.141c2.807,0,4.424-2.53,4.424-6.233s-1.665-5.983-4.688-5.985a6.067,6.067,0,0,0-3.408.9c-.013,5.479-.005,11.062.022,16.424q1.255.007,2.512.007Zm-7.437-7.242a2.065,2.065,0,0,0,1.181-.3q-.014-4.756.009-9.513,1.253-.011,2.506-.016-.019,5.487,0,10.975a6.55,6.55,0,0,1-3.772.986c-2.459-.025-3.665-1.386-3.669-4.031v-7.861q1.215-.017,2.453-.03c-.013,2.661-.017,5.34-.013,8.013,0,.71.17,1.767,1.306,1.774Z" transform="translate(-191.355 -783.253)" fill="none"/>
    </clipPath>
    <radialGradient id="radial-gradient" cx="0.178" cy="0.171" r="0.941" gradientUnits="objectBoundingBox">
      <stop offset="0" stop-color="#ffe7b0"/>
      <stop offset="0.527" stop-color="#febf52"/>
      <stop offset="0.557" stop-color="#f9b94c"/>
      <stop offset="1" stop-color="#da9017"/>
    </radialGradient>
  </defs>
  <g id="ups" transform="translate(11.015 -0.194)">
    <g id="Group_511" data-name="Group 511" transform="translate(1.985)">
      <g id="Group_149" data-name="Group 149" transform="translate(0.364 0.557)">
        <g id="Group_148" data-name="Group 148" transform="translate(0 0)" clip-path="url(#clip-path)">
          <path id="Path_173" data-name="Path 173" d="M-6.2,5.2h29.19V39.039H-6.2Z" transform="translate(5.745 -5.495)" fill="url(#linear-gradient)"/>
        </g>
      </g>
      <g id="Group_151" data-name="Group 151" transform="translate(1.439 3.534)">
        <g id="Group_150" data-name="Group 150" clip-path="url(#clip-path-2)">
          <path id="Path_175" data-name="Path 175" d="M91.176,213.224h26.649v30.057H91.176Z" transform="translate(-91.338 -213.582)" fill="url(#linear-gradient-2)"/>
        </g>
      </g>
      <path id="Path_177" data-name="Path 177" d="M20.812,39.417l-9.675-5.01c1.965,1.66,8.015,4.318,9.675,5.01M35.081,26.788a12.159,12.159,0,0,1-.915,4.781A10.084,10.084,0,0,1,31.3,35.4a33.963,33.963,0,0,1-6.131,3.463q-1.49.7-3,1.353-.678.291-1.359.572v.1c.2-.082.971-.406,1.4-.59q1.511-.653,3-1.353a31.675,31.675,0,0,0,6.153-3.475A10.168,10.168,0,0,0,34.247,31.6a12.2,12.2,0,0,0,.925-4.816V9.934l-.091.053v16.8M6.638,9.936c5.151-2.848,11.522-3.123,14.02-3.109h.31c2.5-.014,8.868.262,14.019,3.109l.094.051.091-.053-.142-.077C29.86,7,23.473,6.723,20.966,6.736h-.308C18.153,6.723,11.764,7,6.594,9.856l-.141.077.091.054.094-.051" transform="translate(-6.363 -6.451)" fill="#3f1800"/>
      <path id="Path_178" data-name="Path 178" d="M7.4,256.751a10.191,10.191,0,0,0,2.887,3.863,31.576,31.576,0,0,0,6.15,3.474q1.49.7,3,1.353c.424.183,1.2.508,1.394.59v-.1c-.193-.08-.934-.389-1.358-.572q-1.511-.653-3-1.353a34.013,34.013,0,0,1-6.129-3.461,10.085,10.085,0,0,1-2.863-3.828,12.148,12.148,0,0,1-.915-4.781l0-16.8-.091-.054,0,16.855a12.245,12.245,0,0,0,.922,4.816M32.619,243.5l.067.054.091-.044-.1-.082a4.43,4.43,0,0,0-2.873-.9l0,.09a4.33,4.33,0,0,1,2.813.883m-.24,2.44a3.092,3.092,0,0,0-2.067-.992v.091a2.99,2.99,0,0,1,2,.964l.471.5-.09-.229-.314-.334" transform="translate(-6.389 -231.598)" fill="#3f1800"/>
      <path id="Path_179" data-name="Path 179" d="M1060.469,767.194l.09,0c.021-.857.832-.934,1.18-.928v-.091c-.292-.005-1.247.052-1.27,1.017m3.651.309.09.229-.006-2.993-.092.044.007,2.72m-7.944-2.025a7.343,7.343,0,0,1,1.247,4.488h.091a7.426,7.426,0,0,0-1.266-4.542,4.47,4.47,0,0,0-3.694-1.717v.091a4.383,4.383,0,0,1,3.623,1.68m1.54,1.783a3.23,3.23,0,0,1,1.117-2.5,3.8,3.8,0,0,1,2.4-.918l0-.09a3.9,3.9,0,0,0-2.456.94,3.321,3.321,0,0,0-1.149,2.566v.023h.091v-.023" transform="translate(-1037.816 -752.823)" fill="#3f1800"/>
      <path id="Path_180" data-name="Path 180" d="M1417.314,1016.669l.046-.077c-2.109-1.25-2.524-2.317-2.531-3.733h-.091c.006,1.45.429,2.538,2.577,3.81m1.614-2.346.2.118.046-.077-.2-.118c-.867-.516-1.318-.815-1.3-1.476l-.09,0c-.016.745.525,1.065,1.347,1.555m-1.071,7.637v.09a3.8,3.8,0,0,0,2.884-1.192,3.863,3.863,0,0,0,.953-2.454l-.092,0a3.566,3.566,0,0,1-3.746,3.558m-.5-5.368-.046.077c1.092.651,1.4,1,1.409,1.637l.091,0c-.015-.668-.34-1.052-1.454-1.712m1.15,2.576a1.152,1.152,0,0,0,.3-.826c0-.013,0-.025,0-.038l-.091,0c0,.012,0,.023,0,.035a1.067,1.067,0,0,1-.278.762,1.268,1.268,0,0,1-.936.333v.091a1.359,1.359,0,0,0,1-.36" transform="translate(-1394.928 -998.397)" fill="#3f1800"/>
      <path id="Path_181" data-name="Path 181" d="M1082.625,1128.684a3.769,3.769,0,0,1,.431,2.075l.092,0c.042-1.531-.367-2.74-2.524-4.04l-.046.077a5.446,5.446,0,0,1,2.047,1.885m-7.827,3.821a4.007,4.007,0,0,1-3.415,1.808v.089a4.081,4.081,0,0,0,3.489-1.846,8.22,8.22,0,0,0,1.208-4.659h-.091a8.13,8.13,0,0,1-1.191,4.607m1.895-1.59a3.728,3.728,0,0,0,2.27.971v-.091a3.628,3.628,0,0,1-2.208-.946l-.453-.407.091.2.3.27m-.218,2.618-.089-.053-.092.051.135.079a5.621,5.621,0,0,0,2.882.8v-.09a5.537,5.537,0,0,1-2.835-.784" transform="translate(-1056.382 -1110.755)" fill="#3f1800"/>
      <path id="Path_182" data-name="Path 182" d="M1008.706,956.406l-.091-.2-.008,3.09.092-.051.007-2.836m-5.879-6.333-.092-.065v7.547l.092-.069v-7.413" transform="translate(-988.695 -936.515)" fill="#3f1800"/>
      <path id="Path_183" data-name="Path 183" d="M1002.827,1484.07l-.092.069a2.28,2.28,0,0,0,.641.1v-.09a2.051,2.051,0,0,1-.549-.079" transform="translate(-988.695 -1463.099)" fill="#3f1800"/>
      <path id="Path_184" data-name="Path 184" d="M1004.957,1218.589a6.791,6.791,0,0,0,.511-3.01h-.09a6.718,6.718,0,0,1-.5,2.968,1.455,1.455,0,0,1-1.387.87v.09a1.551,1.551,0,0,0,1.467-.918m-2.106,3.246.091.111a4.849,4.849,0,0,0,.869.069v-.089a4.7,4.7,0,0,1-.96-.091" transform="translate(-988.808 -1198.368)" fill="#3f1800"/>
      <path id="Path_185" data-name="Path 185" d="M792.337,853.757v.184l.091.09v-.273s0-4.316,0-4.913l-.091-.111,0,5.024m-2.874,0c-.028-5.37-.035-10.9-.023-16.426v-.1l-.09-.049v.147c-.013,5.53-.005,11.057.022,16.427l0,.27.089-.09v-.18" transform="translate(-778.292 -825.266)" fill="#3f1800"/>
      <path id="Path_186" data-name="Path 186" d="M735.955,800.055h3.055v.1h-3.055Zm-.779-17.245c-.014,3.615-.012,7.308,0,10.976v.1l.091.048v-.144c-.011-3.669-.01-7.361,0-10.976v-.274l-.091.093v.182" transform="translate(-724.873 -771.388)" fill="#3f1800"/>
      <path id="Path_187" data-name="Path 187" d="M457.014,1473.508a6.758,6.758,0,0,1-3.876,1.016v.09a6.852,6.852,0,0,0,3.928-1.031l.121-.083-.091-.048-.08.055m-2.8-1.7-.092-.053a2,2,0,0,1-.907.181v.09a2.027,2.027,0,0,0,1-.218" transform="translate(-446.792 -1450.958)" fill="#3f1800"/>
      <path id="Path_188" data-name="Path 188" d="M176.794,790.209q0,1.724.006,3.444l.092.053q-.006-1.749-.006-3.5c0-1.979.005-3.959.014-5.918v-.178l-.089-.09,0,.268c-.008,1.959-.015,3.939-.015,5.918m-3.875,5.12a4.534,4.534,0,0,1-.956-3.121h-.091a4.638,4.638,0,0,0,.98,3.183,3.87,3.87,0,0,0,2.958,1.12v-.09a3.786,3.786,0,0,1-2.892-1.092m2.054-1.932a.957.957,0,0,0,.919.527v-.09c-.255,0-1.032-.01-1.035-1.5h-.091a2.351,2.351,0,0,0,.207,1.067" transform="translate(-169.465 -772.854)" fill="#3f1800"/>
      <path id="Path_189" data-name="Path 189" d="M171.81,782.611h.092v8.131h-.092Zm2.908.24q-.018,4.007-.013,8.014h.091c0-2.645,0-5.342.012-8.013l0-.276-.092.093v.184m4.809-.221h.182l.091-.093-.274,0-2.775.019.089.09,2.688-.017" transform="translate(-169.404 -771.388)" fill="#3f1800"/>
      <path id="Path_190" data-name="Path 190" d="M171.81,785.28h3v.127h-3Zm12.35,2.276a1.367,1.367,0,0,1,1.354.8,6.824,6.824,0,0,1,.46,2.953h.09a6.868,6.868,0,0,0-.469-2.995,1.47,1.47,0,0,0-1.434-.846v.092" transform="translate(-169.404 -774.094)" fill="#3f1800"/>
      <path id="Path_191" data-name="Path 191" d="M14.756,13.462v-.092a2.2,2.2,0,0,0-.716.122l.092.065a2.136,2.136,0,0,1,.624-.1m-3.7-1.549.09.049.083-.054a6.228,6.228,0,0,1,3.506-.933v-.091a6.307,6.307,0,0,0-3.555.948l-.123.08m3.226-7.519A25.044,25.044,0,0,0,1.627,10.782l.091.04A24.957,24.957,0,0,1,14.3,4.483a43.2,43.2,0,0,1,12.858-.374l.091-.083a43.4,43.4,0,0,0-12.966.368m12.9,12.957q0,1.5,0,3a9.262,9.262,0,0,1-3.236,7.4c-1.821,1.538-7.374,4.032-9.5,4.924v.1c2.1-.88,7.72-3.4,9.559-4.952a9.355,9.355,0,0,0,3.269-7.467q0-1.493,0-3c0-4.408-.01-8.877-.028-13.325l-.091.083c.018,4.419.027,8.86.027,13.242M4.949,27.746a9.262,9.262,0,0,1-3.235-7.4q0-1.472,0-2.984c0-2.134,0-4.324.006-6.543l-.091-.04q-.008,4.784,0,9.567A9.355,9.355,0,0,0,4.89,27.816c1.831,1.545,7.454,4.069,9.56,4.952v-.1c-2.129-.9-7.689-3.395-9.5-4.924M14.6.194H14.3C11.783.18,5.379.457.191,3.327L0,3.429l.091.053.141-.077C5.4.548,11.79.272,14.3.286H14.6C17.111.272,23.5.548,28.667,3.406l.142.077.091-.054-.189-.1C23.523.458,17.116.18,14.6.194" fill="#3f1800"/>
      <path id="Path_192" data-name="Path 192" d="M1046.271,248.173a12.2,12.2,0,0,1-.924,4.816,10.172,10.172,0,0,1-2.885,3.861,31.665,31.665,0,0,1-6.153,3.475q-1.49.7-3,1.353c-.426.183-1.2.508-1.4.59v.1c.2-.082,1.006-.42,1.433-.6.708-.308,1.8-.791,3.005-1.355a31.747,31.747,0,0,0,6.17-3.488,10.235,10.235,0,0,0,2.913-3.9,12.345,12.345,0,0,0,.931-4.851V231.265l-.091.054v16.854" transform="translate(-1017.462 -227.836)" fill="#3f1800"/>
      <path id="Path_193" data-name="Path 193" d="M13.055,261.679q-1.511-.653-3-1.353a31.626,31.626,0,0,1-6.15-3.474,10.191,10.191,0,0,1-2.887-3.863,12.247,12.247,0,0,1-.922-4.816l0-16.855L0,231.265l0,16.908a12.329,12.329,0,0,0,.93,4.851,10.245,10.245,0,0,0,2.912,3.9,31.746,31.746,0,0,0,6.17,3.488c1.2.564,2.3,1.046,3,1.355.424.183,1.238.521,1.431.6v-.1c-.192-.082-.97-.406-1.394-.59" transform="translate(0 -227.836)" fill="#3f1800"/>
      <g id="Group_153" data-name="Group 153" transform="translate(22.582 19.91)">
        <g id="Group_152" data-name="Group 152" clip-path="url(#clip-path-3)">
          <path id="Path_194" data-name="Path 194" d="M1613.684,1409.06a1.066,1.066,0,0,0,.278-.763c0-.013,0-.023,0-.035l-.091,0c0,.012,0,.023,0,.034a.968.968,0,0,1-.252.7,1.187,1.187,0,0,1-.87.3v.092a1.269,1.269,0,0,0,.936-.333" transform="translate(-1612.748 -1408.262)" fill="#492300"/>
        </g>
      </g>
      <g id="Group_155" data-name="Group 155" transform="translate(22.582 19.91)">
        <g id="Group_154" data-name="Group 154" clip-path="url(#clip-path-3)">
          <path id="Path_196" data-name="Path 196" d="M1612.731,1408.253h1.214v1.131h-1.214Z" transform="translate(-1612.731 -1408.253)" fill="url(#linear-gradient-3)"/>
        </g>
      </g>
      <path id="Path_198" data-name="Path 198" d="M1415.746,1378.145l-.09-.2-.009,3.342.09-.05.008-3.09" transform="translate(-1395.826 -1358.458)" fill="#3f1800"/>
      <g id="Group_157" data-name="Group 157" transform="translate(24.242 15.89)">
        <g id="Group_156" data-name="Group 156" clip-path="url(#clip-path-5)">
          <path id="Path_199" data-name="Path 199" d="M1733.863,1125.28l.089,0c.044-1.564-.371-2.8-2.566-4.122l-.047.078c2.157,1.3,2.565,2.509,2.524,4.04" transform="translate(-1731.339 -1121.162)" fill="#70491c"/>
        </g>
      </g>
      <g id="Group_159" data-name="Group 159" transform="translate(24.242 15.89)">
        <g id="Group_158" data-name="Group 158" clip-path="url(#clip-path-5)">
          <path id="Path_201" data-name="Path 201" d="M1731.339,1121.171H1734v4.122h-2.657Z" transform="translate(-1731.339 -1121.171)" fill="url(#linear-gradient-4)"/>
        </g>
      </g>
      <g id="Group_161" data-name="Group 161" transform="translate(19.822 20.007)">
        <g id="Group_160" data-name="Group 160" clip-path="url(#clip-path-7)">
          <path id="Path_203" data-name="Path 203" d="M1415.848,1418.1l-.136-.079-.09.05.179.108a5.709,5.709,0,0,0,2.928.807v-.09a5.618,5.618,0,0,1-2.881-.8m6.719-2.849.089,0a3.937,3.937,0,0,1-.975,2.511,3.893,3.893,0,0,1-2.951,1.221v-.091a3.8,3.8,0,0,0,2.883-1.192,3.862,3.862,0,0,0,.954-2.454Z" transform="translate(-1415.622 -1415.255)" fill="#492300"/>
        </g>
      </g>
      <g id="Group_163" data-name="Group 163" transform="translate(19.822 20.007)">
        <g id="Group_162" data-name="Group 162" clip-path="url(#clip-path-7)">
          <path id="Path_205" data-name="Path 205" d="M1415.648,1415.255h7.033V1419h-7.033Z" transform="translate(-1415.648 -1415.255)" fill="url(#linear-gradient-5)"/>
        </g>
      </g>
      <g id="Group_165" data-name="Group 165" transform="translate(19.831 19.485)">
        <g id="Group_164" data-name="Group 164" clip-path="url(#clip-path-9)">
          <path id="Path_207" data-name="Path 207" d="M1416.829,1378.552a3.63,3.63,0,0,0,2.208.946v-.092a3.581,3.581,0,0,1-2.148-.922l-.6-.542.09.2.453.407" transform="translate(-1416.286 -1377.943)" fill="#663f0f"/>
        </g>
      </g>
      <g id="Group_167" data-name="Group 167" transform="translate(19.831 19.485)">
        <g id="Group_166" data-name="Group 166" clip-path="url(#clip-path-9)">
          <path id="Path_209" data-name="Path 209" d="M1416.286,1377.943h2.75v1.556h-2.75Z" transform="translate(-1416.286 -1377.943)" fill="url(#linear-gradient-6)"/>
        </g>
      </g>
      <g id="Group_169" data-name="Group 169" transform="translate(22.743 14.374)">
        <g id="Group_168" data-name="Group 168" clip-path="url(#clip-path-11)">
          <path id="Path_211" data-name="Path 211" d="M1625.528,1014.369l.2.118.047-.078-.2-.118c-.86-.511-1.271-.785-1.258-1.4l-.091,0c-.014.661.437.96,1.3,1.476" transform="translate(-1624.224 -1012.893)" fill="#70491c"/>
        </g>
      </g>
      <g id="Group_171" data-name="Group 171" transform="translate(22.743 14.374)">
        <g id="Group_170" data-name="Group 170" clip-path="url(#clip-path-11)">
          <path id="Path_213" data-name="Path 213" d="M1623.247,1012.893h1.561v1.594h-1.561Z" transform="translate(-1623.261 -1012.893)" fill="url(#linear-gradient-7)"/>
        </g>
      </g>
      <g id="Group_173" data-name="Group 173" transform="translate(5.39 11.095)">
        <g id="Group_172" data-name="Group 172" clip-path="url(#clip-path-13)">
          <path id="Path_215" data-name="Path 215" d="M384.963,779.088q-.019,4.007-.012,8.013h.091c0-2.645,0-5.341.011-8.012l0-.369-.09.092,0,.276" transform="translate(-384.949 -778.72)" fill="#9c7955"/>
        </g>
      </g>
      <g id="Group_175" data-name="Group 175" transform="translate(5.39 11.095)">
        <g id="Group_174" data-name="Group 174" clip-path="url(#clip-path-13)">
          <path id="Path_217" data-name="Path 217" d="M384.746,778.738h.109v8.381h-.109Z" transform="translate(-384.749 -778.738)" fill="url(#linear-gradient-8)"/>
        </g>
      </g>
      <path id="Path_219" data-name="Path 219" d="M1009.358,954.713l-.09-.067v7.413l.09-.071v-7.275" transform="translate(-995.136 -941.088)" fill="#8a643e"/>
      <path id="Path_220" data-name="Path 220" d="M165.365,778.738h3.181v.128h-3.181Z" transform="translate(-163.05 -767.643)" fill="#785228"/>
      <path id="Path_221" data-name="Path 221" d="M517.085,783.855c0-1.979.006-3.959.015-5.918l0-.268-.091-.09v.359q-.015,2.959-.015,5.918,0,1.7,0,3.387l.091.057q-.005-1.718-.006-3.444" transform="translate(-509.756 -766.5)" fill="#70491c"/>
      <g id="Group_177" data-name="Group 177" transform="translate(5.392 19.476)">
        <g id="Group_176" data-name="Group 176" clip-path="url(#clip-path-15)">
          <path id="Path_222" data-name="Path 222" d="M386.117,1378.792v-.091c-.257,0-.942-.007-.945-1.413h-.091c0,1.494.78,1.5,1.035,1.5m0,0v-.091a1.978,1.978,0,0,0,.816-.146l.091.056a2.008,2.008,0,0,1-.907.181Z" transform="translate(-385.082 -1377.288)" fill="#532d00"/>
        </g>
      </g>
      <g id="Group_179" data-name="Group 179" transform="translate(5.392 19.476)">
        <g id="Group_178" data-name="Group 178" clip-path="url(#clip-path-15)">
          <path id="Path_224" data-name="Path 224" d="M385.091,1377.262h1.943v1.506h-1.943Z" transform="translate(-385.091 -1377.262)" fill="url(#linear-gradient-9)"/>
        </g>
      </g>
      <path id="Path_226" data-name="Path 226" d="M518.1,776.078l.091.09,2.775-.019.274,0,.091-.091-.365,0-2.866.019" transform="translate(-510.847 -764.999)" fill="#663f0f"/>
      <g id="Group_181" data-name="Group 181" transform="translate(2.315 11.135)">
        <g id="Group_180" data-name="Group 180" clip-path="url(#clip-path-17)">
          <path id="Path_227" data-name="Path 227" d="M173.305,793.071a6.851,6.851,0,0,1-3.928,1.031v.091a6.944,6.944,0,0,0,3.98-1.048l.16-.109-.09-.048-.121.083m-6.886-.089a4.638,4.638,0,0,1-.98-3.183h-.091a4.713,4.713,0,0,0,1,3.243,3.958,3.958,0,0,0,3.024,1.151V794.1a3.871,3.871,0,0,1-2.958-1.12Zm-1.071-11.4.09.089V789.8h-.091V781.58Z" transform="translate(-165.348 -781.58)" fill="#815b33"/>
        </g>
      </g>
      <g id="Group_183" data-name="Group 183" transform="translate(2.315 11.135)">
        <g id="Group_182" data-name="Group 182" clip-path="url(#clip-path-17)">
          <path id="Path_229" data-name="Path 229" d="M165.348,781.58h8.168v12.627h-8.168Z" transform="translate(-165.348 -781.58)" fill="url(#linear-gradient-10)"/>
        </g>
      </g>
      <path id="Path_231" data-name="Path 231" d="M741.682,776.43c-.012,3.615-.013,7.308,0,10.976v.144l.09.048v-.192c-.01-3.669-.01-7.361,0-10.974v-.367l-.09.091v.274" transform="translate(-731.287 -765.007)" fill="#8a643e"/>
      <g id="Group_185" data-name="Group 185" transform="translate(19.719 14.462)">
        <g id="Group_184" data-name="Group 184" clip-path="url(#clip-path-19)">
          <path id="Path_232" data-name="Path 232" d="M1410.977,1023.032l-.047.078c1.059.629,1.353.963,1.365,1.561l.091,0c-.014-.637-.317-.987-1.409-1.637m0,0-.047.078a5.926,5.926,0,0,1-2.115-1.862,3.67,3.67,0,0,1-.5-2.025h.09c.006,1.45.429,2.538,2.576,3.81Z" transform="translate(-1408.31 -1019.222)" fill="#492300"/>
        </g>
      </g>
      <g id="Group_188" data-name="Group 188" transform="translate(19.719 14.462)">
        <g id="Group_187" data-name="Group 187">
          <g id="Group_186" data-name="Group 186" clip-path="url(#clip-path-19)">
            <path id="Path_234" data-name="Path 234" d="M1408.283,1019.213h4.075v5.449h-4.075Z" transform="translate(-1408.284 -1019.213)" fill="url(#linear-gradient-11)"/>
          </g>
        </g>
      </g>
      <path id="Path_236" data-name="Path 236" d="M783,850.263c-.027-5.37-.035-10.9-.022-16.427v-.147l-.091-.049v.2c-.012,5.529-.006,11.058.022,16.428l0,.359.09-.09,0-.27" transform="translate(-771.923 -821.776)" fill="#532d00"/>
      <g id="Group_194" data-name="Group 194" transform="translate(14.132 17.211)">
        <g id="Group_190" data-name="Group 190">
          <g id="Group_189" data-name="Group 189" clip-path="url(#clip-path-21)">
            <path id="Path_237" data-name="Path 237" d="M1011.141,1218.5a1.368,1.368,0,0,1-1.307.822v.092a1.456,1.456,0,0,0,1.387-.87,6.714,6.714,0,0,0,.5-2.968h-.091a6.622,6.622,0,0,1-.492,2.925m-1.307.822v.092a2.059,2.059,0,0,1-.55-.079l.09-.071A1.855,1.855,0,0,0,1009.834,1219.317Z" transform="translate(-1009.286 -1215.57)" fill="#492300"/>
          </g>
        </g>
        <g id="Group_193" data-name="Group 193">
          <g id="Group_192" data-name="Group 192">
            <g id="Group_191" data-name="Group 191" clip-path="url(#clip-path-21)">
              <path id="Path_239" data-name="Path 239" d="M1009.286,1215.57h2.438v3.839h-2.438Z" transform="translate(-1009.286 -1215.57)" fill="url(#linear-gradient-12)"/>
            </g>
          </g>
        </g>
      </g>
      <g id="Group_200" data-name="Group 200" transform="translate(14.132 13.462)">
        <g id="Group_196" data-name="Group 196">
          <g id="Group_195" data-name="Group 195" clip-path="url(#clip-path-23)">
            <path id="Path_241" data-name="Path 241" d="M1009.892,947.821v.09a1.287,1.287,0,0,1,1.272.748,6.726,6.726,0,0,1,.451,2.911h.09a6.821,6.821,0,0,0-.46-2.953,1.367,1.367,0,0,0-1.354-.8m-.534.163-.09-.067a2.126,2.126,0,0,1,.624-.1v.09a2.052,2.052,0,0,0-.534.072Z" transform="translate(-1009.268 -947.821)" fill="#492300"/>
          </g>
        </g>
        <g id="Group_199" data-name="Group 199">
          <g id="Group_198" data-name="Group 198">
            <g id="Group_197" data-name="Group 197" clip-path="url(#clip-path-23)">
              <path id="Path_243" data-name="Path 243" d="M1009.286,947.821h2.438v3.749h-2.438Z" transform="translate(-1009.286 -947.821)" fill="url(#linear-gradient-13)"/>
            </g>
          </g>
        </g>
      </g>
      <path id="Path_245" data-name="Path 245" d="M785.045,2040.131h3.236v.1h-3.236Z" transform="translate(-774.053 -2011.374)" fill="#8a643e"/>
      <g id="Group_206" data-name="Group 206" transform="translate(10.969 10.794)">
        <g id="Group_202" data-name="Group 202">
          <g id="Group_201" data-name="Group 201" clip-path="url(#clip-path-25)">
            <path id="Path_246" data-name="Path 246" d="M783.577,758.311a6.307,6.307,0,0,1,3.555-.948v-.09a6.392,6.392,0,0,0-3.606.962l-.164.107.091.049.123-.08m3.555-1.038v.09a4.469,4.469,0,0,1,3.694,1.717,7.423,7.423,0,0,1,1.266,4.542h.092a7.541,7.541,0,0,0-1.284-4.6A4.556,4.556,0,0,0,787.132,757.272Zm-.605,12.784.09.107a5.363,5.363,0,0,0,.779.053v-.091a4.846,4.846,0,0,1-.869-.069Zm5.565-6.435h.092a8.3,8.3,0,0,1-1.224,4.712,4.175,4.175,0,0,1-3.564,1.884v-.091a4.081,4.081,0,0,0,3.489-1.846,8.218,8.218,0,0,0,1.208-4.659Z" transform="translate(-783.363 -757.272)" fill="#3e1700"/>
          </g>
        </g>
        <g id="Group_205" data-name="Group 205">
          <g id="Group_204" data-name="Group 204">
            <g id="Group_203" data-name="Group 203" clip-path="url(#clip-path-25)">
              <path id="Path_248" data-name="Path 248" d="M783.346,757.281h8.821v12.945h-8.821Z" transform="translate(-783.346 -757.281)" fill="url(#linear-gradient-14)"/>
            </g>
          </g>
        </g>
      </g>
      <path id="Path_250" data-name="Path 250" d="M1884.61,837.287l.092.228-.008-3.265-.091.044.006,2.993" transform="translate(-1858.216 -822.378)" fill="#8a643e"/>
      <g id="Group_212" data-name="Group 212" transform="translate(22.743 13.445)">
        <g id="Group_208" data-name="Group 208">
          <g id="Group_207" data-name="Group 207" clip-path="url(#clip-path-27)">
            <path id="Path_251" data-name="Path 251" d="M1627.419,947.568a2.987,2.987,0,0,0-2-.964l0,.091a2.9,2.9,0,0,1,1.938.936l.628.666-.093-.228-.471-.5m-2-.964,0,.091a1.319,1.319,0,0,0-.772.193.746.746,0,0,0-.315.646l-.091,0c.021-.857.832-.934,1.18-.928Z" transform="translate(-1624.238 -946.604)" fill="#3e1700"/>
          </g>
        </g>
        <g id="Group_211" data-name="Group 211">
          <g id="Group_210" data-name="Group 210">
            <g id="Group_209" data-name="Group 209" clip-path="url(#clip-path-27)">
              <path id="Path_253" data-name="Path 253" d="M1624.247,946.184h3.744v1.7h-3.744Z" transform="translate(-1624.247 -946.19)" fill="url(#linear-gradient-15)"/>
            </g>
          </g>
        </g>
      </g>
      <g id="Group_218" data-name="Group 218" transform="translate(19.719 10.841)">
        <g id="Group_214" data-name="Group 214">
          <g id="Group_213" data-name="Group 213" clip-path="url(#clip-path-29)">
            <path id="Path_255" data-name="Path 255" d="M1408.283,764.192v.022h.09v-.023a3.319,3.319,0,0,1,1.149-2.566,3.9,3.9,0,0,1,2.456-.94v-.091a4,4,0,0,0-2.517.964,3.451,3.451,0,0,0-1.177,2.635m3.695-3.508v-.091a4.517,4.517,0,0,1,2.931.922l.136.108-.09.044-.1-.082a4.433,4.433,0,0,0-2.873-.9Z" transform="translate(-1408.283 -760.592)" fill="#492300"/>
          </g>
        </g>
        <g id="Group_217" data-name="Group 217">
          <g id="Group_216" data-name="Group 216">
            <g id="Group_215" data-name="Group 215" clip-path="url(#clip-path-29)">
              <path id="Path_257" data-name="Path 257" d="M1408.283,758.644h6.76v3.649h-6.76Z" transform="translate(-1408.283 -758.671)" fill="url(#linear-gradient-16)"/>
            </g>
          </g>
        </g>
      </g>
      <path id="Path_259" data-name="Path 259" d="M1009.316,1675.213v.273l.091.091,0-.364,0-4.806-.09-.107c0,.6,0,4.913,0,4.913" transform="translate(-995.18 -1646.721)" fill="#785228"/>
      <g id="Group_224" data-name="Group 224" transform="translate(1.718 3.811)">
        <g id="Group_220" data-name="Group 220">
          <g id="Group_219" data-name="Group 219" clip-path="url(#clip-path-31)">
            <path id="Path_260" data-name="Path 260" d="M135.31,259.271a43.075,43.075,0,0,1,12.75-.382l.09-.081a43.193,43.193,0,0,0-12.858.374,24.955,24.955,0,0,0-12.585,6.339l.092.04a24.874,24.874,0,0,1,12.511-6.289" transform="translate(-122.707 -258.509)" fill="#8c6741"/>
          </g>
        </g>
        <g id="Group_223" data-name="Group 223">
          <g id="Group_222" data-name="Group 222">
            <g id="Group_221" data-name="Group 221" clip-path="url(#clip-path-31)">
              <path id="Path_262" data-name="Path 262" d="M122.7,244.366h25.443v7.249H122.7Z" transform="translate(-122.698 -244.564)" fill="url(#linear-gradient-17)"/>
            </g>
          </g>
        </g>
      </g>
      <path id="Path_264" data-name="Path 264" d="M1044.568,293.1q0,1.5,0,3a9.174,9.174,0,0,1-3.2,7.328c-1.8,1.522-7.293,3.992-9.442,4.893v.1c2.127-.891,7.679-3.385,9.5-4.924a9.261,9.261,0,0,0,3.236-7.4q0-1.493,0-3c0-4.381-.009-8.822-.028-13.242l-.09.081c.019,4.394.028,8.806.028,13.161" transform="translate(-1017.471 -275.745)" fill="#3f1800"/>
      <g id="Group_230" data-name="Group 230" transform="translate(1.712 10.822)">
        <g id="Group_226" data-name="Group 226">
          <g id="Group_225" data-name="Group 225" clip-path="url(#clip-path-33)">
            <path id="Path_265" data-name="Path 265" d="M122.249,768.748a9.262,9.262,0,0,0,3.235,7.4c1.812,1.53,7.372,4.029,9.5,4.924v-.1c-2.151-.9-7.649-3.38-9.443-4.9a9.176,9.176,0,0,1-3.2-7.326q0-1.472,0-2.984c0-2.121,0-4.3.007-6.5l-.092-.04c0,2.219-.006,4.41-.006,6.543q0,1.514,0,2.985" transform="translate(-122.247 -759.22)" fill="#492300"/>
          </g>
        </g>
        <g id="Group_229" data-name="Group 229">
          <g id="Group_228" data-name="Group 228">
            <g id="Group_227" data-name="Group 227" clip-path="url(#clip-path-33)">
              <path id="Path_267" data-name="Path 267" d="M122.256,759.246h12.738v21.848H122.256Z" transform="translate(-122.256 -759.246)" fill="url(#linear-gradient-18)"/>
            </g>
          </g>
        </g>
      </g>
      <path id="Path_269" data-name="Path 269" d="M1036.269,267.776a33.958,33.958,0,0,0,6.131-3.463,10.079,10.079,0,0,0,2.864-3.826,12.161,12.161,0,0,0,.915-4.781V238.9l-.181.108v16.694a10.564,10.564,0,0,1-3.713,8.469c-2.436,2.062-10.395,5.349-10.375,5.329v.2c.195-.08.936-.389,1.359-.572q1.511-.653,3-1.353" transform="translate(-1017.46 -235.368)" fill="#905800"/>
      <g id="Group_236" data-name="Group 236" transform="translate(0.182 3.536)">
        <g id="Group_232" data-name="Group 232">
          <g id="Group_231" data-name="Group 231" clip-path="url(#clip-path-35)">
            <path id="Path_270" data-name="Path 270" d="M16.9,264.174a10.568,10.568,0,0,1-3.711-8.469q0-8.348,0-16.694L13,238.9l0,16.8a12.144,12.144,0,0,0,.915,4.781,10.086,10.086,0,0,0,2.863,3.828,34.028,34.028,0,0,0,6.129,3.461q1.49.7,3,1.353c.424.183,1.165.492,1.358.572v-.2c.022.02-7.936-3.268-10.373-5.33" transform="translate(-13.004 -238.904)" fill="#ffd568"/>
          </g>
        </g>
        <g id="Group_235" data-name="Group 235">
          <g id="Group_234" data-name="Group 234">
            <g id="Group_233" data-name="Group 233" clip-path="url(#clip-path-35)">
              <path id="Path_272" data-name="Path 272" d="M13,238.9h14.29v30.8H13Z" transform="translate(-12.995 -238.904)" fill="url(#linear-gradient-19)"/>
            </g>
          </g>
        </g>
      </g>
      <path id="Path_274" data-name="Path 274" d="M27.262,13.351c-.019.029,7.905-.329,14.088,3.088l.181-.108-.094-.051c-5.152-2.848-11.522-3.123-14.019-3.109h-.31c-2.5-.014-8.869.262-14.02,3.109L13,16.331l.182.107c6.183-3.417,14.108-3.058,14.085-3.087" transform="translate(-12.813 -12.795)" fill="#ffd568"/>
      <g id="Group_242" data-name="Group 242" transform="translate(22.472 13.174)">
        <g id="Group_238" data-name="Group 238">
          <g id="Group_237" data-name="Group 237" clip-path="url(#clip-path-37)">
            <path id="Path_275" data-name="Path 275" d="M1604.888,928.4l.181,0c.023-.964.979-1.022,1.27-1.017l0-.18c-.7-.014-1.435.3-1.456,1.193" transform="translate(-1604.888 -927.207)" fill="#905800"/>
          </g>
        </g>
        <g id="Group_241" data-name="Group 241">
          <g id="Group_240" data-name="Group 240">
            <g id="Group_239" data-name="Group 239" clip-path="url(#clip-path-37)">
              <path id="Path_277" data-name="Path 277" d="M1604.888,926.231h1.456v1.212h-1.456Z" transform="translate(-1604.888 -926.245)" fill="url(#linear-gradient-20)"/>
            </g>
          </g>
        </g>
      </g>
      <g id="Group_248" data-name="Group 248" transform="translate(19.9 11.023)">
        <g id="Group_244" data-name="Group 244">
          <g id="Group_243" data-name="Group 243" clip-path="url(#clip-path-39)">
            <path id="Path_279" data-name="Path 279" d="M1424.761,773.777l0-.182a3.8,3.8,0,0,0-2.4.918,3.23,3.23,0,0,0-1.117,2.5v.023l.183,0a3.284,3.284,0,0,1,3.336-3.255" transform="translate(-1421.243 -773.595)" fill="#efcb95"/>
          </g>
        </g>
        <g id="Group_247" data-name="Group 247">
          <g id="Group_246" data-name="Group 246">
            <g id="Group_245" data-name="Group 245" clip-path="url(#clip-path-39)">
              <path id="Path_281" data-name="Path 281" d="M1421.243,773.6h3.518v3.439h-3.518Z" transform="translate(-1421.243 -773.595)" fill="url(#linear-gradient-21)"/>
            </g>
          </g>
        </g>
      </g>
      <g id="Group_254" data-name="Group 254" transform="translate(23.923 13.174)">
        <g id="Group_250" data-name="Group 250">
          <g id="Group_249" data-name="Group 249" clip-path="url(#clip-path-41)">
            <path id="Path_283" data-name="Path 283" d="M1708.55,927.249l0,.18a3.093,3.093,0,0,1,2.067.992l.314.334-.183-.458a3.256,3.256,0,0,0-2.194-1.049" transform="translate(-1708.545 -927.249)" fill="#905800"/>
          </g>
        </g>
        <g id="Group_253" data-name="Group 253">
          <g id="Group_252" data-name="Group 252">
            <g id="Group_251" data-name="Group 251" clip-path="url(#clip-path-41)">
              <path id="Path_285" data-name="Path 285" d="M1708.545,927.249h2.381v1.506h-2.381Z" transform="translate(-1708.545 -927.249)" fill="url(#linear-gradient-22)"/>
            </g>
          </g>
        </g>
      </g>
      <g id="Group_260" data-name="Group 260" transform="translate(23.417 11.022)">
        <g id="Group_256" data-name="Group 256">
          <g id="Group_255" data-name="Group 255" clip-path="url(#clip-path-43)">
            <path id="Path_287" data-name="Path 287" d="M1675.094,774.561l.18-.088-.067-.054a4.329,4.329,0,0,0-2.813-.883l0,.182a4.181,4.181,0,0,1,2.7.844" transform="translate(-1672.394 -773.534)" fill="#e2ab53"/>
          </g>
        </g>
        <g id="Group_259" data-name="Group 259">
          <g id="Group_258" data-name="Group 258">
            <g id="Group_257" data-name="Group 257" clip-path="url(#clip-path-43)">
              <path id="Path_289" data-name="Path 289" d="M1672.394,771.621h2.88v1.053h-2.88Z" transform="translate(-1672.394 -771.648)" fill="url(#linear-gradient-23)"/>
            </g>
          </g>
        </g>
      </g>
      <path id="Path_291" data-name="Path 291" d="M1865.205,842.832l.183.458-.008-2.72-.18.088q0,1.085,0,2.174" transform="translate(-1839.083 -828.61)" fill="#905800"/>
      <g id="Group_266" data-name="Group 266" transform="translate(22.471 14.367)">
        <g id="Group_262" data-name="Group 262">
          <g id="Group_261" data-name="Group 261" clip-path="url(#clip-path-45)">
            <path id="Path_292" data-name="Path 292" d="M1606.487,1014.276l.094-.156-.2-.119c-.822-.489-1.363-.81-1.346-1.555l-.182,0c-.021.917.714,1.282,1.631,1.834" transform="translate(-1604.856 -1012.442)" fill="#ddac72"/>
          </g>
        </g>
        <g id="Group_265" data-name="Group 265">
          <g id="Group_264" data-name="Group 264">
            <g id="Group_263" data-name="Group 263" clip-path="url(#clip-path-45)">
              <path id="Path_294" data-name="Path 294" d="M1603.365,1012.45h1.746v1.834h-1.746Z" transform="translate(-1603.386 -1012.45)" fill="url(#linear-gradient-24)"/>
            </g>
          </g>
        </g>
      </g>
      <g id="Group_272" data-name="Group 272" transform="translate(22.432 18.039)">
        <g id="Group_268" data-name="Group 268">
          <g id="Group_267" data-name="Group 267" clip-path="url(#clip-path-47)">
            <path id="Path_296" data-name="Path 296" d="M1603.465,1276.561l.181,0c-.018-.791-.452-1.218-1.543-1.865l-.092.156c1.113.661,1.438,1.044,1.454,1.712" transform="translate(-1602.011 -1274.693)" fill="#eabd79"/>
          </g>
        </g>
        <g id="Group_271" data-name="Group 271">
          <g id="Group_270" data-name="Group 270">
            <g id="Group_269" data-name="Group 269" clip-path="url(#clip-path-47)">
              <path id="Path_298" data-name="Path 298" d="M1602.011,1274.684h1.635v1.868h-1.635Z" transform="translate(-1602.011 -1274.684)" fill="url(#linear-gradient-25)"/>
            </g>
          </g>
        </g>
      </g>
      <g id="Group_278" data-name="Group 278" transform="translate(20.004 22.623)">
        <g id="Group_274" data-name="Group 274">
          <g id="Group_273" data-name="Group 273" clip-path="url(#clip-path-49)">
            <path id="Path_300" data-name="Path 300" d="M1428.824,1602.06l-.181.1.089.053a5.543,5.543,0,0,0,2.835.784l0-.182a5.371,5.371,0,0,1-2.742-.758" transform="translate(-1428.643 -1602.06)" fill="#c27913"/>
          </g>
        </g>
        <g id="Group_277" data-name="Group 277">
          <g id="Group_276" data-name="Group 276">
            <g id="Group_275" data-name="Group 275" clip-path="url(#clip-path-49)">
              <path id="Path_302" data-name="Path 302" d="M1428.643,1602.06h2.925v.948h-2.925Z" transform="translate(-1428.643 -1602.06)" fill="url(#linear-gradient-26)"/>
            </g>
          </g>
        </g>
      </g>
      <path id="Path_304" data-name="Path 304" d="M1428.822,1407.295l-.18-.406-.007,2.836.181-.1q.007-1.162.007-2.327" transform="translate(-1408.63 -1386.999)" fill="#edc68c"/>
      <g id="Group_284" data-name="Group 284" transform="translate(19.9 14.46)">
        <g id="Group_280" data-name="Group 280">
          <g id="Group_279" data-name="Group 279" clip-path="url(#clip-path-51)">
            <path id="Path_305" data-name="Path 305" d="M1421.426,1019.089l-.183,0c.007,1.416.422,2.482,2.531,3.733l.092-.156c-2.057-1.22-2.436-2.23-2.44-3.579" transform="translate(-1421.243 -1019.089)" fill="#efcb95"/>
          </g>
        </g>
        <g id="Group_283" data-name="Group 283">
          <g id="Group_282" data-name="Group 282">
            <g id="Group_281" data-name="Group 281" clip-path="url(#clip-path-51)">
              <path id="Path_307" data-name="Path 307" d="M1421.243,1019.089h2.623v3.735h-2.623Z" transform="translate(-1421.243 -1019.089)" fill="url(#linear-gradient-27)"/>
            </g>
          </g>
        </g>
      </g>
      <g id="Group_290" data-name="Group 290" transform="translate(20.011 19.89)">
        <g id="Group_286" data-name="Group 286">
          <g id="Group_285" data-name="Group 285" clip-path="url(#clip-path-53)">
            <path id="Path_309" data-name="Path 309" d="M1431.744,1408.312v-.182a3.728,3.728,0,0,1-2.27-.971l-.3-.27.18.406a3.913,3.913,0,0,0,2.39,1.017" transform="translate(-1429.174 -1406.889)" fill="#eabd79"/>
          </g>
        </g>
        <g id="Group_289" data-name="Group 289">
          <g id="Group_288" data-name="Group 288">
            <g id="Group_287" data-name="Group 287" clip-path="url(#clip-path-53)">
              <path id="Path_311" data-name="Path 311" d="M1429.148,1406.9h2.57v1.422h-2.57Z" transform="translate(-1429.149 -1406.898)" fill="url(#linear-gradient-28)"/>
            </g>
          </g>
        </g>
      </g>
      <g id="Group_296" data-name="Group 296" transform="translate(22.927 19.997)">
        <g id="Group_292" data-name="Group 292">
          <g id="Group_291" data-name="Group 291" clip-path="url(#clip-path-55)">
            <path id="Path_313" data-name="Path 313" d="M1637.4,1417.895l0,.182a3.566,3.566,0,0,0,3.746-3.558l-.18-.008a3.39,3.39,0,0,1-3.568,3.384" transform="translate(-1637.401 -1414.511)" fill="#905800"/>
          </g>
        </g>
        <g id="Group_295" data-name="Group 295">
          <g id="Group_294" data-name="Group 294">
            <g id="Group_293" data-name="Group 293" clip-path="url(#clip-path-55)">
              <path id="Path_315" data-name="Path 315" d="M1637.4,1414.493h3.747v3.566H1637.4Z" transform="translate(-1637.401 -1414.494)" fill="url(#linear-gradient-29)"/>
            </g>
          </g>
        </g>
      </g>
      <g id="Group_302" data-name="Group 302" transform="translate(22.582 19.904)">
        <g id="Group_298" data-name="Group 298">
          <g id="Group_297" data-name="Group 297" clip-path="url(#clip-path-57)">
            <path id="Path_317" data-name="Path 317" d="M1614.216,1407.854l-.182,0c0,.013,0,.025,0,.038a1.152,1.152,0,0,1-.3.826,1.361,1.361,0,0,1-1,.361v.182a1.336,1.336,0,0,0,1.485-1.409" transform="translate(-1612.731 -1407.854)" fill="#eabd79"/>
          </g>
        </g>
        <g id="Group_301" data-name="Group 301">
          <g id="Group_300" data-name="Group 300">
            <g id="Group_299" data-name="Group 299" clip-path="url(#clip-path-57)">
              <path id="Path_319" data-name="Path 319" d="M1612.731,1407.854h1.5v1.409h-1.5Z" transform="translate(-1612.731 -1407.854)" fill="url(#linear-gradient-30)"/>
            </g>
          </g>
        </g>
      </g>
      <g id="Group_308" data-name="Group 308" transform="translate(24.103 16.045)">
        <g id="Group_304" data-name="Group 304">
          <g id="Group_303" data-name="Group 303" clip-path="url(#clip-path-59)">
            <path id="Path_321" data-name="Path 321" d="M1723.772,1136.188l.18.008a3.77,3.77,0,0,0-.431-2.075,5.443,5.443,0,0,0-2.047-1.885l-.093.156c2.058,1.241,2.43,2.339,2.391,3.8" transform="translate(-1721.381 -1132.236)" fill="#ddac72"/>
          </g>
        </g>
        <g id="Group_307" data-name="Group 307">
          <g id="Group_306" data-name="Group 306">
            <g id="Group_305" data-name="Group 305" clip-path="url(#clip-path-59)">
              <path id="Path_323" data-name="Path 323" d="M1721.39,1132.245h2.595v3.96h-2.595Z" transform="translate(-1721.39 -1132.245)" fill="url(#linear-gradient-31)"/>
            </g>
          </g>
        </g>
      </g>
      <g id="Group_314" data-name="Group 314" transform="translate(14.756 13.19)">
        <g id="Group_310" data-name="Group 310">
          <g id="Group_309" data-name="Group 309" clip-path="url(#clip-path-61)">
            <path id="Path_325" data-name="Path 325" d="M1053.838,928.563a1.471,1.471,0,0,1,1.434.846,6.868,6.868,0,0,1,.469,2.995h.183c0-2.846-.615-4.02-2.086-4.02v.18" transform="translate(-1053.838 -928.382)" fill="#eabd79"/>
          </g>
        </g>
        <g id="Group_313" data-name="Group 313">
          <g id="Group_312" data-name="Group 312">
            <g id="Group_311" data-name="Group 311" clip-path="url(#clip-path-61)">
              <path id="Path_327" data-name="Path 327" d="M1053.838,928.391h2.086v4.021h-2.086Z" transform="translate(-1053.838 -928.391)" fill="url(#linear-gradient-32)"/>
            </g>
          </g>
        </g>
      </g>
      <g id="Group_320" data-name="Group 320" transform="translate(13.858 13.19)">
        <g id="Group_316" data-name="Group 316">
          <g id="Group_315" data-name="Group 315" clip-path="url(#clip-path-63)">
            <path id="Path_329" data-name="Path 329" d="M990.629,928.571v-.18a2.237,2.237,0,0,0-.9.182l.182.121a2.188,2.188,0,0,1,.716-.122" transform="translate(-989.731 -928.391)" fill="#905800"/>
          </g>
        </g>
        <g id="Group_319" data-name="Group 319">
          <g id="Group_318" data-name="Group 318">
            <g id="Group_317" data-name="Group 317" clip-path="url(#clip-path-63)">
              <path id="Path_331" data-name="Path 331" d="M989.731,928.391h.9v.3h-.9Z" transform="translate(-989.731 -928.391)" fill="url(#linear-gradient-33)"/>
            </g>
          </g>
        </g>
      </g>
      <g id="Group_326" data-name="Group 326" transform="translate(15.002 17.143)">
        <g id="Group_322" data-name="Group 322">
          <g id="Group_321" data-name="Group 321" clip-path="url(#clip-path-65)">
            <path id="Path_333" data-name="Path 333" d="M1071.383,1216.934v.183a4.007,4.007,0,0,0,3.415-1.808,8.129,8.129,0,0,0,1.191-4.607h-.181c0,3.7-1.617,6.23-4.424,6.233" transform="translate(-1071.383 -1210.701)" fill="#905800"/>
          </g>
        </g>
        <g id="Group_325" data-name="Group 325">
          <g id="Group_324" data-name="Group 324">
            <g id="Group_323" data-name="Group 323" clip-path="url(#clip-path-65)">
              <path id="Path_335" data-name="Path 335" d="M1071.383,1210.7h4.605v6.416h-4.605Z" transform="translate(-1071.383 -1210.701)" fill="url(#linear-gradient-34)"/>
            </g>
          </g>
        </g>
      </g>
      <g id="Group_332" data-name="Group 332" transform="translate(11.143 11.962)">
        <g id="Group_328" data-name="Group 328">
          <g id="Group_327" data-name="Group 327" clip-path="url(#clip-path-67)">
            <path id="Path_337" data-name="Path 337" d="M795.8,857.192v.18l.181-.182q-.041-8.213-.023-16.425l-.18-.1v.1c-.012,5.529,0,11.057.023,16.427" transform="translate(-795.772 -840.667)" fill="#e0b27c"/>
          </g>
        </g>
        <g id="Group_331" data-name="Group 331">
          <g id="Group_330" data-name="Group 330">
            <g id="Group_329" data-name="Group 329" clip-path="url(#clip-path-67)">
              <path id="Path_339" data-name="Path 339" d="M795.305,840.685h.216V857.39h-.216Z" transform="translate(-795.312 -840.685)" fill="url(#linear-gradient-35)"/>
            </g>
          </g>
        </g>
      </g>
      <g id="Group_338" data-name="Group 338" transform="translate(13.858 13.372)">
        <g id="Group_334" data-name="Group 334">
          <g id="Group_333" data-name="Group 333" clip-path="url(#clip-path-69)">
            <path id="Path_341" data-name="Path 341" d="M989.913,941.5l-.182-.121c0,2.592,0,5.2,0,7.8l.181-.129V941.5" transform="translate(-989.731 -941.377)" fill="#905800"/>
          </g>
        </g>
        <g id="Group_337" data-name="Group 337">
          <g id="Group_336" data-name="Group 336">
            <g id="Group_335" data-name="Group 335" clip-path="url(#clip-path-69)">
              <path id="Path_343" data-name="Path 343" d="M989.731,941.386h.182v7.8h-.182Z" transform="translate(-989.731 -941.386)" fill="url(#linear-gradient-36)"/>
            </g>
          </g>
        </g>
      </g>
      <g id="Group_344" data-name="Group 344" transform="translate(14.737 10.976)">
        <g id="Group_340" data-name="Group 340">
          <g id="Group_339" data-name="Group 339" clip-path="url(#clip-path-71)">
            <path id="Path_345" data-name="Path 345" d="M1057.19,776.391h.181a7.344,7.344,0,0,0-1.247-4.488,4.382,4.382,0,0,0-3.623-1.68v.183c3.024,0,4.686,2.292,4.689,5.985" transform="translate(-1052.501 -770.223)" fill="#edc68c"/>
          </g>
        </g>
        <g id="Group_343" data-name="Group 343">
          <g id="Group_342" data-name="Group 342">
            <g id="Group_341" data-name="Group 341" clip-path="url(#clip-path-71)">
              <path id="Path_347" data-name="Path 347" d="M1052.528,770.223h4.87v6.168h-4.87Z" transform="translate(-1052.528 -770.223)" fill="url(#linear-gradient-37)"/>
            </g>
          </g>
        </g>
      </g>
      <g id="Group_350" data-name="Group 350" transform="translate(11.149 10.976)">
        <g id="Group_346" data-name="Group 346">
          <g id="Group_345" data-name="Group 345" clip-path="url(#clip-path-73)">
            <path id="Path_349" data-name="Path 349" d="M799.832,770.406v-.183a6.228,6.228,0,0,0-3.506.933l-.083.054.18.1a6.071,6.071,0,0,1,3.408-.9" transform="translate(-796.243 -770.223)" fill="#ffecc0"/>
          </g>
        </g>
        <g id="Group_349" data-name="Group 349">
          <g id="Group_348" data-name="Group 348">
            <g id="Group_347" data-name="Group 347" clip-path="url(#clip-path-73)">
              <path id="Path_351" data-name="Path 351" d="M796.243,770.223h3.589v1.085h-3.589Z" transform="translate(-796.243 -770.223)" fill="url(#linear-gradient-38)"/>
            </g>
          </g>
        </g>
      </g>
      <g id="Group_356" data-name="Group 356" transform="translate(13.86 23.235)">
        <g id="Group_352" data-name="Group 352">
          <g id="Group_351" data-name="Group 351" clip-path="url(#clip-path-75)">
            <path id="Path_353" data-name="Path 353" d="M989.846,1645.771l.182.233a4.683,4.683,0,0,0,.96.091v-.183a3.954,3.954,0,0,1-1.142-.14" transform="translate(-989.846 -1645.771)" fill="#905800"/>
          </g>
        </g>
        <g id="Group_355" data-name="Group 355">
          <g id="Group_354" data-name="Group 354">
            <g id="Group_353" data-name="Group 353" clip-path="url(#clip-path-75)">
              <path id="Path_355" data-name="Path 355" d="M989.846,1645.771h1.142v.324h-1.142Z" transform="translate(-989.846 -1645.771)" fill="url(#linear-gradient-39)"/>
            </g>
          </g>
        </g>
      </g>
      <g id="Group_362" data-name="Group 362" transform="translate(13.86 23.235)">
        <g id="Group_358" data-name="Group 358">
          <g id="Group_357" data-name="Group 357" clip-path="url(#clip-path-77)">
            <path id="Path_357" data-name="Path 357" d="M989.859,1651.036l.183.184v-.184s0-4.6,0-5.024l-.182-.232c0,1.768,0,3.526,0,5.256" transform="translate(-989.855 -1645.78)" fill="#905800"/>
          </g>
        </g>
        <g id="Group_361" data-name="Group 361">
          <g id="Group_360" data-name="Group 360">
            <g id="Group_359" data-name="Group 359" clip-path="url(#clip-path-77)">
              <path id="Path_359" data-name="Path 359" d="M989.846,1645.771h.186v5.44h-.186Z" transform="translate(-989.846 -1645.771)" fill="url(#linear-gradient-40)"/>
            </g>
          </g>
        </g>
      </g>
      <path id="Path_361" data-name="Path 361" d="M798.017,2020.762l-.181.182,2.875.008-.183-.184q-1.256,0-2.511-.006" transform="translate(-786.665 -1992.276)" fill="#905800"/>
      <g id="Group_368" data-name="Group 368" transform="translate(14.681 17.21)">
        <g id="Group_364" data-name="Group 364">
          <g id="Group_363" data-name="Group 363" clip-path="url(#clip-path-79)">
            <path id="Path_362" data-name="Path 362" d="M1050.487,1215.482h.183c0,2.776-.7,4.111-2.16,4.112v-.182a1.551,1.551,0,0,0,1.467-.918,6.781,6.781,0,0,0,.511-3.01" transform="translate(-1048.509 -1215.481)" fill="#ffe4a2"/>
          </g>
        </g>
        <g id="Group_367" data-name="Group 367">
          <g id="Group_366" data-name="Group 366">
            <g id="Group_365" data-name="Group 365" clip-path="url(#clip-path-79)">
              <path id="Path_364" data-name="Path 364" d="M1048.509,1215.49h2.16v4.112h-2.16Z" transform="translate(-1048.509 -1215.49)" fill="url(#linear-gradient-41)"/>
            </g>
          </g>
        </g>
      </g>
      <path id="Path_366" data-name="Path 366" d="M990.615,1489.1a2.282,2.282,0,0,1-.641-.1l-.181.129a2.418,2.418,0,0,0,.822.153v-.182" transform="translate(-975.934 -1467.961)" fill="#ffe4a2"/>
      <g id="Group_374" data-name="Group 374" transform="translate(7.42 11.259)">
        <g id="Group_370" data-name="Group 370">
          <g id="Group_369" data-name="Group 369" clip-path="url(#clip-path-81)">
            <path id="Path_367" data-name="Path 367" d="M530.125,790.6l-.182-.181v.179c-.008,1.959-.014,3.939-.014,5.918q0,1.752.006,3.5l.18.1c-.008-3.17-.005-6.359.01-9.515" transform="translate(-529.929 -790.423)" fill="#db9a28"/>
          </g>
        </g>
        <g id="Group_373" data-name="Group 373">
          <g id="Group_372" data-name="Group 372">
            <g id="Group_371" data-name="Group 371" clip-path="url(#clip-path-81)">
              <path id="Path_369" data-name="Path 369" d="M529.938,790.414h.2v9.7h-.2Z" transform="translate(-529.938 -790.414)" fill="url(#linear-gradient-42)"/>
            </g>
          </g>
        </g>
      </g>
      <g id="Group_380" data-name="Group 380" transform="translate(10.112 11.241)">
        <g id="Group_376" data-name="Group 376">
          <g id="Group_375" data-name="Group 375" clip-path="url(#clip-path-83)">
            <path id="Path_371" data-name="Path 371" d="M722.176,800.306l.182.1v-.1c-.01-3.669-.011-7.361,0-10.976v-.182l-.182.182q-.021,5.488,0,10.976" transform="translate(-722.167 -789.148)" fill="#c27913"/>
          </g>
        </g>
        <g id="Group_379" data-name="Group 379">
          <g id="Group_378" data-name="Group 378">
            <g id="Group_377" data-name="Group 377" clip-path="url(#clip-path-83)">
              <path id="Path_373" data-name="Path 373" d="M721.939,789.157h.2v11.254h-.2Z" transform="translate(-721.942 -789.157)" fill="url(#linear-gradient-43)"/>
            </g>
          </g>
        </g>
      </g>
      <path id="Path_375" data-name="Path 375" d="M533.661,789.339l.182-.182h-.182l-2.688.017.182.181q1.247-.011,2.506-.017" transform="translate(-523.538 -777.916)" fill="#f7e4ca"/>
      <g id="Group_386" data-name="Group 386" transform="translate(6.346 22.399)">
        <g id="Group_382" data-name="Group 382">
          <g id="Group_381" data-name="Group 381" clip-path="url(#clip-path-85)">
            <path id="Path_376" data-name="Path 376" d="M453.2,1587.031l0,.182a6.761,6.761,0,0,0,3.876-1.016l.08-.055-.182-.1a6.557,6.557,0,0,1-3.772.985" transform="translate(-453.199 -1586.046)" fill="#905800"/>
          </g>
        </g>
        <g id="Group_385" data-name="Group 385">
          <g id="Group_384" data-name="Group 384">
            <g id="Group_383" data-name="Group 383" clip-path="url(#clip-path-85)">
              <path id="Path_378" data-name="Path 378" d="M453.19,1586.02h3.957v1.182H453.19Z" transform="translate(-453.19 -1586.02)" fill="url(#linear-gradient-44)"/>
            </g>
          </g>
        </g>
      </g>
      <g id="Group_389" data-name="Group 389" transform="translate(5.118 11.279)">
        <g id="Group_388" data-name="Group 388">
          <g id="Group_387" data-name="Group 387" clip-path="url(#clip-path-87)">
            <path id="Path_380" data-name="Path 380" d="M366.828,801.855a2.053,2.053,0,0,0,1.181-.3l-.18-.1a2.027,2.027,0,0,1-1,.218v.18m0,0v-.18a.957.957,0,0,1-.919-.527,2.352,2.352,0,0,1-.207-1.067h-.181C365.523,800.791,365.692,801.847,366.828,801.855Zm-1.294-9.787.183-.184v.184q-.018,4.007-.013,8.014h-.181c0-2.674,0-5.351.012-8.014Z" transform="translate(-365.52 -791.884)" fill="url(#linear-gradient-45)"/>
          </g>
        </g>
      </g>
      <g id="Group_395" data-name="Group 395" transform="translate(2.497 19.354)">
        <g id="Group_391" data-name="Group 391">
          <g id="Group_390" data-name="Group 390" clip-path="url(#clip-path-88)">
            <path id="Path_382" data-name="Path 382" d="M178.507,1368.587h-.182a4.535,4.535,0,0,0,.957,3.121,3.787,3.787,0,0,0,2.892,1.092l0-.182c-2.459-.026-3.664-1.385-3.669-4.03" transform="translate(-178.325 -1368.587)" fill="#db9a28"/>
          </g>
        </g>
        <g id="Group_394" data-name="Group 394">
          <g id="Group_393" data-name="Group 393">
            <g id="Group_392" data-name="Group 392" clip-path="url(#clip-path-88)">
              <path id="Path_384" data-name="Path 384" d="M178.325,1368.587h3.851v4.212h-3.851Z" transform="translate(-178.325 -1368.587)" fill="url(#linear-gradient-46)"/>
            </g>
          </g>
        </g>
      </g>
      <path id="Path_386" data-name="Path 386" d="M181,792.068l.183-.184-2.817.034.182.179q1.226-.018,2.453-.03" transform="translate(-175.872 -780.605)" fill="#faefe1"/>
      <g id="Group_401" data-name="Group 401" transform="translate(2.497 11.313)">
        <g id="Group_397" data-name="Group 397">
          <g id="Group_396" data-name="Group 396" clip-path="url(#clip-path-90)">
            <path id="Path_387" data-name="Path 387" d="M178.325,794.336h.183v8.041h-.183Z" transform="translate(-178.325 -794.336)" fill="#db9a28"/>
          </g>
        </g>
        <g id="Group_400" data-name="Group 400">
          <g id="Group_399" data-name="Group 399">
            <g id="Group_398" data-name="Group 398" clip-path="url(#clip-path-90)">
              <path id="Path_389" data-name="Path 389" d="M178.325,794.336h.183v8.041h-.183Z" transform="translate(-178.325 -794.336)" fill="url(#linear-gradient-47)"/>
            </g>
          </g>
        </g>
      </g>
      <path id="Path_391" data-name="Path 391" d="M116.064,239.6a43.38,43.38,0,0,1,12.966-.367l.182-.165a44.012,44.012,0,0,0-13.184.354,25.173,25.173,0,0,0-12.8,6.487l.182.08a25.045,25.045,0,0,1,12.659-6.388" transform="translate(-101.779 -235.202)" fill="#c27913"/>
      <path id="Path_392" data-name="Path 392" d="M1044.749,262.315c.018,4.447.028,8.916.028,13.325q0,1.5,0,3a9.356,9.356,0,0,1-3.269,7.467c-1.84,1.554-7.456,4.072-9.56,4.952v.2c1.66-.692,7.711-3.35,9.677-5.011a9.521,9.521,0,0,0,3.333-7.606c0-5.5,0-11.018-.027-16.488l-.182.165" transform="translate(-1017.498 -258.288)" fill="#ffd568"/>
      <g id="Group_407" data-name="Group 407" transform="translate(1.439 10.703)">
        <g id="Group_403" data-name="Group 403">
          <g id="Group_402" data-name="Group 402" clip-path="url(#clip-path-92)">
            <path id="Path_393" data-name="Path 393" d="M106.219,767.836a9.355,9.355,0,0,1-3.267-7.467q0-4.784,0-9.567l-.182-.08q-.008,4.817,0,9.647a9.514,9.514,0,0,0,3.334,7.606c1.966,1.66,8.019,4.319,9.675,5.011v-.2c-2.106-.883-7.729-3.407-9.56-4.952" transform="translate(-102.768 -750.722)" fill="#c27913"/>
          </g>
        </g>
        <g id="Group_406" data-name="Group 406">
          <g id="Group_405" data-name="Group 405">
            <g id="Group_404" data-name="Group 404" clip-path="url(#clip-path-92)">
              <path id="Path_395" data-name="Path 395" d="M102.622,750.721h13.013v22.264H102.622Z" transform="translate(-102.624 -750.721)" fill="url(#linear-gradient-48)"/>
            </g>
          </g>
        </g>
      </g>
      <g id="Group_413" data-name="Group 413" transform="translate(2.679 11.158)">
        <g id="Group_409" data-name="Group 409">
          <g id="Group_408" data-name="Group 408" clip-path="url(#clip-path-94)">
            <path id="Path_397" data-name="Path 397" d="M212.742,792c-.017-.791-.451-1.218-1.543-1.866-2.056-1.22-2.436-2.23-2.442-3.577A3.285,3.285,0,0,1,212.1,783.3a4.183,4.183,0,0,1,2.7.844q0,1.086,0,2.174a3.261,3.261,0,0,0-2.194-1.048c-.7-.013-1.433.3-1.456,1.193-.02.916.715,1.282,1.632,1.834,2.057,1.241,2.431,2.337,2.391,3.8a3.39,3.39,0,0,1-3.567,3.383,5.389,5.389,0,0,1-2.742-.757q0-1.162.007-2.328a3.92,3.92,0,0,0,2.389,1.017A1.335,1.335,0,0,0,212.742,792m-10.208-6.532a2.249,2.249,0,0,1,.9-.181c1.472,0,2.084,1.175,2.086,4.02,0,2.774-.7,4.111-2.161,4.111a2.409,2.409,0,0,1-.823-.154c0-2.594,0-5.2,0-7.8Zm0,15.121c0-1.733,0-3.488,0-5.256a4.031,4.031,0,0,0,1.141.141c2.807,0,4.424-2.53,4.424-6.233s-1.665-5.983-4.688-5.985a6.067,6.067,0,0,0-3.408.9c-.013,5.479-.005,11.062.022,16.424q1.255.007,2.512.007Zm-7.437-7.242a2.065,2.065,0,0,0,1.181-.3q-.014-4.756.009-9.513,1.253-.011,2.506-.016-.019,5.487,0,10.975a6.55,6.55,0,0,1-3.772.986c-2.459-.025-3.665-1.386-3.669-4.031v-7.861q1.215-.017,2.453-.03c-.013,2.661-.017,5.34-.013,8.013,0,.71.17,1.767,1.306,1.774Z" transform="translate(-191.355 -783.253)" fill="#da9017"/>
          </g>
        </g>
        <g id="Group_412" data-name="Group 412">
          <g id="Group_411" data-name="Group 411">
            <g id="Group_410" data-name="Group 410" clip-path="url(#clip-path-94)">
              <path id="Path_399" data-name="Path 399" d="M187.071,782.7h23.963v17.435H187.071Z" transform="translate(-187.131 -782.712)" fill="url(#radial-gradient)"/>
            </g>
          </g>
        </g>
      </g>
      <g id="Group_414" data-name="Group 414" transform="translate(21.425 32.248)">
        <path id="Path_401" data-name="Path 401" d="M1533.158,2290.922a1.5,1.5,0,1,1-1.5-1.464,1.471,1.471,0,0,1,1.5,1.464Zm-2.633,0a1.134,1.134,0,0,0,1.143,1.169,1.121,1.121,0,0,0,1.116-1.16,1.13,1.13,0,1,0-2.258-.009Zm.9.768h-.339v-1.464a2.96,2.96,0,0,1,.562-.045.912.912,0,0,1,.509.107.406.406,0,0,1,.143.321.375.375,0,0,1-.3.339v.018a.433.433,0,0,1,.268.357,1.115,1.115,0,0,0,.107.366h-.366a1.262,1.262,0,0,1-.116-.357c-.027-.161-.116-.232-.3-.232h-.161Zm.009-.83h.161c.187,0,.339-.062.339-.214,0-.134-.1-.223-.312-.223a.791.791,0,0,0-.187.018v.419Z" transform="translate(-1530.15 -2289.458)" fill="#905800"/>
      </g>
    </g>
    <rect id="_55x35" data-name="55x35" width="55" height="35" transform="translate(-11.015 0.194)" fill="#fff" opacity="0"/>
  </g>
</svg>
