<svg xmlns="http://www.w3.org/2000/svg" width="55" height="35.406" viewBox="0 0 55 35.406">
  <g id="icon-kurier" transform="translate(8 0.203)">
    <rect id="_55x35" data-name="55x35" width="55" height="35" transform="translate(-8 0)" fill="#fff" opacity="0"/>
    <g id="Group_509" data-name="Group 509" transform="translate(2.453 0)">
      <path id="Path_1037" data-name="Path 1037" d="M16,5.922C16,3.188,17.641,1,22.016,1s6.016,2.188,6.016,4.922" transform="translate(-7.25 -0.453)" fill="none" stroke="#3a3a3c" stroke-linecap="round" stroke-linejoin="round" stroke-width="1.5"/>
      <path id="Path_1038" data-name="Path 1038" d="M28.125,15l-.351,1.052a.545.545,0,0,1-.741.327A14.422,14.422,0,0,0,21.563,15,12.592,12.592,0,0,0,16.1,16.339a.544.544,0,0,1-.76-.318L15,15" transform="translate(-6.797 -6.797)" fill="none" stroke="#3a3a3c" stroke-linecap="round" stroke-linejoin="round" stroke-width="1.5"/>
      <path id="Path_1039" data-name="Path 1039" d="M21,10.547A19.338,19.338,0,0,1,24.281,10a19.338,19.338,0,0,1,3.281.547" transform="translate(-9.516 -4.531)" fill="none" stroke="#3a3a3c" stroke-linecap="round" stroke-linejoin="round" stroke-width="1.5"/>
      <path id="Path_1040" data-name="Path 1040" d="M30,27.712c2.205-.609,3.381-2.478,3.828-4.712" transform="translate(-13.594 -10.422)" fill="none" stroke="#3a3a3c" stroke-linecap="round" stroke-linejoin="round" stroke-width="1.5"/>
      <path id="Path_1041" data-name="Path 1041" d="M17,23c.447,2.235,1.625,4.1,3.832,4.713" transform="translate(-7.703 -10.422)" fill="none" stroke="#3a3a3c" stroke-linecap="round" stroke-linejoin="round" stroke-width="1.5"/>
      <path id="Path_1042" data-name="Path 1042" d="M20.547,31A7.5,7.5,0,0,1,20,34.281" transform="translate(-9.063 -14.047)" fill="none" stroke="#3a3a3c" stroke-linecap="round" stroke-linejoin="round" stroke-width="1.5"/>
      <path id="Path_1043" data-name="Path 1043" d="M23.828,39.188A4.512,4.512,0,0,1,20,37" transform="translate(-9.063 -16.766)" fill="none" stroke="#3a3a3c" stroke-linecap="square" stroke-linejoin="round" stroke-width="1.5"/>
      <path id="Path_1044" data-name="Path 1044" d="M11.391,37l-5.18,1.09A6.563,6.563,0,0,0,1,44.512v3.972" transform="translate(-0.453 -16.766)" fill="none" stroke="#3a3a3c" stroke-linecap="square" stroke-linejoin="round" stroke-width="1.5"/>
      <rect id="Rectangle_194" data-name="Rectangle 194" width="16.406" height="15.313" rx="1" transform="translate(18.047 19.141)" fill="none" stroke="#3a3a3c" stroke-linecap="square" stroke-linejoin="round" stroke-width="1.5"/>
      <path id="Path_1045" data-name="Path 1045" d="M48.375,35v3.281H44V35" transform="translate(-19.938 -15.859)" fill="none" stroke="#3a3a3c" stroke-linecap="round" stroke-linejoin="round" stroke-width="1.5"/>
      <line id="Line_7" data-name="Line 7" x1="2.188" transform="translate(28.984 31.172)" fill="none" stroke="#3a3a3c" stroke-linecap="square" stroke-linejoin="round" stroke-width="1.5"/>
    </g>
  </g>
</svg>
