<?xml version="1.0" encoding="utf-8"?>
<!-- Generator: Adobe Illustrator 26.3.1, SVG Export Plug-In . SVG Version: 6.00 Build 0)  -->
<svg version="1.1" id="icons" xmlns="http://www.w3.org/2000/svg" xmlns:xlink="http://www.w3.org/1999/xlink" x="0px" y="0px"
	 viewBox="0 0 15.6 18" style="enable-background:new 0 0 15.6 18;" xml:space="preserve">
<style type="text/css">
	.st0{fill:#FFFFFF;}
</style>
<g id="icons_00000070095905743675580020000010099074169191193527_">
	<g>
		<path class="st0" d="M13.7,3.8c-0.1-0.1-0.2-0.1-0.4-0.2c-0.3-0.2-0.6-0.5-0.9-0.8c-0.7-0.8-0.9-1.6-1-2.1l0,0
			c-0.1-0.4,0-0.8,0-0.8H8.2v11.9c0,0.2,0,0.3,0,0.5c0,0,0,0,0,0.1l0,0l0,0c-0.1,0.9-0.6,1.6-1.3,2.1c-0.4,0.2-0.8,0.3-1.3,0.3
			c-1.4,0-2.6-1.2-2.6-2.6s1.2-2.6,2.6-2.6c0.3,0,0.5,0,0.8,0.1v-3C4.8,6.5,3.2,6.9,2,8C1.5,8.4,1,9,0.7,9.6
			C0.6,9.8,0.1,10.7,0,12.2c0,0.8,0.2,1.7,0.3,2.1l0,0c0.1,0.2,0.4,0.9,0.8,1.5C1.5,16.3,2,16.7,2.5,17l0,0l0,0c1.5,1,3.2,1,3.2,1
			C6,18,6.9,18,8,17.5C9.2,16.9,9.9,16,9.9,16c0.4-0.5,0.8-1.1,1-1.7c0.3-0.7,0.4-1.6,0.4-2V6l0.5,0.3c0,0,0.7,0.5,1.8,0.8
			c0.8,0.2,1.9,0.3,1.9,0.3V4.3C15.2,4.4,14.4,4.2,13.7,3.8z"/>
	</g>
</g>
</svg>
