<?xml version="1.0" encoding="utf-8"?>
<!-- Generator: Adobe Illustrator 26.1.0, SVG Export Plug-In . SVG Version: 6.00 Build 0)  -->
<svg version="1.1" id="icons" xmlns="http://www.w3.org/2000/svg" xmlns:xlink="http://www.w3.org/1999/xlink" x="0px" y="0px"
	 viewBox="0 0 15.6 18" style="enable-background:new 0 0 15.6 18;" xml:space="preserve">
<path d="M13.66,3.85c-0.12-0.06-0.24-0.13-0.35-0.21c-0.33-0.22-0.64-0.48-0.91-0.77c-0.68-0.78-0.93-1.56-1.03-2.12h0
	C11.29,0.3,11.33,0,11.33,0H8.24v11.95c0,0.16,0,0.32-0.01,0.48c0,0.02,0,0.04,0,0.06c0,0.01,0,0.02,0,0.03c0,0,0,0,0,0.01
	c-0.07,0.87-0.56,1.65-1.32,2.08c-0.39,0.22-0.83,0.34-1.28,0.34c-1.44,0-2.61-1.17-2.61-2.62s1.17-2.62,2.61-2.62
	c0.27,0,0.54,0.04,0.8,0.13l0-3.15c-1.59-0.21-3.2,0.26-4.42,1.29C1.48,8.43,1.03,8.98,0.69,9.6C0.56,9.82,0.06,10.73,0,12.2
	c-0.04,0.83,0.21,1.7,0.33,2.05v0.01c0.07,0.21,0.37,0.93,0.84,1.53c0.38,0.48,0.83,0.91,1.34,1.26v-0.01l0.01,0.01
	C4.02,18.07,5.68,18,5.68,18c0.29-0.01,1.25,0,2.34-0.52c1.21-0.57,1.9-1.43,1.9-1.43c0.44-0.51,0.79-1.09,1.04-1.72
	c0.28-0.74,0.37-1.62,0.37-1.97V6.02c0.04,0.02,0.54,0.35,0.54,0.35s0.72,0.46,1.84,0.76c0.81,0.21,1.89,0.26,1.89,0.26V4.32
	C15.22,4.36,14.45,4.24,13.66,3.85z"/>
</svg>
