<svg xmlns="http://www.w3.org/2000/svg" width="55" height="35" viewBox="0 0 55 35">
  <g id="Dotpay" transform="translate(-195 -1165)">
    <rect id="_55x35" data-name="55x35" width="55" height="35" transform="translate(195 1165)" fill="#fff" opacity="0"/>
    <g id="Group_477" data-name="Group 477" transform="translate(196 1175)">
      <g id="Group_475" data-name="Group 475" transform="translate(0 0)">
        <path id="Path_821" data-name="Path 821" d="M86.409,41.531H84.243a4.506,4.506,0,0,0-2.827.771,4.674,4.674,0,0,0-1.56,3.763,4.64,4.64,0,0,0,1.23,3.414c.771.734,1.615.991,3.322.991h4.075V38.227H86.409v3.3Zm0,7.305h-2c-1.634,0-2.423-.936-2.423-2.9,0-1.854.863-2.772,2.57-2.772h1.854v5.672Z" transform="translate(-79.856 -38.227)" fill="#8d060e"/>
        <path id="Path_822" data-name="Path 822" d="M214.59,41.531h-1.634v1.634h1.634v4.314a3.042,3.042,0,0,0,.679,2.4,2.722,2.722,0,0,0,2.111.587h1.762V48.836h-1.009c-1.248,0-1.468-.239-1.468-1.633V43.164h2.478V41.531h-2.478v-3.3H214.59v3.3Z" transform="translate(-195.176 -38.227)" fill="#8d060e"/>
        <path id="Path_823" data-name="Path 823" d="M263.3,62.939V74.965h2.074V71.878h1.909c1.707,0,2.5-.238,3.249-.954a4.889,4.889,0,0,0,1.267-3.469,4.674,4.674,0,0,0-1.3-3.579c-.789-.716-1.523-.936-3.249-.936Zm2.074,1.634h1.707c1.744,0,2.57.881,2.57,2.735a3.4,3.4,0,0,1-.679,2.331,2.64,2.64,0,0,1-1.983.606h-1.615V64.573Z" transform="translate(-238.796 -59.638)" fill="#161615"/>
        <path id="Path_824" data-name="Path 824" d="M332.358,66.447a5.18,5.18,0,0,0-2.111.294,2.88,2.88,0,0,0-.422,4.625c.587.44,1.083.532,2.9.532h4.809V66.52a3.628,3.628,0,0,0-.679-2.661c-.587-.7-1.266-.9-3.139-.9h-4.387v1.634h4.185c1.028,0,1.413.129,1.689.514.22.312.257.569.257,1.34Zm3.1,1.634v2.184h-2.919c-1.12,0-1.56-.293-1.56-1.064a1.011,1.011,0,0,1,.587-1.01,2.367,2.367,0,0,1,.973-.11Z" transform="translate(-295.589 -59.655)" fill="#161615"/>
        <path id="Path_825" data-name="Path 825" d="M403.817,70.264h-2.148c-1.285,0-1.652-.477-1.652-2.2v-5.1h-2.074v4.956c0,1.762.11,2.294.624,2.937a3.324,3.324,0,0,0,2.9,1.046h2.349c-.037.737-.092.939-.367,1.123-.239.2-.514.239-1.413.239h-4.093v1.634h4.148c1.634,0,2.349-.2,2.937-.789a4.338,4.338,0,0,0,.863-3.087V62.959h-2.074v7.305Z" transform="translate(-355.451 -59.655)" fill="#161615"/>
        <g id="Group_474" data-name="Group 474" transform="translate(9.171 3.364)">
          <path id="Path_826" data-name="Path 826" d="M176.267,81.936a.165.165,0,0,0-.121-.055h-1.571a.165.165,0,0,0-.121.055.224.224,0,0,0-.06.155v1.331h1.934V82.091A.224.224,0,0,0,176.267,81.936Z" transform="translate(-170.936 -79.414)" fill="none"/>
          <g id="Group_473" data-name="Group 473">
            <path id="Path_827" data-name="Path 827" d="M176.267,81.936a.165.165,0,0,0-.121-.055h-1.571a.165.165,0,0,0-.121.055.224.224,0,0,0-.06.155v1.331h1.934V82.091A.224.224,0,0,0,176.267,81.936Z" transform="translate(-170.936 -79.414)" fill="none"/>
            <g id="Group_472" data-name="Group 472">
              <path id="Path_828" data-name="Path 828" d="M176.146,81.881h-1.571a.165.165,0,0,0-.121.055.224.224,0,0,0-.06.155v1.331h1.934V82.091a.224.224,0,0,0-.06-.155A.165.165,0,0,0,176.146,81.881Z" transform="translate(-170.936 -79.414)" fill="none"/>
              <g id="Group_471" data-name="Group 471">
                <path id="Path_829" data-name="Path 829" d="M176.146,81.881h-1.571a.165.165,0,0,0-.121.055.224.224,0,0,0-.06.155v1.331h1.934V82.091a.224.224,0,0,0-.06-.155A.165.165,0,0,0,176.146,81.881Z" transform="translate(-170.936 -79.414)" fill="none"/>
                <g id="Group_470" data-name="Group 470">
                  <path id="Path_830" data-name="Path 830" d="M170.139,79.02V77.644a.884.884,0,0,0-.867-.9H167.7a.884.884,0,0,0-.867.9v1.38a.616.616,0,0,0-.374.565v1.841a.615.615,0,0,0,.614.614h2.834a.615.615,0,0,0,.614-.614V79.588A.615.615,0,0,0,170.139,79.02Zm-.686-.046H167.52V77.644a.224.224,0,0,1,.06-.155.165.165,0,0,1,.121-.055h1.571a.165.165,0,0,1,.121.055.224.224,0,0,1,.06.155Z" transform="translate(-164.062 -74.966)" fill="none"/>
                  <g id="Group_469" data-name="Group 469">
                    <path id="Path_831" data-name="Path 831" d="M170.139,79.02V77.644a.884.884,0,0,0-.867-.9H167.7a.884.884,0,0,0-.867.9v1.38a.616.616,0,0,0-.374.565v1.841a.615.615,0,0,0,.614.614h2.834a.615.615,0,0,0,.614-.614V79.588A.615.615,0,0,0,170.139,79.02Zm-.686-.046H167.52V77.644a.224.224,0,0,1,.06-.155.165.165,0,0,1,.121-.055h1.571a.165.165,0,0,1,.121.055.224.224,0,0,1,.06.155Z" transform="translate(-164.062 -74.966)" fill="none"/>
                    <g id="Group_468" data-name="Group 468">
                      <path id="Path_832" data-name="Path 832" d="M169.864,79.211V77.835a.883.883,0,0,0-.867-.9h-1.572a.884.884,0,0,0-.867.9v1.38a.616.616,0,0,0-.374.565V81.62a.615.615,0,0,0,.614.614h2.834a.615.615,0,0,0,.614-.614V79.779A.615.615,0,0,0,169.864,79.211Zm-.649-.071h-1.934V77.809a.224.224,0,0,1,.06-.155.165.165,0,0,1,.121-.055h1.572a.165.165,0,0,1,.121.055.225.225,0,0,1,.06.155Z" transform="translate(-163.823 -75.132)" fill="none"/>
                      <path id="Path_833" data-name="Path 833" d="M176.146,81.881h-1.571a.165.165,0,0,0-.121.055.224.224,0,0,0-.06.155v1.331h1.934V82.091a.224.224,0,0,0-.06-.155A.165.165,0,0,0,176.146,81.881Z" transform="translate(-170.936 -79.414)" fill="#8d060e"/>
                      <path id="Path_834" data-name="Path 834" d="M152.935,63.41a4.429,4.429,0,1,0,4.429,4.429A4.43,4.43,0,0,0,152.935,63.41Zm1.994,6.488a.615.615,0,0,1-.614.614h-2.834a.615.615,0,0,1-.614-.614V68.057a.616.616,0,0,1,.374-.565v-1.38a.884.884,0,0,1,.867-.9h1.572a.883.883,0,0,1,.867.9V67.49a.616.616,0,0,1,.382.568Z" transform="translate(-148.506 -63.41)" fill="#8d060e"/>
                    </g>
                  </g>
                </g>
              </g>
            </g>
          </g>
        </g>
      </g>
      <g id="Group_476" data-name="Group 476" transform="translate(50.426 0.021)">
        <path id="Path_835" data-name="Path 835" d="M458.636,38.382a1.257,1.257,0,1,1-1.3,1.253,1.267,1.267,0,0,1,1.291-1.253Zm-.015.252a1,1,0,0,0,.015,2,.957.957,0,0,0,.955-1,.967.967,0,0,0-.962-1Zm-.191,1.65h-.29V39.039a2.427,2.427,0,0,1,.481-.046.709.709,0,0,1,.435.1.343.343,0,0,1,.122.267.322.322,0,0,1-.26.3v.015c.122.038.191.137.229.306a.822.822,0,0,0,.092.306h-.313a1.009,1.009,0,0,1-.1-.3c-.023-.137-.1-.2-.259-.2h-.137Zm.007-.7h.138c.16,0,.29-.053.29-.183,0-.115-.084-.191-.267-.191a.7.7,0,0,0-.16.015Z" transform="translate(-457.338 -38.382)" fill="#161615"/>
      </g>
    </g>
  </g>
</svg>
