<svg xmlns="http://www.w3.org/2000/svg" width="55" height="35" viewBox="0 0 55 35">
  <g id="przelewy_24" data-name="przelewy 24" transform="translate(-632 -300.848)">
    <rect id="_55x35" data-name="55x35" width="55" height="35" transform="translate(632 300.848)" fill="#fff" opacity="0"/>
    <g id="Group_480" data-name="Group 480" transform="translate(632.729 308.744)">
      <path id="Path_836" data-name="Path 836" d="M135.695,337.509l4.487-.009-.163,1.022-3.754,3.573h3.148l-.181,1.095H134.6l.19-1.131,3.592-3.447h-2.868Z" transform="translate(-124.332 -326.957)" fill="#d13239"/>
      <path id="Path_837" data-name="Path 837" d="M27.568,313.661a1.191,1.191,0,0,0-.389-.244,3.192,3.192,0,0,0-.525-.145c-.226-.036-.443-.054-.6-.063s-.235-.009-.235-.009H22.4l-1.3,7.889h1.221l.479-2.922,2.37.009a3.646,3.646,0,0,0,1.574-.308,1.868,1.868,0,0,0,.832-1.131s.072-.289.136-.651c.063-.389.136-.859.163-1.113.018-.109.027-.181.027-.181a1.056,1.056,0,0,0,.018-.208,1.471,1.471,0,0,0-.163-.688A2.4,2.4,0,0,0,27.568,313.661Zm-.941,1.393c0,.018-.109.651-.253,1.4a.624.624,0,0,1-.525.5,3.965,3.965,0,0,1-.868.072L23,317.018l.434-2.624,1.791.009h.289a5.687,5.687,0,0,1,.66.036.727.727,0,0,1,.371.118.459.459,0,0,1,.09.262A1.234,1.234,0,0,1,26.628,315.055Z" transform="translate(-21.1 -304.856)" fill="#d13239"/>
      <path id="Path_838" data-name="Path 838" d="M250.212,313.2h1.176l-1.312,7.889H248.9Z" transform="translate(-228.292 -304.856)" fill="#d13239"/>
      <path id="Path_839" data-name="Path 839" d="M332.7,337.509l1.131-.009.4,4.008,1.728-4.008h1.393l.407,4.026,1.728-4.026h1.176l-2.488,5.69h-1.384l-.4-3.981-1.755,3.981h-1.357Z" transform="translate(-304.51 -326.957)" fill="#d13239"/>
      <g id="Group_478" data-name="Group 478" transform="translate(15.383 10.47)">
        <path id="Path_840" data-name="Path 840" d="M195.511,336.827a5.226,5.226,0,0,0-1.384-.127,4.807,4.807,0,0,0-.859.063,2.259,2.259,0,0,0-1.3.706,4.594,4.594,0,0,0-.615,1.864,8.871,8.871,0,0,0-.2,1.882,1.258,1.258,0,0,0,.76,1.113,2.849,2.849,0,0,0,.986.2,6.722,6.722,0,0,0,1.665-.09,2.02,2.02,0,0,0,1.095-.669,2.566,2.566,0,0,0,.289-.479,2.8,2.8,0,0,0,.163-.461l.072-.308H194.96s-.063.805-.724.878a5.914,5.914,0,0,1-1.14.036c-.127-.009-.832.027-.778-.561v-.036a2.684,2.684,0,0,1,.109-.841l3.827-.009.163-.95C196.624,337.958,196.488,337.143,195.511,336.827Zm-.262,2.072h-2.624l.1-.416a1.021,1.021,0,0,1,.271-.461,1.2,1.2,0,0,1,.633-.181,4.833,4.833,0,0,1,1.276.036.415.415,0,0,1,.344.253A1.834,1.834,0,0,1,195.249,338.9Z" transform="translate(-191.136 -336.7)" fill="#d13239"/>
        <path id="Path_841" data-name="Path 841" d="M204.46,382.5v.027C204.451,382.572,204.46,382.5,204.46,382.5Z" transform="translate(-203.251 -378.357)" fill="#d13239"/>
      </g>
      <g id="Group_479" data-name="Group 479" transform="translate(22.593 10.47)">
        <path id="Path_842" data-name="Path 842" d="M284.2,382.592v0Z" transform="translate(-282.991 -378.44)" fill="#d13239"/>
        <path id="Path_843" data-name="Path 843" d="M275.211,336.827a5.226,5.226,0,0,0-1.384-.127,4.808,4.808,0,0,0-.859.063,2.259,2.259,0,0,0-1.3.706,4.594,4.594,0,0,0-.615,1.864,8.869,8.869,0,0,0-.2,1.882,1.258,1.258,0,0,0,.76,1.113,2.849,2.849,0,0,0,.986.2,6.722,6.722,0,0,0,1.665-.09,2.079,2.079,0,0,0,1.095-.669,2.567,2.567,0,0,0,.29-.479,2.8,2.8,0,0,0,.163-.461l.072-.308H274.66s-.063.805-.724.878a7.422,7.422,0,0,1-1.14.045c-.127-.009-.832.027-.778-.561v-.036a2.685,2.685,0,0,1,.109-.841l3.827-.009.163-.95C276.324,337.967,276.2,337.143,275.211,336.827Zm-.262,2.072h-2.624l.1-.416a1.022,1.022,0,0,1,.271-.461,1.2,1.2,0,0,1,.633-.181,4.833,4.833,0,0,1,1.276.036.415.415,0,0,1,.344.253A1.834,1.834,0,0,1,274.949,338.9Z" transform="translate(-270.836 -336.7)" fill="#d13239"/>
      </g>
      <path id="Path_844" data-name="Path 844" d="M418.774,337.418l.751,4.162,2.126-4.162,1.194.009-3.067,5.944a6.2,6.2,0,0,1-.9,1.348,1.552,1.552,0,0,1-.832.425,2.023,2.023,0,0,1-.66,0l-.29-.054.181-1.058a1.675,1.675,0,0,0,.76-.027c.28-.109.507-.6.507-.6l.145-.244-1.113-5.763,1.194.018Z" transform="translate(-381.275 -326.866)" fill="#d13239"/>
      <path id="Path_845" data-name="Path 845" d="M476.859,314.947h1.23l.072-.479s.136-.868.425-1.031a1.465,1.465,0,0,1,.425-.136,5.988,5.988,0,0,1,1.068-.054c.516.018.706.027,1.23.081a.429.429,0,0,1,.389.561l-.1.751a1.845,1.845,0,0,1-.163.543,1.066,1.066,0,0,1-.57.371c-.407.136-1.8.489-1.8.489l-1.095.317a2.723,2.723,0,0,0-1.049.606,2.484,2.484,0,0,0-.579,1.14c-.054.244-.344,1.954-.344,1.954h5.908l.2-1.176-4.668.009.081-.479s.054-.5.253-.66a1,1,0,0,1,.47-.253c.226-.081.986-.28.986-.28l1.764-.479a2.768,2.768,0,0,0,1.339-.778,4.269,4.269,0,0,0,.525-1.529,6.771,6.771,0,0,0,.027-1.285,1.421,1.421,0,0,0-.715-.832,3.806,3.806,0,0,0-1.782-.235,6.131,6.131,0,0,0-2.126.262,1.708,1.708,0,0,0-1.049,1.068,7.131,7.131,0,0,0-.353,1.538Z" transform="translate(-434.846 -303.834)" fill="#b3b2b1"/>
      <path id="Path_846" data-name="Path 846" d="M554.01,318.258l.832-4.958h-1.466l-4.569,4.9-.208,1.239h3.99l-.289,1.746h1.23l.29-1.746h1.131l.2-1.185Zm-1.212,0h-2.578l3.139-3.347Z" transform="translate(-500.879 -304.947)" fill="#b3b2b1"/>
      <path id="Path_847" data-name="Path 847" d="M121.2,287.748h3.763s.841-.678,1.438-1.122,1.692-1.131,1.692-1.131l-2.126-1s-1.8,1.113-2.56,1.637c-.742.489-2.207,1.61-2.207,1.61Z" transform="translate(-112.144 -278.752)" fill="#b3b2b1"/>
      <path id="Path_848" data-name="Path 848" d="M192.946,246.6l-1.746-1.176a33,33,0,0,1,3.682-1.737c2.1-.832,3.221-1.185,3.221-1.185l.353,1.665s-2.017.679-3.175,1.221a21.473,21.473,0,0,0-2.334,1.212Z" transform="translate(-175.812 -240.552)" fill="#b3b2b1"/>
      <path id="Path_849" data-name="Path 849" d="M282.608,224.884l-.308-1.7s2.153-.57,4.125-.941,4.587-.543,4.587-.543l-.868,2.633a18.8,18.8,0,0,0-4.46-.018,25.037,25.037,0,0,0-3.076.57Z" transform="translate(-258.67 -221.633)" fill="#b3b2b1"/>
      <path id="Path_850" data-name="Path 850" d="M384.2,223.889l1.457-2.922a40.308,40.308,0,0,1,5.935.362,41.569,41.569,0,0,1,5.211,1.1l-6.975,3.646a17.3,17.3,0,0,0-3.655-1.665c-1.14-.335-1.972-.525-1.972-.525Z" transform="translate(-351.351 -220.963)" fill="#b3b2b1"/>
      <path id="Path_851" data-name="Path 851" d="M460.3,252.556l1.529,1.167h12.593a2.528,2.528,0,0,0-.362-.986,6.294,6.294,0,0,0-.986-1.14,10.282,10.282,0,0,0-1.158-.878,17.677,17.677,0,0,0-2.886-1.52l-8.73,3.356Z" transform="translate(-420.567 -246.645)" fill="#b3b2b1"/>
      <path id="Path_852" data-name="Path 852" d="M95.092,337.5a2.786,2.786,0,0,0-1.3.4l.063-.4H92.6l-1,5.663h1.258l.552-3.139a1.6,1.6,0,0,1,1.52-1.42h.651l.2-1.1Z" transform="translate(-85.222 -326.957)" fill="#d13239"/>
    </g>
  </g>
</svg>
