<svg xmlns="http://www.w3.org/2000/svg" xmlns:xlink="http://www.w3.org/1999/xlink" width="55" height="35" viewBox="0 0 55 35">
  <defs>
    <clipPath id="clip-path">
      <rect id="Rectangle_200" data-name="Rectangle 200" width="48.88" height="7.44" fill="none"/>
    </clipPath>
  </defs>
  <g id="e-raty_santander" data-name="e-raty santander" transform="translate(-195 -1178)">
    <rect id="_55x35" data-name="55x35" width="55" height="35" transform="translate(195 1178)" fill="#fff" opacity="0"/>
    <g id="Group_520" data-name="Group 520" transform="translate(-4 -3)">
      <g id="eraty" transform="translate(202.472 1184)">
        <path id="Path_853" data-name="Path 853" d="M691.581,221.853a1.714,1.714,0,0,0-.582-.463,1.837,1.837,0,0,0-.819-.169,1.893,1.893,0,0,0-.864.187,1.969,1.969,0,0,0-.625.49,2.232,2.232,0,0,0-.4.694,3.759,3.759,0,0,0-.194.8h3.965a2.861,2.861,0,0,0-.124-.846,2.056,2.056,0,0,0-.361-.694" transform="translate(-683.326 -213.75)" fill="#d9000d"/>
        <path id="Path_854" data-name="Path 854" d="M687.4,213.949c-.006.148-.015.282-.026.4h-6.079a2.459,2.459,0,0,0,.784,1.736,2.958,2.958,0,0,0,2.018.615,6.542,6.542,0,0,0,1.419-.143,12.807,12.807,0,0,0,1.53-.483s0,.568-.052,1.009a6.353,6.353,0,0,1-.183.934,3.341,3.341,0,0,1-.485.187,6.754,6.754,0,0,1-.7.178q-.4.08-.855.134a8.075,8.075,0,0,1-.934.053,5.607,5.607,0,0,1-2.115-.365,3.935,3.935,0,0,1-1.48-1.015,4.171,4.171,0,0,1-.864-1.531,6.315,6.315,0,0,1-.282-1.931,5.907,5.907,0,0,1,.361-2.154,4.525,4.525,0,0,1,.961-1.54,3.971,3.971,0,0,1,1.375-.926,4.219,4.219,0,0,1,1.586-.312,3.778,3.778,0,0,1,2.969,1.193,5.2,5.2,0,0,1,1.066,3.561q0,.178-.009.4m-10.862,9.35h13.425V203.122H676.535Z" transform="translate(-676.535 -203.122)" fill="#d9000d"/>
        <path id="Path_855" data-name="Path 855" d="M719.727,219.087A6.72,6.72,0,0,0,719,218.9a5.355,5.355,0,0,0-1.083-.1,4.275,4.275,0,0,0-.749.071,4.59,4.59,0,0,0-.556.125v7.46h-2.132v-8.867a11.691,11.691,0,0,1,1.542-.436,9.534,9.534,0,0,1,2.053-.2c.141,0,.305.009.494.027s.376.042.563.071.37.066.546.107.318.08.423.116a5.65,5.65,0,0,1-.126,1.025,4.832,4.832,0,0,1-.244.79" transform="translate(-698.814 -211.242)" fill="#d9000d"/>
        <path id="Path_856" data-name="Path 856" d="M755.4,210.966l2.132-.356v2.813h3.2s-.066.587-.122.942a6.45,6.45,0,0,1-.225.856h-2.849v3.792a2.779,2.779,0,0,0,.353,1.6,1.388,1.388,0,0,0,1.2.481,3.855,3.855,0,0,0,1.031-.125c.3-.083,1.077-.344,1.253-.415a8.669,8.669,0,0,1-.047.918,5.263,5.263,0,0,1-.187.975,6.918,6.918,0,0,1-.923.329,5.222,5.222,0,0,1-1.41.169,4.421,4.421,0,0,1-1.647-.267,2.425,2.425,0,0,1-1.049-.774,3.09,3.09,0,0,1-.547-1.228,7.723,7.723,0,0,1-.159-1.647Z" transform="translate(-722.843 -207.519)" fill="#d9000d"/>
        <path id="Path_857" data-name="Path 857" d="M779.2,217.425q-.4,1.674-.9,3.463t-1.052,3.374q-.336-.765-.673-1.656t-.637-1.79q-.3-.9-.558-1.771t-.433-1.62h-2.273a47.145,47.145,0,0,0,1.654,4.914q.93,2.315,1.938,4.273a3.281,3.281,0,0,1-.823,1.237,1.94,1.94,0,0,1-1.3.4A3.441,3.441,0,0,1,772.9,228c-.014.125-.069.6-.118.911a6.329,6.329,0,0,1-.22.839,3.543,3.543,0,0,0,.682.208,4.854,4.854,0,0,0,2.285-.062,2.957,2.957,0,0,0,1.023-.543,4.059,4.059,0,0,0,.829-.944,9.682,9.682,0,0,0,.723-1.371,68.317,68.317,0,0,0,3.307-9.614Z" transform="translate(-732.919 -211.521)" fill="#d9000d"/>
        <path id="Path_858" data-name="Path 858" d="M736.476,225.3a3.027,3.027,0,0,1-1.88.632c-1.722,0-2.442-1.265-2.442-3.057,0-1.967.931-3.2,2.934-3.2a7.983,7.983,0,0,1,1.388.106Zm-1.388-7.273c-3.25,0-4.9,1.757-4.9,4.849,0,2.951,1.546,4.638,3.865,4.638a2.7,2.7,0,0,0,2.477-1.265l.105,1.054h1.775v-8.784a9.862,9.862,0,0,0-3.321-.492" transform="translate(-708.039 -211.877)" fill="#d9000d"/>
      </g>
      <g id="Group_519" data-name="Group 519" transform="translate(202 1206.56)">
        <g id="Group_518" data-name="Group 518" transform="translate(0 0)" clip-path="url(#clip-path)">
          <path id="Path_1075" data-name="Path 1075" d="M0,4.973l1.412-.137A1.725,1.725,0,0,0,1.93,5.88a1.561,1.561,0,0,0,1.052.333,1.617,1.617,0,0,0,1.056-.3.883.883,0,0,0,.356-.694.657.657,0,0,0-.15-.434,1.2,1.2,0,0,0-.522-.311q-.255-.088-1.162-.314A3.936,3.936,0,0,1,.922,3.453,1.87,1.87,0,0,1,.26,2.005,1.846,1.846,0,0,1,.572.978a1.953,1.953,0,0,1,.9-.729A3.6,3.6,0,0,1,2.883,0,3.035,3.035,0,0,1,4.922.593,2.091,2.091,0,0,1,5.64,2.177l-1.451.064a1.231,1.231,0,0,0-.4-.8A1.464,1.464,0,0,0,2.869,1.2a1.66,1.66,0,0,0-.991.26.524.524,0,0,0-.23.446.551.551,0,0,0,.216.436A3.814,3.814,0,0,0,3.2,2.825a7.017,7.017,0,0,1,1.567.517,2.021,2.021,0,0,1,.8.731,2.14,2.14,0,0,1,.286,1.145A2.115,2.115,0,0,1,5.5,6.375a2.059,2.059,0,0,1-.971.8,4.072,4.072,0,0,1-1.564.262,3.114,3.114,0,0,1-2.094-.63A2.74,2.74,0,0,1,0,4.973" transform="translate(0 0)"/>
          <path id="Path_1076" data-name="Path 1076" d="M9.391,4.08,8.14,3.854a1.947,1.947,0,0,1,.726-1.118,2.655,2.655,0,0,1,1.53-.363,3.3,3.3,0,0,1,1.373.218,1.366,1.366,0,0,1,.634.554,2.832,2.832,0,0,1,.184,1.233l-.014,1.609A5.561,5.561,0,0,0,12.64,7a2.911,2.911,0,0,0,.248.7H11.524q-.054-.137-.133-.407c-.023-.082-.039-.136-.049-.162a2.494,2.494,0,0,1-.755.515,2.164,2.164,0,0,1-.859.172A1.773,1.773,0,0,1,8.462,7.38,1.447,1.447,0,0,1,8,6.277a1.478,1.478,0,0,1,.211-.787A1.371,1.371,0,0,1,8.8,4.96a4.585,4.585,0,0,1,1.1-.321A7.473,7.473,0,0,0,11.235,4.3V4.163a.714.714,0,0,0-.2-.567,1.177,1.177,0,0,0-.741-.169.982.982,0,0,0-.574.145,1,1,0,0,0-.333.507M11.235,5.2q-.265.088-.839.211a2.52,2.52,0,0,0-.75.24.575.575,0,0,0-.27.485.676.676,0,0,0,.216.5.754.754,0,0,0,.549.211,1.2,1.2,0,0,0,.711-.245.869.869,0,0,0,.329-.456,2.727,2.727,0,0,0,.054-.672Z" transform="translate(-1.304 -0.387)"/>
          <path id="Path_1077" data-name="Path 1077" d="M19.841,7.7H18.464V5.04a4.106,4.106,0,0,0-.089-1.091.761.761,0,0,0-.287-.385.815.815,0,0,0-.478-.138,1.109,1.109,0,0,0-.643.2.988.988,0,0,0-.389.52,4.492,4.492,0,0,0-.105,1.2V7.7H15.094V2.49h1.28v.765a2.086,2.086,0,0,1,1.717-.882,2.064,2.064,0,0,1,.834.164,1.4,1.4,0,0,1,.572.419,1.518,1.518,0,0,1,.27.578,4.281,4.281,0,0,1,.076.927Z" transform="translate(-2.46 -0.387)"/>
          <path id="Path_1078" data-name="Path 1078" d="M24.713,2.156v1.1h-.942v2.1A5.309,5.309,0,0,0,23.8,6.1a.307.307,0,0,0,.123.174.387.387,0,0,0,.233.069,1.794,1.794,0,0,0,.554-.132l.118,1.069a2.743,2.743,0,0,1-1.089.206,1.739,1.739,0,0,1-.672-.125.983.983,0,0,1-.439-.324,1.281,1.281,0,0,1-.194-.537,6.747,6.747,0,0,1-.044-.972V3.254h-.633v-1.1h.633V1.121l1.383-.8V2.156Z" transform="translate(-3.546 -0.051)"/>
          <path id="Path_1079" data-name="Path 1079" d="M27.391,4.08l-1.25-.225a1.947,1.947,0,0,1,.726-1.118,2.655,2.655,0,0,1,1.53-.363,3.3,3.3,0,0,1,1.374.218,1.366,1.366,0,0,1,.634.554,2.832,2.832,0,0,1,.184,1.233l-.014,1.609A5.561,5.561,0,0,0,30.64,7a2.911,2.911,0,0,0,.248.7H29.524q-.054-.137-.133-.407c-.023-.082-.039-.136-.049-.162a2.494,2.494,0,0,1-.755.515,2.164,2.164,0,0,1-.859.172,1.773,1.773,0,0,1-1.267-.437A1.447,1.447,0,0,1,26,6.277a1.478,1.478,0,0,1,.211-.787,1.371,1.371,0,0,1,.591-.53,4.585,4.585,0,0,1,1.1-.321A7.473,7.473,0,0,0,29.235,4.3V4.163a.714.714,0,0,0-.2-.567,1.177,1.177,0,0,0-.741-.169.982.982,0,0,0-.574.145,1,1,0,0,0-.333.507M29.235,5.2q-.265.088-.839.211a2.52,2.52,0,0,0-.75.24.575.575,0,0,0-.27.485.676.676,0,0,0,.216.5.754.754,0,0,0,.549.211,1.2,1.2,0,0,0,.711-.245.869.869,0,0,0,.329-.456,2.727,2.727,0,0,0,.054-.672Z" transform="translate(-4.238 -0.387)"/>
          <path id="Path_1080" data-name="Path 1080" d="M37.841,7.7H36.464V5.04a4.106,4.106,0,0,0-.089-1.091.761.761,0,0,0-.287-.385.815.815,0,0,0-.478-.138,1.109,1.109,0,0,0-.643.2.988.988,0,0,0-.389.52,4.493,4.493,0,0,0-.105,1.2V7.7H33.094V2.49h1.28v.765a2.086,2.086,0,0,1,1.717-.882,2.064,2.064,0,0,1,.834.164,1.4,1.4,0,0,1,.572.419,1.518,1.518,0,0,1,.27.578,4.281,4.281,0,0,1,.076.927Z" transform="translate(-5.395 -0.387)"/>
          <path id="Path_1081" data-name="Path 1081" d="M45.152,7.336H43.872V6.571a2.063,2.063,0,0,1-.752.665,1.933,1.933,0,0,1-.876.218,1.982,1.982,0,0,1-1.538-.724,2.94,2.94,0,0,1-.64-2.018A2.9,2.9,0,0,1,40.69,2.7a2.029,2.029,0,0,1,1.574-.689,1.95,1.95,0,0,1,1.511.726V.146h1.379ZM41.474,4.619a2.388,2.388,0,0,0,.23,1.206,1.042,1.042,0,0,0,.932.54,1.013,1.013,0,0,0,.809-.4,1.868,1.868,0,0,0,.334-1.209,2.043,2.043,0,0,0-.324-1.292,1.064,1.064,0,0,0-1.65-.005,1.762,1.762,0,0,0-.331,1.165" transform="translate(-6.531 -0.024)"/>
          <path id="Path_1082" data-name="Path 1082" d="M50.7,6.042l1.374.23a2.25,2.25,0,0,1-.836,1.15,2.454,2.454,0,0,1-1.43.4A2.332,2.332,0,0,1,47.8,6.93a2.986,2.986,0,0,1-.515-1.8,2.877,2.877,0,0,1,.677-2.028,2.229,2.229,0,0,1,1.712-.733,2.312,2.312,0,0,1,1.834.768,3.4,3.4,0,0,1,.643,2.352H48.7a1.389,1.389,0,0,0,.333.953,1.043,1.043,0,0,0,.794.341.848.848,0,0,0,.545-.177,1.09,1.09,0,0,0,.333-.569m.079-1.393a1.329,1.329,0,0,0-.309-.91.994.994,0,0,0-1.461.018,1.267,1.267,0,0,0-.29.892Z" transform="translate(-7.708 -0.387)"/>
          <path id="Path_1083" data-name="Path 1083" d="M55.748,7.7H54.37V2.49h1.28v.741a2.23,2.23,0,0,1,.591-.691,1.085,1.085,0,0,1,.6-.167,1.75,1.75,0,0,1,.907.259l-.427,1.2a1.207,1.207,0,0,0-.647-.226.764.764,0,0,0-.49.16,1.079,1.079,0,0,0-.316.576,8.172,8.172,0,0,0-.116,1.746Z" transform="translate(-8.863 -0.387)"/>
        </g>
      </g>
    </g>
  </g>
</svg>
