<svg xmlns="http://www.w3.org/2000/svg" width="55" height="35" viewBox="0 0 55 35">
  <g id="paynow" transform="translate(-2.999 12.735)">
    <rect id="_55x35" data-name="55x35" width="55" height="35" transform="translate(2.999 -12.735)" fill="#fff" opacity="0"/>
    <g id="Group_504" data-name="Group 504" transform="translate(0 -0.472)">
      <path id="Path_873" data-name="Path 873" d="M3,90.553v-2.2H17.5v2.2Z" transform="translate(0 -79.276)" fill="#e90a0a"/>
      <path id="Path_874" data-name="Path 874" d="M126.107,90.553v-2.2h1.4v2.2Z" transform="translate(-108.604 -79.276)"/>
      <path id="Path_875" data-name="Path 875" d="M138,90.553v-2.2h14.845v2.2Z" transform="translate(-119.096 -79.276)" fill="#ff8600"/>
      <path id="Path_876" data-name="Path 876" d="M264,90.553v-2.2h9.543v2.2Z" transform="translate(-230.251 -79.276)" fill="#ae0000"/>
      <path id="Path_877" data-name="Path 877" d="M345,90.553v-2.2h1.629v2.2Z" transform="translate(-301.708 -79.276)" fill="#0065b1"/>
      <path id="Path_878" data-name="Path 878" d="M353.524,90.553v-2.2h13.7v2.2Z" transform="translate(-309.228 -79.276)" fill="#008f20"/>
      <path id="Path_879" data-name="Path 879" d="M369.1.827c1.818-.08,1.809-.077,2.37,1.586.33.979.691,1.947,1.1,3.081.369-1,.685-1.863,1-2.722a6.227,6.227,0,0,0,.416-1.157c.112-.738.537-.826,1.184-.834a.875.875,0,0,1,1.014.742c.392,1.263.869,2.5,1.367,3.9.134-.283.213-.421.267-.569.428-1.172.872-2.34,1.264-3.524.134-.4.31-.582.743-.536a11.441,11.441,0,0,0,1.147.008c-.117.333-.219.629-.326.924-.668,1.853-1.33,3.708-2.022,5.552a.669.669,0,0,1-.486.343c-1.464.086-1.468.076-1.991-1.308-.344-.911-.677-1.826-1.016-2.739-.006-.015-.031-.023-.111-.078-.171.433-.34.851-.5,1.272-.317.836-.612,1.681-.957,2.506a.684.684,0,0,1-.487.348c-1.5.089-1.5.076-2.007-1.358C370.424,4.469,369.769,2.675,369.1.827Z" transform="translate(-322.97 -2.018)"/>
      <path id="Path_880" data-name="Path 880" d="M162.049,1.2h1.885a4.109,4.109,0,0,1,.044.43c0,1.787.027,3.574-.013,5.359a5.544,5.544,0,0,1-.317,1.717,2.927,2.927,0,0,1-2.7,1.862,5.971,5.971,0,0,1-3.627-.694,2.172,2.172,0,0,1-.294-.246l.652-1.166a17.163,17.163,0,0,0,2.557.562c1.2.08,1.839-.729,1.762-2.085a3.422,3.422,0,0,1-2.34.724A2.5,2.5,0,0,1,157.143,5.3c-.073-1.345-.016-2.7-.016-4.082h1.894c0,.8,0,1.576,0,2.355,0,.334-.005.668.011,1A1.341,1.341,0,0,0,160.165,6,1.466,1.466,0,0,0,161.9,4.948a3.837,3.837,0,0,0,.141-1.04C162.062,3.026,162.049,2.143,162.049,1.2Z" transform="translate(-135.883 -2.388)"/>
      <path id="Path_881" data-name="Path 881" d="M5.63.662c.036.239.07.47.109.7a.95.95,0,0,0,.1.183C6.684.434,7.889.476,9.035.667a3.16,3.16,0,0,1,1.627.949,3.75,3.75,0,0,1,.112,4.718c-1.02,1.326-2.658,1.519-4.739.526V9.886H4.128V2.167L3.347,2.1V.662Zm.387,3.355a1.775,1.775,0,1,0,3.54.072A1.723,1.723,0,0,0,7.794,2.141,1.718,1.718,0,0,0,6.016,4.017Z" transform="translate(-0.307 -1.825)"/>
      <path id="Path_882" data-name="Path 882" d="M84.822,1.411,84.866.8h1.865V7.572H84.981l-.047-.719a3.227,3.227,0,0,1-3.189.73A3.082,3.082,0,0,1,80,6.371a3.983,3.983,0,0,1,.239-4.688A3.693,3.693,0,0,1,84.822,1.411Zm.038,2.772A1.691,1.691,0,0,0,83.1,2.3a1.725,1.725,0,0,0-1.784,1.878,1.78,1.78,0,0,0,1.811,1.935A1.744,1.744,0,0,0,84.86,4.183Z" transform="translate(-67.357 -1.987)"/>
      <path id="Path_883" data-name="Path 883" d="M227.139,2.16l-.78-.052V.647h2.272l.108.975a4.055,4.055,0,0,0,.344-.3c.8-.9,2.665-.871,3.43-.556a2.626,2.626,0,0,1,1.576,2.648c.022,1.314,0,2.628,0,3.99H232.1V4.438c0-.177,0-.353,0-.53-.016-1.159-.425-1.693-1.31-1.711a1.627,1.627,0,0,0-1.752,1.768c-.016,1.136,0,2.271,0,3.447h-1.894Z" transform="translate(-197.045 -1.83)"/>
      <path id="Path_884" data-name="Path 884" d="M305.811.865a3.35,3.35,0,0,1,3.6,2.465,3.432,3.432,0,0,1-2.368,4.279,3.865,3.865,0,0,1-4.529-1.514,3.369,3.369,0,0,1-.05-3.519A3.168,3.168,0,0,1,305.458.864C305.576.866,305.693.865,305.811.865Zm1.728,3.427A1.7,1.7,0,0,0,305.793,2.4,1.727,1.727,0,0,0,304,4.322a1.763,1.763,0,0,0,1.793,1.892A1.741,1.741,0,0,0,307.539,4.291Z" transform="translate(-263.77 -2.081)"/>
    </g>
  </g>
</svg>
