<svg xmlns="http://www.w3.org/2000/svg" width="55" height="35" viewBox="0 0 55 35">
  <g id="Group_506" data-name="Group 506" transform="translate(1 11)">
    <rect id="_55x35" data-name="55x35" width="55" height="35" transform="translate(-1 -11)" fill="#fff" opacity="0"/>
    <g id="Group_505" data-name="Group 505" transform="translate(-1 0)">
      <path id="Path_890" data-name="Path 890" d="M.342,24.849a1.2,1.2,0,0,1,.88.266,1.459,1.459,0,0,1,.29,1.07v6.749c0,.934-.2,1.35-1.353,1.35H0V34.7H5.2v-.412l-.157,0C3.9,34.272,3.7,33.858,3.7,32.935v-6.75a1.451,1.451,0,0,1,.289-1.067,1.221,1.221,0,0,1,.9-.27H5.2v-.42H0v.42H.342Z" transform="translate(0 -20.984)" fill="#091c5a" fill-rule="evenodd"/>
      <path id="Path_891" data-name="Path 891" d="M59.617,31.247a5.8,5.8,0,0,1-.1-.657V27.507c-.02-1.8.225-2.692-1.348-2.686v-.4h3.619v.4c-1.62-.006-1.416.888-1.426,2.686v7.2l-.515-.005-7.816-8.171a5.974,5.974,0,0,1,.1.657v5.048c-.044,1.842.184,2.064,1.371,2.042V34.7H49.727v-.421c1.189,0,1.423-.157,1.422-2.193V27.23l-.01-.79c.044-1.022-.334-1.615-1.487-1.605v-.4h3.474Z" transform="translate(-42.65 -20.974)" fill="#091c5a" fill-rule="evenodd"/>
      <path id="Path_892" data-name="Path 892" d="M153.131,23.026h-.4l-.019.137c-.027.2-.107.545-.34.545a1.2,1.2,0,0,1-.417-.116,7.348,7.348,0,0,0-2.736-.565,6.11,6.11,0,0,0-4.382,1.729,5.467,5.467,0,0,0-1.571,3.926A4.61,4.61,0,0,0,145,32.312,6.223,6.223,0,0,0,149.4,33.74a7.1,7.1,0,0,0,3.894-.977l.244-.132V29.938c0-1.148.141-1.327,1.076-1.364l.152-.006v-.4h-4.568v.4l.152.006c1.041.04,1.238.227,1.238,1.176v2.5a3.444,3.444,0,0,1-2.042.7,3.756,3.756,0,0,1-2.7-1.119A4.759,4.759,0,0,1,145.6,28.39a4.95,4.95,0,0,1,1.212-3.569,3.46,3.46,0,0,1,2.5-1.009,4.476,4.476,0,0,1,2.6.932A3.053,3.053,0,0,1,153,26.406l.034.113h.39Z" transform="translate(-123.062 -19.779)" fill="#091c5a" fill-rule="evenodd"/>
      <path id="Path_893" data-name="Path 893" d="M255.9,13.828a1.257,1.257,0,0,0,.726-.218,3.335,3.335,0,0,0,2.4-.552,5.016,5.016,0,0,0,.935-.982,3.533,3.533,0,0,0,.524-.975,4.558,4.558,0,0,0,.207-.686A6.522,6.522,0,0,0,260.45,7a6.045,6.045,0,0,0-.225-.568A5.918,5.918,0,0,0,258.209,3.9a4.046,4.046,0,0,1-1.327-1.38c-.164-.148-.321-.343-.534-.378a.816.816,0,0,1,.138.3l-.012.016a.781.781,0,0,1-.556-.256l.17-.154a.911.911,0,0,0-.209-.061,4.749,4.749,0,0,0-1.757.369l-.009.032c.353.157.427.546.633.809.051-.061.138-.017.209-.022.1.006.2.08.3.054A.938.938,0,0,0,255.192,3a.431.431,0,0,1,.2,0c.186.109.484-.019.6.231a3.491,3.491,0,0,0-.61.106c.013.08.093.144.087.225a2.014,2.014,0,0,0-.54-.138l-.01.028a1.858,1.858,0,0,0,.909.549c.485.112.912-.119,1.381-.038a5.375,5.375,0,0,1,2.561,2.873c.021.055.041.11.06.167a5.552,5.552,0,0,1,.067,3.414,4.185,4.185,0,0,1-.738,1.248,2.562,2.562,0,0,1-.421.414,1.892,1.892,0,0,1-1.69.373c-.038-.026-.116-.033-.1-.1.021-.09.041-.18.059-.273a6.759,6.759,0,0,0,.121-1.619l0-.07a6.189,6.189,0,0,0-.486-2.2,7.649,7.649,0,0,0-.692-1.213,2.873,2.873,0,0,0-1.287-1.058.964.964,0,0,0-.98.169.66.66,0,0,0-.225.591,2.022,2.022,0,0,1-.925.3,2.514,2.514,0,0,1-.254.037,1.42,1.42,0,0,1-.24-.009,2.375,2.375,0,0,1-1.131-.52c-.006-.167-.016-.324-.023-.5a.6.6,0,0,1-.34-.478l.016-.016a1.358,1.358,0,0,1,.286.137,2.122,2.122,0,0,0-.215-.716c-.116-.048-.232-.087-.34-.145a.547.547,0,0,1-.225-.372c.112.109.308.071.395.186a6.543,6.543,0,0,0-.4-1.364c-.125-.3-.453-.44-.678-.661-.087-.106-.122-.254-.279-.27-.129-.032-.138-.176-.161-.27.08.01.147.064.214.077A2.42,2.42,0,0,0,248.3.732l-.086.055a5.462,5.462,0,0,1-.6.048.828.828,0,0,1,.363-.241.862.862,0,0,0-.434-.16.9.9,0,0,1-.42.183L247.108.6c0-.115-.029-.256.145-.286a1.007,1.007,0,0,0-.614,0c-.048.125-.186.238-.176.386a2.623,2.623,0,0,1-.273.314,2.961,2.961,0,0,1,.147-.683c-.144.055-.291.132-.433.2a5.968,5.968,0,0,0-.712-.363c-.022-.01-.071-.019-.061.023.209.15.128.433.15.648l-.132-.109c-.064-.164-.249-.282-.281-.462a2.445,2.445,0,0,0-.561.186l-.028.016a.452.452,0,0,1,.353.238,4.153,4.153,0,0,1-.655-.1c-.022-.022-.042-.048-.077-.045a1.218,1.218,0,0,0-.308.2,2.156,2.156,0,0,0-.553.748.483.483,0,0,1,.222.054c-.122.074-.228.2-.347.269a2.947,2.947,0,0,0-.045.539,2.379,2.379,0,0,0-.279.424,6.282,6.282,0,0,0-.222,2.092c-.065.061-.148.1-.209.148l.006.654h.016c.029-.138.193-.214.292-.308h.032c-.016.148-.035.3-.038.446l-.186.154c-.187.164-.029.411-.045.616.013.054.022.134.061.148a.878.878,0,0,1,.138-.209c.08-.019.151-.084.225-.093a3.48,3.48,0,0,1-.161.471.543.543,0,0,0-.1.08.233.233,0,0,0-.066.119,14.621,14.621,0,0,0,.632,2.227c-.176.3-.276.65-.423.958-.021.043-.04.087-.058.132-.148.373-.192.79-.376,1.149a1.354,1.354,0,0,0-.237-.125.968.968,0,0,0-1,.225.858.858,0,0,0-.633.116.839.839,0,0,0-.281.343.7.7,0,0,0-.05.305.738.738,0,0,0-.269.407,1.267,1.267,0,0,0,.254.974H255.9Z" transform="translate(-205.827 -0.14)" fill="#fff" fill-rule="evenodd"/>
      <path id="Path_894" data-name="Path 894" d="M339.806,44.309c0,.083-.064.177-.01.247.077-.087.206-.084.309-.122a2.529,2.529,0,0,1,.825.129c-.067-.106-.112-.224-.186-.321-.148-.038-.373.064-.4-.154-.09-.077-.232-.022-.324-.016A.727.727,0,0,0,339.806,44.309Z" transform="translate(-291.857 -37.836)" fill="#fff" fill-rule="evenodd"/>
      <path id="Path_895" data-name="Path 895" d="M270.361,26.238l0,0a.007.007,0,0,0,0,0Z" transform="translate(-232.229 -22.535)" fill="#fff" fill-rule="evenodd"/>
      <path id="Path_896" data-name="Path 896" d="M277.7,41.417l.193-.186a.043.043,0,0,1,.038.017l-.016.356a.5.5,0,0,0,.331.122c.01-.1.084-.164.126-.247.035-.067.013-.167.083-.215l.022.023a1.055,1.055,0,0,0,.071.317c.007.051.016.116.022.16a.8.8,0,0,0,.379-.083,1.46,1.46,0,0,1,.054-.334c.029-.039-.035-.109.045-.106.045.1.125.2.17.3a1.256,1.256,0,0,0,.308-.693c-.054-.074-.138-.074-.2-.122a2.418,2.418,0,0,0-1.773.061.824.824,0,0,0,.149.632" transform="translate(-238.397 -34.862)" fill="#fff" fill-rule="evenodd"/>
      <path id="Path_897" data-name="Path 897" d="M242.424,86.772a4.96,4.96,0,0,0,.016.723.371.371,0,0,0,.237.18l.017-.164c.038-.228-.084-.47.045-.663a1.589,1.589,0,0,1,.257.115.562.562,0,0,0-.219-.587l-.353.4" transform="translate(-208.229 -74.196)" fill="#fff" fill-rule="evenodd"/>
      <path id="Path_898" data-name="Path 898" d="M247.21,83.814a1.884,1.884,0,0,0-.067,1.233,1.4,1.4,0,0,0,.253-.192,1.336,1.336,0,0,1,.122-.875.569.569,0,0,1,.324.347.594.594,0,0,0,.1-.5c.006-.141-.155-.108-.232-.167.026-.119.022-.256.148-.323l-.385.038a1.82,1.82,0,0,0-.263.44" transform="translate(-212.222 -71.583)" fill="#fff" fill-rule="evenodd"/>
      <path id="Path_899" data-name="Path 899" d="M253.723,85.485c.016.029,0,.08.032.087.048-.269.267-.444.386-.681.057-.08.054-.193.147-.254.126,0,.216.09.338.1.038.029-.02.054-.023.086a3.181,3.181,0,0,0-.093.624h.022a3.249,3.249,0,0,0,.411-.579l.022-.182c.029-.218-.209-.359-.363-.449l.138-.177-.192-.068a.877.877,0,0,0-.585.292A2.612,2.612,0,0,0,253.723,85.485Z" transform="translate(-217.942 -72.147)" fill="#fff" fill-rule="evenodd"/>
      <path id="Path_900" data-name="Path 900" d="M259.852,78.966c.074.023.141-.038.215-.006a1.941,1.941,0,0,1,.826.468l.264.67.132-.413-.087-.225c-.074-.16-.276-.147-.415-.154-.057-.064,0-.138.023-.2.067-.228-.213-.215-.325-.308.007-.138-.161-.09-.254-.1l-.032-.038a.066.066,0,0,0-.093-.006c-.007-.009-.019-.016-.012-.032l-.071.017A.454.454,0,0,0,259.852,78.966Z" transform="translate(-223.206 -67.532)" fill="#fff" fill-rule="evenodd"/>
      <path id="Path_901" data-name="Path 901" d="M261.171,73.855a.2.2,0,0,0,.067.109c.145-.038.282-.137.45-.077a2.55,2.55,0,0,0,.7.491l.093-.016c.058.02.122.023.161.087.036.087-.054.138-.083.208.145.106.087.3.177.424l.231-.308c-.054-.135,0-.366-.209-.379a.2.2,0,0,1-.116-.186c-.138-.125-.308-.179-.447-.308-.112-.09-.179-.228-.324-.26a1.2,1.2,0,0,0-.324-.109c-.216-.032-.235.224-.377.324" transform="translate(-224.339 -63.158)" fill="#fff" fill-rule="evenodd"/>
      <path id="Path_902" data-name="Path 902" d="M263.356,69.388l.039.061c.16-.01.305-.08.463-.077.106.064.244.061.353.116a1.244,1.244,0,0,0,.308.334c.261.038.405.317.495.522v-.1a.684.684,0,0,0-.055-.423c-.064-.064-.157-.107-.224-.164a.131.131,0,0,1,.01-.1,2.1,2.1,0,0,0-.369-.247c-.17-.247-.5-.18-.758-.247Z" transform="translate(-226.216 -59.324)" fill="#fff" fill-rule="evenodd"/>
      <path id="Path_903" data-name="Path 903" d="M263.32,53.23c.029.1.063.225.082.331.09-.2.267-.288.425-.452a.81.81,0,0,0-.3-.109v-.006c-.071.07-.18.141-.205.237" transform="translate(-226.185 -45.52)" fill="#fff" fill-rule="evenodd"/>
      <path id="Path_904" data-name="Path 904" d="M267.457,57.981l.145-.147a.911.911,0,0,0,.286-.507.411.411,0,0,0-.337.016,4.025,4.025,0,0,0-.093.639" transform="translate(-229.739 -49.215)" fill="#fff" fill-rule="evenodd"/>
      <path id="Path_905" data-name="Path 905" d="M268.207,61.336a.938.938,0,0,0,.617-.067l.18-.578a.436.436,0,0,0-.17-.01,1.4,1.4,0,0,1-.627.654" transform="translate(-230.383 -52.118)" fill="#fff" fill-rule="evenodd"/>
      <path id="Path_906" data-name="Path 906" d="M268.315,48.13a1.284,1.284,0,0,0,.633.516c-.029-.269-.26-.456-.379-.686l-.007-.077a1.2,1.2,0,0,0-.3-.2A1.512,1.512,0,0,0,268.315,48.13Z" transform="translate(-230.426 -40.959)" fill="#fff" fill-rule="evenodd"/>
      <path id="Path_907" data-name="Path 907" d="M274.223,62.208a1.124,1.124,0,0,0,.51-.049c.229-.054.354-.3.431-.5h-.286l-.309.3A2.436,2.436,0,0,0,274.223,62.208Z" transform="translate(-235.551 -52.964)" fill="#fff" fill-rule="evenodd"/>
      <path id="Path_908" data-name="Path 908" d="M273.978,48.78a1.866,1.866,0,0,0,.3.693l.038-.478-.337-.215" transform="translate(-235.34 -41.901)" fill="#fff" fill-rule="evenodd"/>
      <path id="Path_909" data-name="Path 909" d="M279.024,53.784a2.382,2.382,0,0,0-.066-.51c-.1-.064-.232-.058-.331-.122a.941.941,0,0,0,.4.632" transform="translate(-239.333 -45.656)" fill="#fff" fill-rule="evenodd"/>
      <path id="Path_910" data-name="Path 910" d="M279.371,64.559a3.184,3.184,0,0,0,.584-.238c.119-.169.3-.324.324-.523-.147.041-.276-.006-.414.061a1.057,1.057,0,0,1-.3.43c-.025.109-.145.183-.2.27" transform="translate(-239.973 -54.801)" fill="#fff" fill-rule="evenodd"/>
      <path id="Path_911" data-name="Path 911" d="M281.6,71.891l.241.314a.488.488,0,0,0,.4-.045l-.087-.286a1.116,1.116,0,0,1-.556.017" transform="translate(-241.887 -61.738)" fill="#fff" fill-rule="evenodd"/>
      <path id="Path_912" data-name="Path 912" d="M284.45,54l.093.424a.854.854,0,0,0,.265-.732A1,1,0,0,1,284.45,54Z" transform="translate(-244.335 -46.122)" fill="#fff" fill-rule="evenodd"/>
      <path id="Path_913" data-name="Path 913" d="M288.936,61.182a.308.308,0,0,0,.055.167c.25.09.276.394.508.51a.575.575,0,0,0,.456-.077c-.1-.112-.212-.19-.308-.308-.068-.029-.135-.071-.132-.154Z" transform="translate(-248.189 -52.554)" fill="#fff" fill-rule="evenodd"/>
      <path id="Path_914" data-name="Path 914" d="M290.074,70.576a.746.746,0,0,0,.411.224c-.025-.035.017,0,.023-.022l-.193-.423c-.1,0-.2.022-.285.016A.879.879,0,0,0,290.074,70.576Z" transform="translate(-249.127 -60.433)" fill="#fff" fill-rule="evenodd"/>
      <path id="Path_915" data-name="Path 915" d="M290.067,53.685a2.476,2.476,0,0,1-.153-.693c-.1.115-.2.189-.286.308-.042.238.3.3.439.385" transform="translate(-248.779 -45.519)" fill="#fff" fill-rule="evenodd"/>
      <path id="Path_916" data-name="Path 916" d="M294.922,50.925c.116.15.369.1.511.054-.068-.116-.286-.183-.324-.308a2.769,2.769,0,0,0-.138-.638.91.91,0,0,0-.049.892" transform="translate(-253.243 -42.977)" fill="#fff" fill-rule="evenodd"/>
      <path id="Path_917" data-name="Path 917" d="M296.975,60.556a1.32,1.32,0,0,0,1.086.407c.032-.023.087-.019.093-.061-.132-.084-.273-.148-.408-.224l-.154-.225h-.071A2.82,2.82,0,0,1,296.975,60.556Z" transform="translate(-255.094 -51.928)" fill="#fff" fill-rule="evenodd"/>
      <path id="Path_918" data-name="Path 918" d="M297.023,76.116h.022a1.733,1.733,0,0,1,.649-.27c.061.022.023.09.077.116.138-.058.305-.045.446-.093a.973.973,0,0,1,.447.084c.109.144.315.129.457.224l-.023-.224a1.444,1.444,0,0,0-1.194-.369l-.01-.045a.766.766,0,0,0-.314.068,1.624,1.624,0,0,0-.4.115,3.627,3.627,0,0,0-.154.395" transform="translate(-255.135 -64.885)" fill="#fff" fill-rule="evenodd"/>
      <path id="Path_919" data-name="Path 919" d="M297.912,48.15a.543.543,0,0,0,.523.247.609.609,0,0,1-.241-.369c.032-.286-.282-.308-.437-.456a1.928,1.928,0,0,0,.154.578" transform="translate(-255.766 -40.863)" fill="#fff" fill-rule="evenodd"/>
      <path id="Path_920" data-name="Path 920" d="M298.62,80.671h.037c.171-.107.418-.026.585-.138.093-.048.1.08.164.115.157.1.176.385.4.318.266.138.2.463.209.7l.247-.154c-.023-.125.048-.277-.033-.385-.061-.138-.228-.151-.308-.263.1-.164-.122-.24-.167-.359l.013-.017.34.045a.509.509,0,0,1,.193.318c.267.045.331.346.424.539.055-.132.077-.273.132-.4,0-.106-.138-.106-.209-.154a.576.576,0,0,0-.238-.417,3.535,3.535,0,0,0-.88-.238l-.27.084c-.148.035-.305-.01-.417.093C298.674,80.369,298.661,80.552,298.62,80.671Z" transform="translate(-256.507 -68.873)" fill="#fff" fill-rule="evenodd"/>
      <path id="Path_921" data-name="Path 921" d="M299.822,71.044l.061.029c.131-.061.263-.132.4-.183.215-.061.382.183.562.029.067-.048.125.022.176.061.077.141.257.132.392.17-.067-.183-.151-.433-.385-.463a2.252,2.252,0,0,1-.292-.093c-.247-.273-.408.224-.678.1a.753.753,0,0,0-.238.347" transform="translate(-257.539 -60.568)" fill="#fff" fill-rule="evenodd"/>
      <path id="Path_922" data-name="Path 922" d="M300.258,84.984c.1.086.208.234.369.215.2.093.116.356.225.494l.115-.1-.01-.006.016-.016.007.01a.613.613,0,0,0-.068-.379c-.074-.051-.161,0-.231-.045a.325.325,0,0,0-.148-.218c-.051-.038-.119.013-.177.01Z" transform="translate(-257.914 -72.945)" fill="#fff" fill-rule="evenodd"/>
      <path id="Path_923" data-name="Path 923" d="M303.106,56.868a1.654,1.654,0,0,0,.475.408.764.764,0,0,0,.456.045,2.935,2.935,0,0,1-.379-.376c-.045-.064-.055-.144-.116-.2A.9.9,0,0,0,303.106,56.868Z" transform="translate(-260.36 -48.741)" fill="#fff" fill-rule="evenodd"/>
      <path id="Path_924" data-name="Path 924" d="M304.361,48.41c.148.182.376.109.585.115V48.5l-.321-.27A.865.865,0,0,0,304.361,48.41Z" transform="translate(-261.438 -41.431)" fill="#fff" fill-rule="evenodd"/>
      <path id="Path_925" data-name="Path 925" d="M262.431,24.61l.186.578c0-.327.148-.6.116-.934l.138-.206-.293.09a1.088,1.088,0,0,0-.147.472" transform="translate(-225.421 -20.657)" fill="#fff" fill-rule="evenodd"/>
      <path id="Path_926" data-name="Path 926" d="M263.32,17.744l.253-.148v-.375a1.333,1.333,0,0,0-.247.26Z" transform="translate(-226.185 -14.792)" fill="#fff" fill-rule="evenodd"/>
      <path id="Path_927" data-name="Path 927" d="M269.222,9.373a.357.357,0,0,1-.231.115,1.1,1.1,0,0,0,.093-.87,1.248,1.248,0,0,0,.216-.077l-.007-.006.177-.155c.234-.16.144-.465.231-.692-.116-.18-.151-.4-.318-.549l.01-.006c-.132-.167-.37-.148-.55-.231-.237-.08-.42.083-.591.193-.074.012-.029.109-.109.106a3.253,3.253,0,0,0-.132.379,1.286,1.286,0,0,0-.915.17,1.348,1.348,0,0,0-.457-.164c-.115-.022-.247.019-.33-.045-.122-.137-.148-.388-.357-.423-.073-.026-.089-.106-.089-.177-.138-.022-.261-.086-.4-.115-.2-.093-.369.055-.523.154a1.534,1.534,0,0,0-.208.077,2.935,2.935,0,0,0-.3.561,1.162,1.162,0,0,0,.177.446.908.908,0,0,0,.5.456,1.888,1.888,0,0,0,0,1.017l-.005,0-.01.009a.174.174,0,0,1-.089-.009h0a1.4,1.4,0,0,0,.423.8c.084.029.064.128.1.193a.151.151,0,0,1,.016.115,2.522,2.522,0,0,0-1.349.337c-.1.051-.057.193-.067.292a2.481,2.481,0,0,1,.925-.385,1.4,1.4,0,0,1,.447-.006l.016.276a4.077,4.077,0,0,0-1.128.642,1.294,1.294,0,0,0,.016.3l.292-.238a3.475,3.475,0,0,1,.9-.516,1.12,1.12,0,0,0,.293.275,2.181,2.181,0,0,1,.633-.275c.119-.071.308-.007.385-.148l.055-.292c-.01-.007-.016-.019-.032-.016a.442.442,0,0,1-.238-.414.431.431,0,0,1-.17.045c-.051-.013-.1-.025-.122-.077,0-.064-.036-.16.028-.208a1.24,1.24,0,0,1,.742-.115c.2.025.479.015.546.247-.009.067,0,.141-.07.186s-.151,0-.215-.032a.529.529,0,0,1-.315.385l.023.187c.022.083.029.221.161.192a2.813,2.813,0,0,1,.841.4,1.994,1.994,0,0,0,.225-.286,4.193,4.193,0,0,1,1.279.847l.016-.269a4.391,4.391,0,0,0-1.218-.748,1.625,1.625,0,0,0,.038-.263,3.149,3.149,0,0,1,1.417.433l-.007-.231a3.15,3.15,0,0,0-1.458-.4.161.161,0,0,1-.022-.1.715.715,0,0,0,.5-.539c.131-.15.321-.314.276-.539l.019-.057a.267.267,0,0,0,.012-.167" transform="translate(-226.878 -5.837)" fill="#fff" fill-rule="evenodd"/>
      <path id="Path_928" data-name="Path 928" d="M303.432,26.189l.263-.084.028-.148c.074-.215-.083-.375-.161-.546Z" transform="translate(-260.64 -21.828)" fill="#fff" fill-rule="evenodd"/>
      <path id="Path_929" data-name="Path 929" d="M308.13,35.786c.125.138.247.359.469.292a1.388,1.388,0,0,0-.1-.253c-.058-.068-.077-.26-.193-.192-.087-.058-.109-.155-.164-.231a2.289,2.289,0,0,0-.013.385" transform="translate(-264.674 -30.409)" fill="#fff" fill-rule="evenodd"/>
      <path id="Path_930" data-name="Path 930" d="M308.462,44.417c.048.068.061.155.109.215a.518.518,0,0,0,.321.038c.1-.022.158.083.247.022-.112-.07-.179-.2-.286-.292-.126-.1-.26-.013-.392.016" transform="translate(-264.961 -38.099)" fill="#fff" fill-rule="evenodd"/>
      <path id="Path_931" data-name="Path 931" d="M309.338,54.248a1.238,1.238,0,0,0,.8.215c.032-.017.087-.013.093-.052a4.92,4.92,0,0,0-.567-.286c-.106-.163-.244.042-.379.029,0,.039.042.068.055.093" transform="translate(-265.666 -46.439)" fill="#fff" fill-rule="evenodd"/>
      <path id="Path_932" data-name="Path 932" d="M314.4,75.468l.048.1c.048.334.26.642.144,1.007.1.067.126.179.186.269h.016a2.146,2.146,0,0,0-.016-.847c.029-.253-.228-.4-.379-.533" transform="translate(-270.064 -64.825)" fill="#fff" fill-rule="evenodd"/>
      <path id="Path_933" data-name="Path 933" d="M314.8,51.232a.719.719,0,0,0,.626.077,1.934,1.934,0,0,1-.357-.231Z" transform="translate(-270.401 -43.875)" fill="#fff" fill-rule="evenodd"/>
      <path id="Path_934" data-name="Path 934" d="M320.4,57.459a.348.348,0,0,0,.17.314.724.724,0,0,0,.1-.237.587.587,0,0,0-.231-.356.785.785,0,0,0-.038.279" transform="translate(-275.216 -49.116)" fill="#fff" fill-rule="evenodd"/>
      <path id="Path_935" data-name="Path 935" d="M320.473,67.172c-.023.15.144.17.215.254s-.038.119-.038.186a.87.87,0,0,1,.193.546,5.286,5.286,0,0,0,.149-.584c-.013-.141-.238-.112-.2-.269a.694.694,0,0,0-.055-.462c-.013-.023-.042-.068-.067-.055-.059.132-.2.224-.193.385" transform="translate(-275.276 -57.366)" fill="#fff" fill-rule="evenodd"/>
      <path id="Path_936" data-name="Path 936" d="M323.606,61.421l.167.324c.074-.009.121-.08.18-.131.045-.135-.074-.222-.109-.331-.029-.077,0-.18-.055-.247-.042-.025-.09-.067-.138-.055Z" transform="translate(-277.969 -52.379)" fill="#fff" fill-rule="evenodd"/>
      <path id="Path_937" data-name="Path 937" d="M325.129,58.065a.931.931,0,0,1,.353.336c.113.327.293.623.424.94.048.222.087.419.148.637.023.057.01.169.1.16.025-.244.074-.478.077-.732a.977.977,0,0,0-.286-.215V59.17c.013-.055.058-.119.126-.109.028-.033.115-.064.077-.122-.167-.167-.158-.454-.425-.506a.242.242,0,0,1-.125-.224.767.767,0,0,0-.469-.144" transform="translate(-279.277 -49.876)" fill="#fff" fill-rule="evenodd"/>
      <path id="Path_938" data-name="Path 938" d="M326.145,67.874c.164.15.107.369.093.571-.025.122.129.051.177.115a.7.7,0,0,1,.006.523,3.131,3.131,0,0,0,.254-.391c0-.055.067-.08.065-.148.029-.093-.08-.051-.125-.062s-.08-.035-.068-.086a.783.783,0,0,0-.025-.513c-.039-.132.016-.308-.045-.424C326.374,67.6,326.068,67.633,326.145,67.874Z" transform="translate(-280.14 -57.946)" fill="#fff" fill-rule="evenodd"/>
      <path id="Path_939" data-name="Path 939" d="M328.339,54.208c.286.289.495.579.8.859a3.251,3.251,0,0,0-.016-.363.859.859,0,0,0-.2-.215c-.228-.023-.347-.329-.588-.281" transform="translate(-282.035 -46.559)" fill="#fff" fill-rule="evenodd"/>
      <path id="Path_940" data-name="Path 940" d="M333.648,64.793a.505.505,0,0,0,.032.083,4.194,4.194,0,0,1,.331.638c-.026-.237.135-.533-.077-.715-.029-.077-.125-.051-.186-.045Z" transform="translate(-286.595 -55.614)" fill="#fff" fill-rule="evenodd"/>
      <path id="Path_941" data-name="Path 941" d="M339.114,79.4c.09.041.206-.033.292-.084a.262.262,0,0,1,.209.067c.025.051,0,.1.009.148a1.961,1.961,0,0,1,.553.237l.054-.054a.377.377,0,0,0-.2-.314c-.067-.039-.168-.017-.215-.078a.332.332,0,0,0,.029-.186.464.464,0,0,1-.26-.084c-.054-.016-.1-.061-.148,0C339.278,79.166,339.268,79.326,339.114,79.4Z" transform="translate(-291.29 -67.881)" fill="#fff" fill-rule="evenodd"/>
      <path id="Path_942" data-name="Path 942" d="M340.561,49.82a.579.579,0,0,0,.231-.1c.215-.2.527-.064.777-.068a1.73,1.73,0,0,0-.176-.247.741.741,0,0,0-.276-.077c-.218-.128-.366.087-.533.192a.358.358,0,0,0-.022.3" transform="translate(-292.512 -42.335)" fill="#fff" fill-rule="evenodd"/>
      <path id="Path_943" data-name="Path 943" d="M340.6,54.139c0-.009,0-.019.01-.022.029.026,0,.086.045.1a1.849,1.849,0,0,0,.237-.153c.216,0,.344-.208.555-.208a3.184,3.184,0,0,1,1.012.308.7.7,0,0,0-.385-.491.266.266,0,0,0-.258.077c-.215.135-.1-.2-.254-.2a1.591,1.591,0,0,1-.616.11c-.129.048-.219.166-.363.154A.8.8,0,0,0,340.6,54.139Z" transform="translate(-292.546 -45.995)" fill="#fff" fill-rule="evenodd"/>
      <path id="Path_944" data-name="Path 944" d="M341.506,59.735c.067.07.179.057.276.07l.279-.109c0-.051-.083-.065-.065-.122.077-.087.184-.026.279-.062.136-.019.274-.154.408-.054,0,.016.007.039-.006.054-.042.1.029.16.106.2.158.029.305.174.463.109a2.844,2.844,0,0,0-.084-.379c-.131-.023-.224-.132-.347-.177a.264.264,0,0,1-.193.084c-.247-.058-.543-.212-.793-.054-.09.109-.251.077-.373.124a1.425,1.425,0,0,0,.049.315" transform="translate(-293.303 -50.874)" fill="#fff" fill-rule="evenodd"/>
      <path id="Path_945" data-name="Path 945" d="M342.355,75.037c-.02.055-.074.145.025.17.206.007.469-.1.63.061.054.042.028.128.025.183l.269.225a2.321,2.321,0,0,0,.077-.4.449.449,0,0,0-.163-.27c-.177,0-.28-.207-.469-.18-.1-.023-.186.065-.286.065A1.621,1.621,0,0,0,342.355,75.037Z" transform="translate(-294.047 -64.269)" fill="#fff" fill-rule="evenodd"/>
      <path id="Path_946" data-name="Path 946" d="M343.014,64.583c.041.086.09.228.17.237a.914.914,0,0,1,.678-.045c.071.013.071.093.055.145.109.064.241.115.356.186l-.032-.192c-.007-.209-.27-.228-.286-.434a1.271,1.271,0,0,0-.684-.038c-.074.068-.18.058-.27.077-.006.025.01.041.013.064" transform="translate(-294.628 -55.327)" fill="#fff" fill-rule="evenodd"/>
      <path id="Path_947" data-name="Path 947" d="M343.489,69.856c.125-.035.2-.173.34-.186a.627.627,0,0,1,.517.263c.078.051.061.183.161.183a3.184,3.184,0,0,1,.017-.462c-.136-.224-.468-.051-.594-.314l-.237.016c-.17.042-.125.241-.148.376C343.524,69.772,343.485,69.8,343.489,69.856Z" transform="translate(-295.048 -59.56)" fill="#fff" fill-rule="evenodd"/>
      <path id="Path_948" data-name="Path 948" d="M351.843,81.314c.1.2.319.35.341.578a1.08,1.08,0,0,0,.122-.2c0-.064-.078-.064-.107-.116-.029-.083.016-.157.029-.231a.622.622,0,0,0-.254-.3l-.132.269" transform="translate(-302.224 -69.616)" fill="#fff" fill-rule="evenodd"/>
      <path id="Path_949" data-name="Path 949" d="M354.651,77.306l.231.314a.83.83,0,0,0,.061-.578c-.022-.035-.064-.093-.122-.067C354.734,77.066,354.721,77.2,354.651,77.306Z" transform="translate(-304.636 -66.114)" fill="#fff" fill-rule="evenodd"/>
      <path id="Path_950" data-name="Path 950" d="M347.973,15.773a.668.668,0,0,0,.263.086.34.34,0,0,1,.238-.038c.119.077.263-.016.4-.01a1.482,1.482,0,0,0-.4-.253c-.18.038-.324.166-.5.215" transform="translate(-298.9 -13.364)" fill="#fff" fill-rule="evenodd"/>
      <path id="Path_951" data-name="Path 951" d="M356.883,18.711c.17.016.292.166.407.292a.568.568,0,0,1,.34.231l-.055-.17a1.085,1.085,0,0,0-.253-.436,1.242,1.242,0,0,0-.44.083" transform="translate(-306.553 -16.001)" fill="#fff" fill-rule="evenodd"/>
      <path id="Path_952" data-name="Path 952" d="M269.164,9.234l.093.01c.251.125.655.189.678.552a1.984,1.984,0,0,0-.7.44c-.154-.157-.466-.071-.517-.346.049-.26.141-.587.446-.655" transform="translate(-230.822 -7.932)" fill="#f60" fill-rule="evenodd"/>
      <path id="Path_953" data-name="Path 953" d="M273.3,20.715c.292-.025.575.015.877-.01a.383.383,0,0,1,.186.17c-.01.346-.116.677-.132,1.033a.475.475,0,0,0-.292.308,2.543,2.543,0,0,0-.341.16.337.337,0,0,1,.049-.362c.125-.177.45-.135.423-.414.084-.135,0-.308.007-.449-.032-.106-.064.035-.116.032a.42.42,0,0,1-.3-.022c-.068-.071-.151-.129-.171-.225a.525.525,0,0,1-.241-.209Z" transform="translate(-234.716 -17.785)" fill="#f60" fill-rule="evenodd"/>
      <path id="Path_954" data-name="Path 954" d="M276.037,35.564c.137.019.282-.042.4.025a.229.229,0,0,1-.148.077l-.215.1c-.08-.02-.035-.148-.038-.2" transform="translate(-237.101 -30.542)" fill="#f60" fill-rule="evenodd"/>
      <path id="Path_955" data-name="Path 955" d="M278.4,15.969c.138-.045.286-.137.434-.092a2.069,2.069,0,0,0-.27.371l-.44-.009a.619.619,0,0,1,.276-.27" transform="translate(-238.904 -13.627)" fill="#f60" fill-rule="evenodd"/>
      <path id="Path_956" data-name="Path 956" d="M287.672,15.8c.183-.032.173.205.34.215.029.038.071.073.055.131a2.8,2.8,0,0,1-.347.045c-.145-.08-.051-.331-.279-.314-.012-.019-.039-.058-.006-.071a.551.551,0,0,1,.238-.006" transform="translate(-246.885 -13.56)" fill="#f60" fill-rule="evenodd"/>
      <path id="Path_957" data-name="Path 957" d="M288.166,21.076a.44.44,0,0,1,.318-.145l.832.016c.035.032-.032.061-.032.1-.051.048-.126.061-.171.106-.109,0-.1.131-.177.186-.119.119-.292.064-.43.045a.367.367,0,0,1-.125-.138l-.038.039c.048.18.035.379.07.562l.2.132c0,.3.35.215.5.379a.9.9,0,0,1-.182.286,1.075,1.075,0,0,0-.408-.247c-.013-.173-.2-.276-.309-.363-.029-.314-.035-.635-.086-.94Z" transform="translate(-247.495 -17.979)" fill="#f60" fill-rule="evenodd"/>
      <path id="Path_958" data-name="Path 958" d="M290.234,35.989h.386l-.049.2-.386-.164C290.176,36,290.211,35.986,290.234,35.989Z" transform="translate(-249.26 -30.913)" fill="#f60" fill-rule="evenodd"/>
      <path id="Path_959" data-name="Path 959" d="M293.948,9.667l.286-.09a2.917,2.917,0,0,1,.469.282,1.132,1.132,0,0,1,.045.757c-.087.1-.276,0-.347.154h-.013a1.412,1.412,0,0,0-.687-.709A.6.6,0,0,1,293.948,9.667Z" transform="translate(-252.282 -8.226)" fill="#f60" fill-rule="evenodd"/>
      <path id="Path_960" data-name="Path 960" d="M254.219,13.666h1.714a1.251,1.251,0,0,0,.726-.219,3.337,3.337,0,0,0,2.4-.551,5.024,5.024,0,0,0,.934-.982,3.542,3.542,0,0,0,.524-.976,4.579,4.579,0,0,0,.207-.687,6.53,6.53,0,0,0-.245-3.414q-.1-.295-.225-.567a5.914,5.914,0,0,0-2.016-2.532,4.054,4.054,0,0,1-1.327-1.38c-.164-.148-.322-.344-.534-.379a.834.834,0,0,1,.138.3L256.5,2.3a.779.779,0,0,1-.556-.257l.171-.154a.9.9,0,0,0-.209-.061,4.73,4.73,0,0,0-1.757.369l-.01.032c.353.157.427.545.633.809.051-.061.138-.016.209-.023.1.007.2.08.3.055a.878.878,0,0,0-.061-.23.422.422,0,0,1,.2,0c.186.109.485-.02.6.23a3.49,3.49,0,0,0-.61.106c.013.08.093.145.087.225a2.016,2.016,0,0,0-.54-.138l-.009.028a1.858,1.858,0,0,0,.908.549c.485.112.912-.119,1.38-.038A5.375,5.375,0,0,1,259.8,6.671c.021.055.041.11.06.166a5.556,5.556,0,0,1,.067,3.414,4.189,4.189,0,0,1-.738,1.248,2.615,2.615,0,0,1-.421.414,1.889,1.889,0,0,1-1.689.372c-.038-.025-.116-.032-.1-.1.022-.089.042-.18.059-.273a6.764,6.764,0,0,0,.121-1.619c0-.024,0-.047,0-.071a6.173,6.173,0,0,0-.486-2.2,7.63,7.63,0,0,0-.692-1.213,2.872,2.872,0,0,0-1.287-1.059.964.964,0,0,0-.98.17.658.658,0,0,0-.225.59,2.01,2.01,0,0,1-.925.3c-.083.007-.168.037-.253.037a1.379,1.379,0,0,1-.239-.01,2.365,2.365,0,0,1-1.132-.52c-.007-.166-.016-.324-.023-.5a.606.606,0,0,1-.34-.478l.017-.016a1.344,1.344,0,0,1,.285.138,2.105,2.105,0,0,0-.215-.716c-.116-.048-.232-.086-.341-.145a.547.547,0,0,1-.224-.372c.112.11.308.071.395.186a6.512,6.512,0,0,0-.4-1.364c-.125-.3-.453-.44-.678-.661-.087-.106-.122-.253-.279-.27-.128-.032-.138-.177-.161-.269.08.009.148.064.215.077a2.419,2.419,0,0,0-.855-1.357l-.087.054a5.278,5.278,0,0,1-.6.048.827.827,0,0,1,.363-.241.869.869,0,0,0-.435-.16.889.889,0,0,1-.42.183L247.14.442c0-.115-.03-.257.143-.286a1,1,0,0,0-.614,0c-.049.125-.185.237-.176.385a2.581,2.581,0,0,1-.273.315,2.955,2.955,0,0,1,.147-.683c-.145.054-.291.131-.433.2a5.909,5.909,0,0,0-.712-.362c-.023-.01-.071-.019-.061.022.209.151.128.433.15.648L245.18.571c-.064-.164-.25-.283-.281-.463a2.447,2.447,0,0,0-.561.186l-.028.016a.454.454,0,0,1,.353.237,4.175,4.175,0,0,1-.655-.1C243.985.426,243.966.4,243.93.4a1.232,1.232,0,0,0-.308.2,2.156,2.156,0,0,0-.552.747.5.5,0,0,1,.222.055c-.122.074-.228.2-.347.269a2.954,2.954,0,0,0-.045.539,2.425,2.425,0,0,0-.28.423,6.292,6.292,0,0,0-.221,2.092c-.065.061-.148.1-.209.148l.006.655h.016c.029-.138.193-.215.292-.308h.032c-.016.147-.035.295-.038.446l-.186.154c-.186.164-.028.41-.045.615.013.055.022.135.062.148a.853.853,0,0,1,.137-.208c.08-.02.151-.084.225-.093a3.345,3.345,0,0,1-.161.471.6.6,0,0,0-.1.08.232.232,0,0,0-.065.119A14.4,14.4,0,0,0,243,9.183c-.177.3-.277.65-.424.958-.021.043-.04.087-.058.132-.148.373-.193.79-.376,1.149a1.27,1.27,0,0,0-.237-.126.969.969,0,0,0-1,.225.861.861,0,0,0-.634.115.844.844,0,0,0-.28.344.7.7,0,0,0-.05.3.736.736,0,0,0-.27.407,1.264,1.264,0,0,0,.253.974h14.3Z" transform="translate(-205.853 0)" fill="#fff" fill-rule="evenodd"/>
      <path id="Path_961" data-name="Path 961" d="M260.481,6.84q-.1-.295-.225-.567A5.916,5.916,0,0,0,258.24,3.74a4.054,4.054,0,0,1-1.327-1.38c-.164-.148-.322-.344-.534-.379a.834.834,0,0,1,.138.3L256.5,2.3a.779.779,0,0,1-.556-.257l.171-.154a.91.91,0,0,0-.209-.061,4.732,4.732,0,0,0-1.757.369l-.01.032c.353.157.427.545.633.809.051-.061.138-.016.209-.023.1.006.2.08.3.054a.876.876,0,0,0-.061-.23.42.42,0,0,1,.2,0c.186.109.485-.02.6.23a3.491,3.491,0,0,0-.61.106c.013.08.093.145.087.225a2.014,2.014,0,0,0-.54-.138l-.009.028a1.859,1.859,0,0,0,.908.549c.485.112.912-.119,1.38-.038A5.375,5.375,0,0,1,259.8,6.673c.021.055.041.11.06.166a5.556,5.556,0,0,1,.067,3.414,4.187,4.187,0,0,1-.738,1.248,2.609,2.609,0,0,1-.421.414,1.889,1.889,0,0,1-1.689.372c-.038-.025-.116-.032-.1-.1.022-.089.042-.18.059-.273a6.762,6.762,0,0,0,.121-1.619c0-.024,0-.047,0-.071a6.172,6.172,0,0,0-.486-2.2,7.625,7.625,0,0,0-.692-1.214,2.873,2.873,0,0,0-1.287-1.059.964.964,0,0,0-.98.17.657.657,0,0,0-.225.59,2.009,2.009,0,0,1-.925.3c-.083.007-.168.037-.253.037a1.379,1.379,0,0,1-.239-.01,2.365,2.365,0,0,1-1.132-.52c-.007-.166-.016-.324-.023-.5a.606.606,0,0,1-.34-.478l.017-.016a1.344,1.344,0,0,1,.285.138,2.105,2.105,0,0,0-.215-.716c-.116-.048-.232-.086-.341-.145a.548.548,0,0,1-.224-.372c.112.11.308.071.395.187a6.514,6.514,0,0,0-.4-1.364c-.125-.3-.453-.439-.678-.661-.087-.106-.122-.253-.279-.27-.128-.032-.138-.177-.161-.269.08.009.148.064.215.077a2.42,2.42,0,0,0-.855-1.357l-.087.054a5.279,5.279,0,0,1-.6.048.825.825,0,0,1,.363-.241.869.869,0,0,0-.435-.16.889.889,0,0,1-.42.183L247.14.444c0-.115-.03-.257.143-.286a1,1,0,0,0-.614,0c-.049.125-.185.237-.176.385a2.581,2.581,0,0,1-.273.315,2.957,2.957,0,0,1,.147-.683c-.145.054-.291.131-.433.2a5.908,5.908,0,0,0-.712-.362c-.023-.01-.071-.02-.061.022.209.151.128.433.15.648L245.18.573c-.064-.164-.25-.282-.281-.463a2.454,2.454,0,0,0-.561.187l-.028.016a.454.454,0,0,1,.353.237,4.175,4.175,0,0,1-.655-.1c-.023-.023-.041-.048-.078-.045a1.236,1.236,0,0,0-.308.2,2.156,2.156,0,0,0-.552.748.492.492,0,0,1,.222.055c-.122.074-.228.2-.347.27a2.954,2.954,0,0,0-.045.539,2.418,2.418,0,0,0-.28.423,6.292,6.292,0,0,0-.221,2.092c-.065.061-.148.1-.209.148l.006.655h.016c.029-.138.193-.215.292-.308h.032c-.016.148-.035.295-.038.446l-.186.154c-.186.164-.028.41-.045.615.013.055.022.135.062.148a.853.853,0,0,1,.137-.208c.08-.02.151-.084.225-.093a3.358,3.358,0,0,1-.161.471.581.581,0,0,0-.1.08.231.231,0,0,0-.065.119A14.4,14.4,0,0,0,243,9.185c-.177.3-.277.65-.424.958-.021.043-.04.087-.058.132-.148.373-.193.79-.376,1.149a1.25,1.25,0,0,0-.237-.126.969.969,0,0,0-1,.225.862.862,0,0,0-.634.115.845.845,0,0,0-.281.344.7.7,0,0,0-.05.3.736.736,0,0,0-.27.407,1.264,1.264,0,0,0,.253.974H245.6a1.846,1.846,0,0,1-.219-.356c-.122-.183-.038-.443-.051-.655.116-.233.233-.468.365-.7.027-.046.054-.091.081-.136l.261-.1c.138,0,.254-.1.385-.064.177.177.177-.176.347-.192a.978.978,0,0,1,1.018.324c0,.045.071.045.055.087-.052.015-.1-.016-.154-.016-.244-.061-.53-.215-.771-.077-.009.058-.022.116-.033.174a1.754,1.754,0,0,0-.028.179.972.972,0,0,1,.408.279.651.651,0,0,1,.4-.279.934.934,0,0,1,.386.115c.2.187.1.5.084.741.183.1.385.161.571.26a.9.9,0,0,1-.308.148l-.308-.061c-.035-.025-.1-.025-.109-.07a1.612,1.612,0,0,0-.292.394h4.4a2.323,2.323,0,0,0-.206-.356,1.83,1.83,0,0,1-.064-.661l.411-.626a3.809,3.809,0,0,1,.722-.045.266.266,0,0,0,.035-.019c.1-.07.132-.232.283-.212a.831.831,0,0,1,.678.171.319.319,0,0,1-.021.042c-.085.136-.243-.016-.359.025-.048.051.023.112.032.17.042.057-.042.051-.07.061a.221.221,0,0,1-.193-.061c-.013-.016,0-.035-.028-.038a.989.989,0,0,0-.164.292.8.8,0,0,1,.209.231c.074.106-.058.186-.083.279a.028.028,0,0,1-.048,0c-.068-.038-.125-.135-.2-.11-.065.286.022.572-.016.857a2.416,2.416,0,0,0,.408,0l.055-.6a1.975,1.975,0,0,1,.562-1.018c.295-.2.485.2.7.334.036.006.023.045.039.067,0,.064-.07.09-.115.109-.135.048-.235-.1-.318-.187-.08.087-.116.2-.209.27l.032.009a.7.7,0,0,1,.232.36.4.4,0,0,1-.193.318,3.188,3.188,0,0,1-.215-.462c0,.007,0,.01-.01.016-.177.048-.224.247-.254.407.01.157-.109.221-.078.379h2.291a1.253,1.253,0,0,0,.726-.219,3.336,3.336,0,0,0,2.4-.551,5.027,5.027,0,0,0,.934-.982,3.54,3.54,0,0,0,.524-.976,4.584,4.584,0,0,0,.207-.687,6.529,6.529,0,0,0-.246-3.413" transform="translate(-205.853 -0.002)" fill="#f60" fill-rule="evenodd"/>
      <path id="Path_962" data-name="Path 962" d="M282.732,86.258c.125-.08.328-.1.356-.286a.44.44,0,0,0-.154-.1l-.132.038a1.581,1.581,0,0,1,.078-.247l.424-.138a3.424,3.424,0,0,0-.1.655,2.35,2.35,0,0,0,.254.95H283C282.95,86.829,282.634,86.61,282.732,86.258Z" transform="translate(-242.843 -73.465)" fill="#f60" fill-rule="evenodd"/>
      <path id="Path_963" data-name="Path 963" d="M288.812,87.982h.025l.308.279.045-.01c-.025.327-.041.648-.045.988h-.334a4.048,4.048,0,0,1-.167-.994A1.494,1.494,0,0,1,288.812,87.982Z" transform="translate(-247.938 -75.574)" fill="#f60" fill-rule="evenodd"/>
      <path id="Path_964" data-name="Path 964" d="M294.006,88.765c.061-.08.087-.215.209-.231a.328.328,0,0,1,.232.077c.112.141,0,.321-.038.462a5.409,5.409,0,0,1-.193.641h-.324Z" transform="translate(-252.445 -76.048)" fill="#f60" fill-rule="evenodd"/>
      <path id="Path_965" data-name="Path 965" d="M328.555,87.313c.071.09.093.212.2.292a.6.6,0,0,0,.071-.491l-.093-.093c.119-.028.244-.038.363-.061a1.337,1.337,0,0,0-.132.523c0,.289.051.578.077.879h-.353a1.944,1.944,0,0,1-.247-.879A.77.77,0,0,1,328.555,87.313Z" transform="translate(-282.12 -74.696)" fill="#f60" fill-rule="evenodd"/>
      <path id="Path_966" data-name="Path 966" d="M339.839,44.148c0,.083-.064.176-.01.247.078-.087.206-.084.309-.122a2.535,2.535,0,0,1,.825.129c-.067-.106-.112-.225-.186-.321-.148-.039-.373.064-.4-.155-.09-.077-.231-.022-.324-.016A.719.719,0,0,0,339.839,44.148Z" transform="translate(-291.885 -37.696)" fill="#fff" fill-rule="evenodd"/>
      <path id="Path_967" data-name="Path 967" d="M270.393,26.076l0,0s0,0,0,0Z" transform="translate(-232.256 -22.396)" fill="#fff" fill-rule="evenodd"/>
      <path id="Path_968" data-name="Path 968" d="M277.731,41.264l.193-.186a.043.043,0,0,1,.038.016l-.016.356a.5.5,0,0,0,.33.122c.01-.1.084-.164.126-.247.035-.067.013-.167.083-.214l.023.022a1.009,1.009,0,0,0,.071.318c.007.051.015.115.022.16a.8.8,0,0,0,.379-.084,1.442,1.442,0,0,1,.054-.333c.03-.039-.035-.11.045-.106.045.1.125.2.171.3a1.249,1.249,0,0,0,.308-.693c-.054-.073-.138-.073-.2-.122a2.418,2.418,0,0,0-1.772.061.816.816,0,0,0,.148.632" transform="translate(-238.426 -34.731)" fill="#fff" fill-rule="evenodd"/>
      <path id="Path_969" data-name="Path 969" d="M242.453,86.61a4.923,4.923,0,0,0,.016.723.366.366,0,0,0,.238.179l.016-.164c.038-.228-.083-.469.045-.662a1.551,1.551,0,0,1,.257.115.562.562,0,0,0-.219-.588l-.353.4" transform="translate(-208.254 -74.056)" fill="#fff" fill-rule="evenodd"/>
      <path id="Path_970" data-name="Path 970" d="M247.244,83.651a1.89,1.89,0,0,0-.067,1.234,1.457,1.457,0,0,0,.253-.193,1.331,1.331,0,0,1,.122-.875.568.568,0,0,1,.324.346.591.591,0,0,0,.1-.5c.006-.142-.154-.109-.231-.167.025-.119.022-.256.148-.324l-.385.038a1.825,1.825,0,0,0-.264.44" transform="translate(-212.252 -71.443)" fill="#fff" fill-rule="evenodd"/>
      <path id="Path_971" data-name="Path 971" d="M253.757,85.327c.016.028,0,.08.033.087.048-.27.266-.444.385-.682.057-.079.055-.192.148-.253.125,0,.215.09.337.1.038.029-.02.055-.023.087a3.2,3.2,0,0,0-.093.624h.022a3.291,3.291,0,0,0,.411-.579l.022-.182c.03-.218-.208-.359-.363-.449l.138-.177-.193-.067a.876.876,0,0,0-.584.292A2.6,2.6,0,0,0,253.757,85.327Z" transform="translate(-217.971 -72.011)" fill="#fff" fill-rule="evenodd"/>
      <path id="Path_972" data-name="Path 972" d="M259.886,78.81c.073.022.141-.038.215-.007a1.954,1.954,0,0,1,.826.468l.264.671.132-.414-.087-.224c-.074-.16-.276-.147-.415-.154-.058-.064,0-.138.023-.2.067-.228-.212-.215-.324-.308.007-.138-.161-.09-.254-.1l-.032-.038a.066.066,0,0,0-.093-.007c-.006-.01-.019-.016-.012-.032l-.07.016A.451.451,0,0,0,259.886,78.81Z" transform="translate(-223.235 -67.398)" fill="#fff" fill-rule="evenodd"/>
      <path id="Path_973" data-name="Path 973" d="M261.2,73.7a.211.211,0,0,0,.067.109c.145-.038.283-.138.45-.077a2.535,2.535,0,0,0,.7.491l.093-.016c.057.019.122.022.16.087.036.087-.054.137-.083.208.144.106.087.3.176.424l.231-.308c-.054-.135,0-.366-.208-.379a.2.2,0,0,1-.116-.186c-.138-.125-.308-.18-.446-.308-.113-.089-.18-.227-.324-.259a1.176,1.176,0,0,0-.324-.109c-.216-.033-.235.224-.377.324" transform="translate(-224.367 -63.024)" fill="#fff" fill-rule="evenodd"/>
      <path id="Path_974" data-name="Path 974" d="M263.393,69.228l.038.062c.161-.01.3-.08.462-.078.106.064.244.061.353.116a1.23,1.23,0,0,0,.308.333c.261.038.4.318.495.523v-.1a.7.7,0,0,0-.054-.424c-.065-.064-.158-.106-.225-.163a.132.132,0,0,1,.01-.1,2.141,2.141,0,0,0-.37-.248c-.17-.247-.5-.179-.758-.247Z" transform="translate(-226.248 -59.187)" fill="#fff" fill-rule="evenodd"/>
      <path id="Path_975" data-name="Path 975" d="M263.354,53.07c.029.1.063.225.083.331.09-.2.267-.289.424-.452a.814.814,0,0,0-.3-.109v-.006c-.071.07-.18.141-.205.237" transform="translate(-226.214 -45.382)" fill="#fff" fill-rule="evenodd"/>
      <path id="Path_976" data-name="Path 976" d="M267.491,57.825l.144-.147a.913.913,0,0,0,.286-.508.413.413,0,0,0-.337.016A4.034,4.034,0,0,0,267.491,57.825Z" transform="translate(-229.768 -49.081)" fill="#fff" fill-rule="evenodd"/>
      <path id="Path_977" data-name="Path 977" d="M268.241,61.177a.935.935,0,0,0,.617-.068l.18-.577c-.058,0-.116-.029-.171-.01a1.407,1.407,0,0,1-.627.655" transform="translate(-230.412 -51.98)" fill="#fff" fill-rule="evenodd"/>
      <path id="Path_978" data-name="Path 978" d="M268.348,47.977a1.3,1.3,0,0,0,.633.516c-.028-.27-.26-.456-.379-.686l-.007-.077a1.178,1.178,0,0,0-.3-.2A1.513,1.513,0,0,0,268.348,47.977Z" transform="translate(-230.454 -40.828)" fill="#fff" fill-rule="evenodd"/>
      <path id="Path_979" data-name="Path 979" d="M274.255,62.05a1.139,1.139,0,0,0,.511-.048c.228-.055.353-.3.43-.5h-.286l-.308.3A2.333,2.333,0,0,0,274.255,62.05Z" transform="translate(-235.578 -52.828)" fill="#fff" fill-rule="evenodd"/>
      <path id="Path_980" data-name="Path 980" d="M274.009,48.622a1.877,1.877,0,0,0,.3.693l.038-.478-.337-.215" transform="translate(-235.367 -41.765)" fill="#fff" fill-rule="evenodd"/>
      <path id="Path_981" data-name="Path 981" d="M279.055,53.626a2.333,2.333,0,0,0-.067-.51c-.1-.064-.231-.058-.331-.122a.944.944,0,0,0,.4.632" transform="translate(-239.36 -45.52)" fill="#fff" fill-rule="evenodd"/>
      <path id="Path_982" data-name="Path 982" d="M279.4,64.4a3.217,3.217,0,0,0,.585-.237c.119-.17.3-.324.324-.523-.149.041-.276-.007-.415.061a1.058,1.058,0,0,1-.3.43c-.026.108-.145.182-.2.269" transform="translate(-240.002 -54.665)" fill="#fff" fill-rule="evenodd"/>
      <path id="Path_983" data-name="Path 983" d="M281.634,71.735l.241.314a.489.489,0,0,0,.4-.045l-.086-.285a1.126,1.126,0,0,1-.556.015" transform="translate(-241.916 -61.606)" fill="#fff" fill-rule="evenodd"/>
      <path id="Path_984" data-name="Path 984" d="M284.482,53.847l.093.423a.848.848,0,0,0,.265-.731A1,1,0,0,1,284.482,53.847Z" transform="translate(-244.363 -45.989)" fill="#fff" fill-rule="evenodd"/>
      <path id="Path_985" data-name="Path 985" d="M288.972,61.019a.3.3,0,0,0,.054.167c.251.09.276.394.508.51a.569.569,0,0,0,.456-.077c-.1-.112-.211-.189-.308-.308-.067-.029-.136-.071-.132-.154Z" transform="translate(-248.22 -52.414)" fill="#fff" fill-rule="evenodd"/>
      <path id="Path_986" data-name="Path 986" d="M290.106,70.412a.744.744,0,0,0,.411.224c-.025-.035.017,0,.023-.022l-.193-.424c-.1,0-.2.023-.286.017a.884.884,0,0,0,.046.205" transform="translate(-249.154 -60.291)" fill="#fff" fill-rule="evenodd"/>
      <path id="Path_987" data-name="Path 987" d="M290.1,53.526a2.515,2.515,0,0,1-.154-.693c-.1.116-.2.19-.286.308-.042.237.3.3.44.385" transform="translate(-248.806 -45.382)" fill="#fff" fill-rule="evenodd"/>
      <path id="Path_988" data-name="Path 988" d="M294.954,50.768c.116.152.37.1.511.055-.068-.115-.285-.183-.324-.308a2.733,2.733,0,0,0-.138-.638.909.909,0,0,0-.049.891" transform="translate(-253.271 -42.843)" fill="#fff" fill-rule="evenodd"/>
      <path id="Path_989" data-name="Path 989" d="M297.009,60.395a1.319,1.319,0,0,0,1.085.407c.032-.022.087-.019.093-.061-.132-.083-.273-.148-.408-.225l-.154-.224h-.071A2.788,2.788,0,0,1,297.009,60.395Z" transform="translate(-255.123 -51.789)" fill="#fff" fill-rule="evenodd"/>
      <path id="Path_990" data-name="Path 990" d="M297.055,75.955h.023a1.714,1.714,0,0,1,.648-.27c.061.023.023.09.078.116.138-.057.305-.045.446-.093a.962.962,0,0,1,.447.083c.11.145.315.128.457.225l-.023-.225a1.444,1.444,0,0,0-1.194-.369l-.01-.045a.766.766,0,0,0-.315.067,1.663,1.663,0,0,0-.4.115,3.7,3.7,0,0,0-.155.4" transform="translate(-255.163 -64.748)" fill="#fff" fill-rule="evenodd"/>
      <path id="Path_991" data-name="Path 991" d="M297.946,47.992a.542.542,0,0,0,.523.247c-.109-.107-.235-.219-.241-.369.032-.286-.282-.309-.437-.456a1.939,1.939,0,0,0,.154.578" transform="translate(-255.796 -40.727)" fill="#fff" fill-rule="evenodd"/>
      <path id="Path_992" data-name="Path 992" d="M298.652,80.511h.039c.17-.105.417-.025.584-.137.093-.048.1.08.164.115.158.1.177.385.4.318.266.138.2.462.209.7l.247-.154c-.023-.125.048-.276-.032-.385-.061-.138-.228-.151-.309-.263.1-.164-.122-.241-.167-.36l.013-.016.341.045a.508.508,0,0,1,.193.318c.266.045.33.346.424.539.055-.131.077-.273.132-.4,0-.106-.138-.106-.209-.154a.57.57,0,0,0-.237-.417,3.5,3.5,0,0,0-.88-.238l-.27.083c-.148.036-.305-.009-.418.093-.167.013-.18.2-.222.314" transform="translate(-256.534 -68.736)" fill="#fff" fill-rule="evenodd"/>
      <path id="Path_993" data-name="Path 993" d="M299.856,70.885l.061.029c.132-.061.263-.132.4-.183.215-.061.382.183.562.029.067-.048.125.023.176.061.078.141.258.131.393.169-.068-.182-.151-.433-.386-.462a2.273,2.273,0,0,1-.292-.093c-.247-.273-.408.225-.679.1a.746.746,0,0,0-.237.346" transform="translate(-257.569 -60.432)" fill="#fff" fill-rule="evenodd"/>
      <path id="Path_994" data-name="Path 994" d="M300.292,84.824c.1.087.209.235.37.215.2.093.115.356.224.494l.116-.1-.01-.007.016-.016.007.009a.612.612,0,0,0-.068-.379c-.073-.051-.16,0-.231-.045a.321.321,0,0,0-.148-.218c-.051-.039-.119.012-.177.009l-.1.039" transform="translate(-257.943 -72.807)" fill="#fff" fill-rule="evenodd"/>
      <path id="Path_995" data-name="Path 995" d="M303.14,56.708a1.659,1.659,0,0,0,.475.407.761.761,0,0,0,.456.045,2.956,2.956,0,0,1-.379-.375c-.045-.064-.055-.145-.116-.2A.9.9,0,0,0,303.14,56.708Z" transform="translate(-260.389 -48.602)" fill="#fff" fill-rule="evenodd"/>
      <path id="Path_996" data-name="Path 996" d="M304.4,48.255c.148.183.376.109.584.116v-.023l-.321-.27a.849.849,0,0,0-.263.177" transform="translate(-261.468 -41.298)" fill="#fff" fill-rule="evenodd"/>
      <path id="Path_997" data-name="Path 997" d="M262.466,24.449l.186.578c0-.327.148-.6.116-.934l.138-.206-.292.09a1.083,1.083,0,0,0-.147.472" transform="translate(-225.452 -20.518)" fill="#fff" fill-rule="evenodd"/>
      <path id="Path_998" data-name="Path 998" d="M263.354,17.586l.254-.147v-.376a1.356,1.356,0,0,0-.247.259Z" transform="translate(-226.214 -14.657)" fill="#fff" fill-rule="evenodd"/>
      <path id="Path_999" data-name="Path 999" d="M269.253,9.212a.355.355,0,0,1-.231.115,1.093,1.093,0,0,0,.093-.87,1.31,1.31,0,0,0,.215-.077l-.007-.007.177-.154c.235-.16.144-.465.231-.693-.115-.179-.151-.4-.318-.549l.01-.006c-.132-.167-.369-.148-.549-.231-.238-.08-.421.083-.592.192-.074.013-.029.109-.109.106a3.3,3.3,0,0,0-.132.379,1.284,1.284,0,0,0-.915.17,1.335,1.335,0,0,0-.456-.164c-.116-.023-.247.019-.331-.045-.122-.137-.148-.388-.357-.423-.074-.026-.089-.106-.089-.177-.138-.023-.261-.087-.4-.115-.206-.093-.369.055-.523.154a1.564,1.564,0,0,0-.209.077,3.039,3.039,0,0,0-.3.562,1.182,1.182,0,0,0,.177.446.909.909,0,0,0,.5.456,1.886,1.886,0,0,0,0,1.017l-.005,0-.01.01a.17.17,0,0,1-.089-.01h0a1.407,1.407,0,0,0,.424.805c.084.029.064.129.1.192a.15.15,0,0,1,.017.115,2.527,2.527,0,0,0-1.35.337c-.1.051-.058.192-.067.292a2.477,2.477,0,0,1,.925-.385,1.414,1.414,0,0,1,.446-.006l.016.277a4.072,4.072,0,0,0-1.127.642,1.258,1.258,0,0,0,.016.3l.293-.237a3.47,3.47,0,0,1,.9-.517,1.141,1.141,0,0,0,.293.276,2.166,2.166,0,0,1,.633-.276c.119-.071.309-.006.385-.147l.054-.292c-.009-.007-.016-.02-.032-.017a.441.441,0,0,1-.237-.413.422.422,0,0,1-.17.044c-.051-.012-.1-.025-.122-.077,0-.064-.036-.16.029-.208a1.243,1.243,0,0,1,.742-.116c.2.026.478.016.546.247-.01.068,0,.142-.071.186s-.151,0-.215-.032a.533.533,0,0,1-.314.385l.022.186c.022.084.029.222.161.192a2.839,2.839,0,0,1,.842.4,1.908,1.908,0,0,0,.224-.286,4.222,4.222,0,0,1,1.279.848l.015-.27a4.372,4.372,0,0,0-1.217-.747,1.7,1.7,0,0,0,.039-.264,3.162,3.162,0,0,1,1.416.433l-.006-.231a3.142,3.142,0,0,0-1.458-.4.157.157,0,0,1-.023-.1.713.713,0,0,0,.5-.539c.132-.15.322-.314.277-.539.006-.019.012-.038.019-.058A.271.271,0,0,0,269.253,9.212Z" transform="translate(-226.904 -5.699)" fill="#fff" fill-rule="evenodd"/>
      <path id="Path_1000" data-name="Path 1000" d="M303.461,26.033l.263-.084.029-.147c.074-.215-.084-.376-.161-.546Z" transform="translate(-260.665 -21.694)" fill="#fff" fill-rule="evenodd"/>
      <path id="Path_1001" data-name="Path 1001" d="M308.164,35.626c.125.138.247.359.469.292a1.407,1.407,0,0,0-.1-.254c-.058-.067-.078-.26-.193-.192-.087-.058-.109-.154-.164-.231A2.286,2.286,0,0,0,308.164,35.626Z" transform="translate(-264.703 -30.271)" fill="#fff" fill-rule="evenodd"/>
      <path id="Path_1002" data-name="Path 1002" d="M308.494,44.258c.048.067.062.154.109.215a.525.525,0,0,0,.322.038c.1-.023.157.083.247.022-.112-.071-.18-.2-.285-.292-.126-.1-.26-.012-.393.016" transform="translate(-264.988 -37.962)" fill="#fff" fill-rule="evenodd"/>
      <path id="Path_1003" data-name="Path 1003" d="M309.37,54.093a1.239,1.239,0,0,0,.8.215c.032-.016.087-.013.093-.051a4.935,4.935,0,0,0-.568-.286c-.106-.164-.244.042-.379.029,0,.038.041.067.055.093" transform="translate(-265.694 -46.305)" fill="#fff" fill-rule="evenodd"/>
      <path id="Path_1004" data-name="Path 1004" d="M314.433,75.31l.048.1c.049.334.26.642.145,1.007.1.068.125.18.187.27h.016a2.156,2.156,0,0,0-.016-.847C314.841,75.589,314.584,75.442,314.433,75.31Z" transform="translate(-270.09 -64.689)" fill="#fff" fill-rule="evenodd"/>
      <path id="Path_1005" data-name="Path 1005" d="M314.827,51.074a.72.72,0,0,0,.626.077,1.961,1.961,0,0,1-.357-.231Z" transform="translate(-270.428 -43.739)" fill="#fff" fill-rule="evenodd"/>
      <path id="Path_1006" data-name="Path 1006" d="M320.436,57.294a.351.351,0,0,0,.17.315.735.735,0,0,0,.1-.238.593.593,0,0,0-.231-.357A.8.8,0,0,0,320.436,57.294Z" transform="translate(-275.244 -48.974)" fill="#fff" fill-rule="evenodd"/>
      <path id="Path_1007" data-name="Path 1007" d="M320.5,67.015c-.023.15.144.17.215.253s-.038.119-.038.186a.866.866,0,0,1,.193.545,5.359,5.359,0,0,0,.148-.583c-.013-.142-.237-.112-.2-.27a.692.692,0,0,0-.055-.463c-.012-.022-.042-.067-.067-.054-.058.131-.2.224-.193.385" transform="translate(-275.303 -57.232)" fill="#fff" fill-rule="evenodd"/>
      <path id="Path_1008" data-name="Path 1008" d="M323.637,61.262l.167.324c.074-.01.122-.08.18-.132.045-.135-.074-.222-.109-.331-.029-.077,0-.179-.055-.247-.042-.026-.09-.068-.138-.055Z" transform="translate(-277.996 -52.242)" fill="#fff" fill-rule="evenodd"/>
      <path id="Path_1009" data-name="Path 1009" d="M325.158,57.9a.937.937,0,0,1,.354.337c.112.328.292.622.424.94.048.221.087.419.148.637.023.058.01.17.1.16.025-.244.073-.478.077-.731a.944.944,0,0,0-.286-.215v-.023c.013-.054.058-.119.125-.109.028-.032.116-.064.077-.122-.167-.167-.158-.453-.424-.505a.243.243,0,0,1-.125-.224A.763.763,0,0,0,325.158,57.9Z" transform="translate(-279.302 -49.737)" fill="#fff" fill-rule="evenodd"/>
      <path id="Path_1010" data-name="Path 1010" d="M326.183,67.711c.163.15.106.369.093.571-.026.122.128.051.177.116a.7.7,0,0,1,.007.523,3.128,3.128,0,0,0,.253-.392c0-.054.068-.08.064-.148.028-.093-.08-.051-.126-.061s-.08-.035-.067-.087a.787.787,0,0,0-.026-.513c-.038-.132.017-.308-.045-.424-.1.142-.408.174-.331.414" transform="translate(-280.172 -57.806)" fill="#fff" fill-rule="evenodd"/>
      <path id="Path_1011" data-name="Path 1011" d="M328.374,54.052c.286.289.5.579.8.859a3.433,3.433,0,0,0-.016-.363.848.848,0,0,0-.2-.215C328.734,54.31,328.615,54,328.374,54.052Z" transform="translate(-282.065 -46.424)" fill="#fff" fill-rule="evenodd"/>
      <path id="Path_1012" data-name="Path 1012" d="M333.677,64.632a.439.439,0,0,0,.033.083,4.228,4.228,0,0,1,.331.639c-.026-.238.135-.533-.078-.716-.028-.077-.124-.051-.186-.045Z" transform="translate(-286.62 -55.476)" fill="#fff" fill-rule="evenodd"/>
      <path id="Path_1013" data-name="Path 1013" d="M339.146,79.244c.09.042.206-.032.292-.083a.265.265,0,0,1,.209.068c.025.051,0,.1.01.148a1.952,1.952,0,0,1,.552.237l.054-.054a.378.378,0,0,0-.2-.315c-.067-.038-.167-.016-.215-.077a.332.332,0,0,0,.029-.186.466.466,0,0,1-.26-.083c-.055-.016-.1-.061-.148,0C339.31,79.007,339.3,79.167,339.146,79.244Z" transform="translate(-291.318 -67.745)" fill="#fff" fill-rule="evenodd"/>
      <path id="Path_1014" data-name="Path 1014" d="M340.593,49.66a.582.582,0,0,0,.231-.1c.215-.2.527-.064.778-.067a1.742,1.742,0,0,0-.177-.247.739.739,0,0,0-.276-.077c-.219-.129-.366.087-.533.192A.355.355,0,0,0,340.593,49.66Z" transform="translate(-292.54 -42.198)" fill="#fff" fill-rule="evenodd"/>
      <path id="Path_1015" data-name="Path 1015" d="M340.635,53.984c0-.01,0-.02.01-.022.029.025,0,.087.045.1a1.9,1.9,0,0,0,.238-.154c.215,0,.344-.209.555-.209a3.216,3.216,0,0,1,1.012.308.694.694,0,0,0-.385-.491.264.264,0,0,0-.257.077c-.215.135-.1-.2-.253-.2a1.59,1.59,0,0,1-.617.109c-.129.049-.219.167-.363.154a.838.838,0,0,0,.016.331" transform="translate(-292.576 -45.861)" fill="#fff" fill-rule="evenodd"/>
      <path id="Path_1016" data-name="Path 1016" d="M341.536,59.574c.067.071.18.058.276.071l.279-.11c0-.05-.083-.064-.064-.122.077-.087.183-.025.279-.061.135-.019.273-.154.408-.055,0,.016.006.038-.007.055-.041.1.029.16.106.2.158.029.3.174.462.109a2.891,2.891,0,0,0-.083-.379c-.132-.022-.225-.131-.347-.177a.263.263,0,0,1-.193.083c-.247-.058-.543-.212-.794-.055-.09.109-.251.077-.373.125a1.456,1.456,0,0,0,.049.314" transform="translate(-293.329 -50.736)" fill="#fff" fill-rule="evenodd"/>
      <path id="Path_1017" data-name="Path 1017" d="M342.391,74.875c-.019.054-.074.144.026.17.205.006.469-.1.63.061.055.042.028.129.025.183l.27.225a2.371,2.371,0,0,0,.078-.4.45.45,0,0,0-.164-.269c-.177,0-.279-.207-.469-.181-.1-.022-.186.066-.286.066A1.677,1.677,0,0,0,342.391,74.875Z" transform="translate(-294.077 -64.13)" fill="#fff" fill-rule="evenodd"/>
      <path id="Path_1018" data-name="Path 1018" d="M343.047,64.422c.041.087.09.228.17.237a.917.917,0,0,1,.678-.044c.07.012.07.093.055.144.109.064.241.115.356.186l-.032-.193c-.007-.208-.27-.227-.286-.433a1.268,1.268,0,0,0-.684-.038c-.074.067-.18.058-.27.077C343.028,64.383,343.043,64.4,343.047,64.422Z" transform="translate(-294.656 -55.189)" fill="#fff" fill-rule="evenodd"/>
      <path id="Path_1019" data-name="Path 1019" d="M343.518,69.695c.125-.036.206-.173.341-.186a.629.629,0,0,1,.517.264c.077.05.061.182.161.182a3.1,3.1,0,0,1,.015-.462c-.134-.224-.468-.051-.594-.314l-.238.016c-.171.042-.125.241-.148.376C343.554,69.611,343.516,69.644,343.518,69.695Z" transform="translate(-295.073 -59.422)" fill="#fff" fill-rule="evenodd"/>
      <path id="Path_1020" data-name="Path 1020" d="M351.882,81.153c.1.2.318.35.34.577a1.042,1.042,0,0,0,.122-.2c0-.064-.077-.064-.106-.115-.029-.083.016-.157.028-.231a.63.63,0,0,0-.254-.3Z" transform="translate(-302.258 -69.476)" fill="#fff" fill-rule="evenodd"/>
      <path id="Path_1021" data-name="Path 1021" d="M354.683,77.149l.231.315a.829.829,0,0,0,.061-.578c-.022-.036-.064-.093-.122-.067-.087.089-.1.228-.17.33" transform="translate(-304.664 -65.98)" fill="#fff" fill-rule="evenodd"/>
      <path id="Path_1022" data-name="Path 1022" d="M348.007,15.613a.669.669,0,0,0,.264.087.332.332,0,0,1,.237-.038c.119.077.263-.016.4-.01a1.485,1.485,0,0,0-.4-.254c-.18.038-.324.167-.5.215" transform="translate(-298.929 -13.226)" fill="#fff" fill-rule="evenodd"/>
      <path id="Path_1023" data-name="Path 1023" d="M356.913,18.547c.17.016.293.167.408.292a.573.573,0,0,1,.34.231l-.054-.17a1.093,1.093,0,0,0-.254-.437,1.265,1.265,0,0,0-.44.084" transform="translate(-306.579 -15.859)" fill="#fff" fill-rule="evenodd"/>
      <path id="Path_1024" data-name="Path 1024" d="M269.194,9.078l.093.01c.25.125.654.19.678.552a1.973,1.973,0,0,0-.7.439c-.154-.157-.465-.071-.517-.346.049-.261.141-.588.447-.655" transform="translate(-230.847 -7.798)" fill="#f60" fill-rule="evenodd"/>
      <path id="Path_1025" data-name="Path 1025" d="M273.332,20.557c.292-.026.575.015.877-.01a.385.385,0,0,1,.186.17c-.01.347-.116.677-.132,1.033a.474.474,0,0,0-.293.308,2.534,2.534,0,0,0-.341.16.341.341,0,0,1,.049-.363c.125-.176.45-.135.424-.414.083-.134,0-.308.006-.449-.032-.106-.064.035-.115.032a.417.417,0,0,1-.3-.023c-.068-.071-.15-.129-.17-.224a.525.525,0,0,1-.241-.208Z" transform="translate(-234.744 -17.649)" fill="#f60" fill-rule="evenodd"/>
      <path id="Path_1026" data-name="Path 1026" d="M276.072,35.4c.137.02.282-.042.4.026-.025.045-.093.064-.147.077l-.216.1c-.08-.019-.035-.147-.038-.2" transform="translate(-237.13 -30.405)" fill="#f60" fill-rule="evenodd"/>
      <path id="Path_1027" data-name="Path 1027" d="M278.435,15.811c.138-.045.286-.137.434-.093a2.1,2.1,0,0,0-.27.372l-.44-.01a.623.623,0,0,1,.276-.27" transform="translate(-238.931 -13.491)" fill="#f60" fill-rule="evenodd"/>
      <path id="Path_1028" data-name="Path 1028" d="M287.708,15.638c.183-.032.173.205.34.214.029.038.071.074.055.132a2.768,2.768,0,0,1-.347.045c-.145-.08-.051-.331-.279-.314-.013-.019-.038-.058-.007-.071a.541.541,0,0,1,.238-.006" transform="translate(-246.917 -13.424)" fill="#f60" fill-rule="evenodd"/>
      <path id="Path_1029" data-name="Path 1029" d="M288.2,20.917a.439.439,0,0,1,.318-.144l.832.015c.035.033-.032.061-.032.1-.051.048-.125.061-.17.106-.109,0-.1.132-.176.187-.119.119-.293.064-.431.045a.378.378,0,0,1-.126-.138l-.038.038c.048.18.036.379.071.562l.2.132c0,.295.35.215.5.379a.884.884,0,0,1-.183.286,1.091,1.091,0,0,0-.408-.247c-.013-.172-.2-.276-.308-.362-.029-.315-.036-.636-.087-.941Z" transform="translate(-247.524 -17.843)" fill="#f60" fill-rule="evenodd"/>
      <path id="Path_1030" data-name="Path 1030" d="M290.265,35.831h.386l-.049.2-.386-.164C290.207,35.837,290.242,35.828,290.265,35.831Z" transform="translate(-249.287 -30.777)" fill="#f60" fill-rule="evenodd"/>
      <path id="Path_1031" data-name="Path 1031" d="M293.982,9.511l.286-.09a2.887,2.887,0,0,1,.469.282,1.129,1.129,0,0,1,.045.757c-.087.1-.276,0-.347.154h-.013a1.4,1.4,0,0,0-.687-.709A.594.594,0,0,1,293.982,9.511Z" transform="translate(-252.311 -8.092)" fill="#f60" fill-rule="evenodd"/>
    </g>
  </g>
</svg>
