<svg xmlns="http://www.w3.org/2000/svg" width="55" height="35" viewBox="0 0 55 35">
  <g id="twisto" transform="translate(-118.635 -412.084)">
    <rect id="_55x35" data-name="55x35" width="55" height="35" transform="translate(118.635 412.084)" fill="#fff" opacity="0"/>
    <g id="Group_506" data-name="Group 506" transform="translate(-1)">
      <path id="Path_804" data-name="Path 804" d="M119.635,421.438h10.857v16.406h-5.416V426.9h-5.441Z" transform="translate(0 0)" fill="#4f008c"/>
      <path id="Path_805" data-name="Path 805" d="M528.465,506.666q-.246.9-.491,1.8c-.16.594-.318,1.188-.487,1.819-.485,0-.971.005-1.457-.007-.056,0-.14-.094-.16-.16-.6-1.955-1.185-3.912-1.792-5.926.546,0,1.06-.008,1.574.01.061,0,.146.132.17.217.322,1.122.634,2.247.951,3.37.016.057.046.11.1.243l.514-1.973c.142-.544.29-1.087.42-1.634.041-.174.106-.252.3-.241.338.021.761-.1.992.064.21.147.219.589.305.9.253.931.5,1.864.775,2.892.1-.333.189-.578.259-.828.256-.92.514-1.84.756-2.763a.3.3,0,0,1,.35-.268c.434.013.869,0,1.357,0-.128.441-.242.843-.363,1.243q-.692,2.3-1.386,4.594c-.054.181-.127.282-.347.268a9.758,9.758,0,0,0-1.052,0c-.2.008-.273-.061-.322-.252-.291-1.126-.6-2.248-.9-3.371Z" transform="translate(-378.63 -77.445)" fill="#4f008c"/>
      <path id="Path_806" data-name="Path 806" d="M887.951,505.408a3.186,3.186,0,1,1-3.206-3.2A3.212,3.212,0,0,1,887.951,505.408Zm-3.172-1.568a1.591,1.591,0,0,0-1.577,1.546,1.558,1.558,0,1,0,3.116.009A1.6,1.6,0,0,0,884.778,503.84Z" transform="translate(-713.315 -75.613)" fill="#4f008c"/>
      <path id="Path_807" data-name="Path 807" d="M294.261,427a5.447,5.447,0,0,1-5.431-5.435h5.431Z" transform="translate(-158.393 -0.124)" fill="#1da43d"/>
      <path id="Path_808" data-name="Path 808" d="M725.594,503.871c-.518,0-1,0-1.491-.005a.27.27,0,0,1-.17-.115,1.037,1.037,0,0,0-1.417-.339.614.614,0,0,0-.278.445.575.575,0,0,0,.325.408c.428.151.889.206,1.318.355a3.68,3.68,0,0,1,1.223.564,1.743,1.743,0,0,1-.468,2.873,3.412,3.412,0,0,1-3.613-.416,2,2,0,0,1-.579-1.2c.527,0,1.035,0,1.543.006.059,0,.134.077.173.138a1.214,1.214,0,0,0,1.48.454.532.532,0,0,0,.361-.512.449.449,0,0,0-.374-.455c-.5-.136-1.015-.23-1.512-.379a2.844,2.844,0,0,1-.922-.4,1.764,1.764,0,0,1,.161-2.794,3.123,3.123,0,0,1,3.546.119A2.2,2.2,0,0,1,725.594,503.871Z" transform="translate(-562.465 -75.416)" fill="#4f008c"/>
      <path id="Path_809" data-name="Path 809" d="M456.464,481.582h-1.313v.8c0,.564,0,1.127,0,1.691,0,.784.462,1.091,1.2.8.057-.023.116-.042.206-.074,0,.449.009.872-.008,1.295a.3.3,0,0,1-.165.224,2.712,2.712,0,0,1-2.183-.21,1.57,1.57,0,0,1-.707-1.388c-.031-.988-.015-1.978-.019-2.966,0-.042-.007-.083-.014-.161h-.9v-1.369h.9v-1.673h1.674V480.2h1.324Z" transform="translate(-311.679 -53.469)" fill="#4f008c"/>
      <path id="Path_810" data-name="Path 810" d="M814.161,480.264H815.5v1.362h-1.3c0,.958-.021,1.88.009,2.8.014.431.275.622.708.594a4.889,4.889,0,0,0,.668-.136c0,.42.009.844-.008,1.267a.3.3,0,0,1-.166.223,2.684,2.684,0,0,1-2.207-.229,1.59,1.59,0,0,1-.683-1.4c-.024-1.019-.007-2.038-.007-3.093h-.921v-1.381h.9v-1.662h1.673Z" transform="translate(-647.795 -53.522)" fill="#4f008c"/>
      <path id="Path_811" data-name="Path 811" d="M677.149,504.867h1.64v6.1h-1.64Z" transform="translate(-521.933 -78.105)" fill="#4f008c"/>
      <path id="Path_812" data-name="Path 812" d="M678.693,465.888a.838.838,0,0,1-.841.859.873.873,0,0,1-.824-.854.843.843,0,0,1,.817-.85A.83.83,0,0,1,678.693,465.888Z" transform="translate(-521.82 -40.822)" fill="#4f008c"/>
    </g>
  </g>
</svg>
