<svg xmlns="http://www.w3.org/2000/svg" width="55" height="35" viewBox="0 0 55 35">
  <g id="Google_pay" data-name="Google pay" transform="translate(-196 -1064)">
    <rect id="_55x35" data-name="55x35" width="55" height="35" transform="translate(196 1064)" fill="#fff" opacity="0"/>
    <g id="Group_523" data-name="Group 523" transform="translate(196 1070)">
      <path id="Path_1084" data-name="Path 1084" d="M192.128,19.406v6.4H190.1V10h5.387a4.871,4.871,0,0,1,3.488,1.369,4.4,4.4,0,0,1,1.457,3.337,4.38,4.38,0,0,1-1.457,3.356,4.856,4.856,0,0,1-3.488,1.346h-3.356Zm0-7.462v5.519h3.406a2.751,2.751,0,0,0,2.063-4.628l-.054-.054a2.649,2.649,0,0,0-2.01-.839h-3.406Z" transform="translate(-166.117 -8.736)" fill="#5f6368"/>
      <path id="Path_1085" data-name="Path 1085" d="M276.367,46.785a5.036,5.036,0,0,1,3.555,1.2,4.266,4.266,0,0,1,1.3,3.3v6.667h-1.943v-1.5h-.088a3.88,3.88,0,0,1-3.356,1.854,4.362,4.362,0,0,1-2.991-1.06,3.383,3.383,0,0,1-1.2-2.649,3.212,3.212,0,0,1,1.269-2.671,5.366,5.366,0,0,1,3.388-.994,6,6,0,0,1,2.98.662v-.464a2.312,2.312,0,0,0-.839-1.8,2.876,2.876,0,0,0-1.96-.74,3.109,3.109,0,0,0-2.693,1.436L272,48.9a4.978,4.978,0,0,1,4.368-2.119m-2.628,7.859a1.622,1.622,0,0,0,.674,1.325,2.477,2.477,0,0,0,1.578.53,3.238,3.238,0,0,0,2.285-.949,2.968,2.968,0,0,0,1.009-2.229,4.149,4.149,0,0,0-2.649-.757,3.434,3.434,0,0,0-2.064.6A1.779,1.779,0,0,0,273.74,54.644Z" transform="translate(-237.376 -40.883)" fill="#5f6368"/>
      <path id="Path_1086" data-name="Path 1086" d="M361.038,49.585l-6.782,15.586h-2.1l2.517-5.453-4.459-10.132h2.208l3.223,7.771h.044l3.135-7.771Z" transform="translate(-306.038 -43.33)" fill="#5f6368"/>
      <path id="Path_1087" data-name="Path 1087" d="M80.719,60.852a10.827,10.827,0,0,0-.156-1.847H72v3.5H76.9a4.2,4.2,0,0,1-1.814,2.76v2.271h2.928a8.882,8.882,0,0,0,2.7-6.682" transform="translate(-62.915 -51.562)" fill="#4285f4"/>
      <path id="Path_1088" data-name="Path 1088" d="M15.782,93.129a8.693,8.693,0,0,0,6.02-2.192l-2.928-2.271a5.509,5.509,0,0,1-8.191-2.881H7.667v2.34a9.083,9.083,0,0,0,8.115,5" transform="translate(-6.7 -74.963)" fill="#34a853"/>
      <path id="Path_1089" data-name="Path 1089" d="M3.984,45.492a5.443,5.443,0,0,1,0-3.477v-2.34H.968a9.083,9.083,0,0,0,0,8.157Z" transform="translate(0 -34.67)" fill="#fbbc04"/>
      <path id="Path_1090" data-name="Path 1090" d="M15.782,3.6a4.931,4.931,0,0,1,3.484,1.362l2.592-2.592A8.727,8.727,0,0,0,15.782,0a9.083,9.083,0,0,0-8.115,5l3.016,2.34a5.433,5.433,0,0,1,5.1-3.749" transform="translate(-6.7 0)" fill="#ea4335"/>
    </g>
  </g>
</svg>
