<svg xmlns="http://www.w3.org/2000/svg" xmlns:xlink="http://www.w3.org/1999/xlink" width="55" height="35" viewBox="0 0 55 35">
  <defs>
    <linearGradient id="linear-gradient" x1="1.037" y1="0.5" x2="0" y2="0.5" gradientUnits="objectBoundingBox">
      <stop offset="0" stop-color="#721639"/>
      <stop offset="1" stop-color="#501726"/>
    </linearGradient>
  </defs>
  <g id="Alior" transform="translate(-193 -703)">
    <rect id="_55x35" data-name="55x35" width="55" height="35" transform="translate(193 703)" fill="#fff" opacity="0"/>
    <rect id="Rectangle_231" data-name="Rectangle 231" width="23" height="23" transform="translate(220 704)" fill="url(#linear-gradient)"/>
    <rect id="Rectangle_225" data-name="Rectangle 225" width="46" height="10" transform="translate(197.001 728)" fill="#631631"/>
    <g id="Group_566" data-name="Group 566" transform="translate(203.001 731.001)">
      <path id="Path_1114" data-name="Path 1114" d="M0,3.91V.152H1.666a2.22,2.22,0,0,1,.764.1.837.837,0,0,1,.418.358A1.067,1.067,0,0,1,3,1.178a.946.946,0,0,1-.259.674,1.313,1.313,0,0,1-.8.349,1.294,1.294,0,0,1,.3.187,2.576,2.576,0,0,1,.413.5L3.312,3.91H2.687l-.5-.782q-.218-.339-.359-.518a1.129,1.129,0,0,0-.252-.251.752.752,0,0,0-.227-.1,1.509,1.509,0,0,0-.277-.018H.5V3.91Zm.5-2.1H1.566A1.608,1.608,0,0,0,2.1,1.74a.567.567,0,0,0,.292-.226.611.611,0,0,0,.1-.337A.559.559,0,0,0,2.3.739.9.9,0,0,0,1.687.567H.5Z" transform="translate(0 -0.085)" fill="#fecc00"/>
      <path id="Path_1115" data-name="Path 1115" d="M7.945,3.911,9.388.153h.536l1.538,3.758H10.9l-.438-1.138H8.886L8.474,3.911ZM9.03,2.368H10.3L9.912,1.327Q9.732.852,9.645.548a4.726,4.726,0,0,1-.2.718Z" transform="translate(-4.469 -0.086)" fill="#fecc00"/>
      <path id="Path_1116" data-name="Path 1116" d="M16.836,3.91V.6H15.6V.152h2.979V.6H17.333V3.91Z" transform="translate(-8.774 -0.085)" fill="#fecc00"/>
      <path id="Path_1117" data-name="Path 1117" d="M24.369,3.91V2.318L22.92.152h.605l.741,1.133q.2.318.382.636.169-.295.41-.664L25.786.152h.579l-1.5,2.166V3.91Z" transform="translate(-12.892 -0.085)" fill="#fecc00"/>
      <path id="Path_1118" data-name="Path 1118" d="M35.067,1.994a2.041,2.041,0,0,1,.5-1.465A1.706,1.706,0,0,1,36.866,0,1.8,1.8,0,0,1,37.8.249a1.623,1.623,0,0,1,.637.693,2.252,2.252,0,0,1,.219,1.009,2.218,2.218,0,0,1-.231,1.023,1.575,1.575,0,0,1-.654.683,1.863,1.863,0,0,1-.912.232,1.778,1.778,0,0,1-.949-.256,1.65,1.65,0,0,1-.634-.7,2.123,2.123,0,0,1-.215-.938M35.58,2a1.5,1.5,0,0,0,.365,1.07,1.274,1.274,0,0,0,1.841,0,1.6,1.6,0,0,0,.363-1.12,1.927,1.927,0,0,0-.155-.8,1.19,1.19,0,0,0-.454-.531,1.23,1.23,0,0,0-.67-.189,1.273,1.273,0,0,0-.909.363A1.621,1.621,0,0,0,35.58,2" transform="translate(-19.725 0)" fill="#fecc00"/>
      <path id="Path_1119" data-name="Path 1119" d="M44.976,3.91V.152h.51L47.46,3.1V.152h.477V3.91h-.51L45.452.957V3.91Z" transform="translate(-25.299 -0.085)" fill="#fecc00"/>
      <path id="Path_1120" data-name="Path 1120" d="M53.846,3.91V.152h.5V3.467h1.851V3.91Z" transform="translate(-30.288 -0.085)" fill="#fecc00"/>
      <rect id="Rectangle_226" data-name="Rectangle 226" width="0.497" height="3.758" transform="translate(26.688 0.067)" fill="#fecc00"/>
      <path id="Path_1121" data-name="Path 1121" d="M64.369,3.91V.152h.51L66.853,3.1V.152h.477V3.91h-.51L64.846.957V3.91Z" transform="translate(-36.207 -0.085)" fill="#fecc00"/>
      <path id="Path_1122" data-name="Path 1122" d="M73.311,3.91V.152h2.717V.6h-2.22V1.747h2.079v.441H73.808V3.467h2.307V3.91Z" transform="translate(-41.237 -0.085)" fill="#fecc00"/>
    </g>
    <g id="Group_562" data-name="Group 562" transform="translate(222.069 715.279)">
      <path id="Path_1107" data-name="Path 1107" d="M1233,510.169a1.438,1.438,0,0,0,1.386,1.566,1.27,1.27,0,0,0,.8-.284,1.412,1.412,0,0,0,.472-1.148,1.439,1.439,0,0,0-1.4-1.6,1.309,1.309,0,0,0-1.259,1.463m3.539.025a2.058,2.058,0,0,1-2.293,2.021,2.231,2.231,0,0,1-1.475-.484,1.939,1.939,0,0,1-.655-1.483,1.829,1.829,0,0,1,.739-1.512,2.418,2.418,0,0,1,1.56-.509,1.935,1.935,0,0,1,2.124,1.967" transform="translate(-1222.347 -508.139)" fill="#fff" fill-rule="evenodd"/>
      <path id="Path_1108" data-name="Path 1108" d="M1397.618,511.391c.32.013.393.013.44.013.636,0,.926-.224.926-.713a.567.567,0,0,0-.369-.587,1.464,1.464,0,0,0-.562-.066c-.162,0-.194,0-.435.006Zm-.841-1.784c.962-.017,1.44-.029,1.44-.029a2.087,2.087,0,0,1,1.173.2.948.948,0,0,1,.478.858,1.165,1.165,0,0,1-.973,1.061c.532,1.1.973,1.457,1.451,1.421l.019.03-.062.241c-.018.079-.181.122-.471.122a1.287,1.287,0,0,1-1.114-.623,7.535,7.535,0,0,1-.592-1.072c-.109.006-.187.013-.308.013-.067,0-.117,0-.2-.007v1.615h-.841Z" transform="translate(-1381.676 -509.447)" fill="#fff" fill-rule="evenodd"/>
      <path id="Path_1109" data-name="Path 1109" d="M959.656,678.817a1.442,1.442,0,0,0,.936-.229.736.736,0,0,0,.271-.58.7.7,0,0,0-.4-.663,2,2,0,0,0-.826-.121h-.5v1.587Zm-.017-1.895c.379,0,.53-.037.675-.163a.652.652,0,0,0,.217-.518.626.626,0,0,0-.261-.551,1.06,1.06,0,0,0-.578-.114c-.164,0-.235,0-.562.024v1.321Zm-.979-1.623.591-.011c.218-.006.392-.006.483-.006a1.448,1.448,0,0,1,1.026.241.863.863,0,0,1,.284.646.8.8,0,0,1-.609.807,1.213,1.213,0,0,1,.537.187.956.956,0,0,1,.4.8,1.1,1.1,0,0,1-.646,1,2.846,2.846,0,0,1-1.255.163h-.815Z" transform="translate(-957.742 -669.786)" fill="#f1bd0e" fill-rule="evenodd"/>
      <path id="Path_1110" data-name="Path 1110" d="M1056.069,676.317l-.753,1.8h1.424Zm.273-.5,1.478,3.825h-.514l-.451-1.237h-1.666l-.513,1.237h-.484l1.775-3.825Z" transform="translate(-1050.182 -670.308)" fill="#f1bd0e" fill-rule="evenodd"/>
      <path id="Path_1111" data-name="Path 1111" d="M1185.833,675.821l2.608,3.041-.086-3.041h.423l-.006,3.808-.205.072-2.758-3.186.089,3.131h-.422v-3.825Z" transform="translate(-1177.216 -670.308)" fill="#f1bd0e" fill-rule="evenodd"/>
      <path id="Path_1112" data-name="Path 1112" d="M1330.365,675.821l-1.962,1.7,2.053,2.125h-.665l-1.944-2.046,1.907-1.779Zm-3.017,0h.471v3.825h-.471Zm.471,0h0Z" transform="translate(-1314.494 -670.308)" fill="#f1bd0e" fill-rule="evenodd"/>
      <path id="Path_1113" data-name="Path 1113" d="M931.607,508.136l.668-1.666.615,1.666Zm1.087-2.616h-1.3l-.042.037s-.1.323-.108.4c.012.154.74.014.74.014l-1.684,3.544h.738l.387-.945h1.637l.345.945h.924Z" transform="translate(-930.305 -505.52)" fill="#fff" fill-rule="evenodd"/>
    </g>
    <rect id="Rectangle_224" data-name="Rectangle 224" width="0.841" height="3.836" transform="translate(230.079 715.439)" fill="#fff"/>
    <rect id="Rectangle_228" data-name="Rectangle 228" width="22.893" height="22.893" transform="translate(219.939 704.016)" fill="none"/>
    <path id="Path_1106" data-name="Path 1106" d="M1077.7,510.461v3.328h1.778v.507h-2.619v-3.836Z" transform="translate(-850.05 204.978)" fill="#fff" fill-rule="evenodd"/>
    <rect id="Rectangle_230" data-name="Rectangle 230" width="23" height="23" transform="translate(197 704)" fill="#fecc00"/>
    <path id="Path_1144" data-name="Path 1144" d="M169.919,180.02h.558c-.432-.041-.733-.058-.733-.058l.175.058m.847-.153c.308.058.634.046.971.083.26.029.527.051.8.07h6l.15-.013h.007l.093-.01v-.181c-.734.006-1.647.028-2.374.092q-.416,0-.8,0c-1.641,0-2.916-.056-3.845-.123-.381-.027-.706-.117-.974-.146-.663-.068-1.148-.085-1.148-.085s.782.245,1.126.308m-.049-.418c.418.07.864.063,1.333.1.8.068,1.654.093,2.492.093.364,0,.724,0,1.075-.013.289.02.7.038,1.2.038h.493c.437-.01.931-.035,1.472-.084v-.17c-.876,0-2.012.016-2.881.082h-.45c-1.386,0-2.508-.041-3.379-.1-.549-.034-1-.131-1.355-.168-.694-.07-1.219-.09-1.219-.09s.845.245,1.216.308m.012-.381c.486.075,1.01.07,1.554.107.742.049,1.519.068,2.28.068.407,0,.809-.006,1.2-.015.29.018.675.033,1.14.033h.229c.286,0,.6-.012.935-.028h.039q.325-.017.68-.044V179h-.139c-.808,0-1.758.021-2.538.072h0l-.04,0h-.053l-.044,0h0l-.022,0h-.263l-.021,0h-.255c-1.231,0-2.254-.033-3.078-.076-.648-.034-1.175-.134-1.588-.175-.784-.075-1.391-.112-1.391-.112s.964.26,1.379.323m0-.4a19.215,19.215,0,0,0,2.027.158c.525.026,1.06.036,1.589.036.374,0,.745-.005,1.106-.014.252.017.581.032.975.032h.222a17.76,17.76,0,0,0,2.137-.162v-.157c-.934.013-2.305.049-3.258.143h-.318c-.92,0-1.724-.019-2.415-.049-.838-.036-1.508-.148-2.027-.2-.93-.095-1.566-.141-1.566-.141s1.044.279,1.53.354m.024-.393a22.452,22.452,0,0,0,2.629.163c.345.011.69.015,1.031.015h.28c.376.023.9.044,1.518.044h.954l.2-.008h.011c.447-.02.921-.052,1.408-.1v-.178l-.244.011h-.02l-.793.036-1.854.085q-.346,0-.674,0c-.641,0-1.229-.01-1.759-.03-1.129-.039-2.015-.172-2.675-.248-1.024-.114-1.651-.136-1.651-.136s1.093.277,1.639.362m.622-.289c1.263.113,2.446.154,3.5.154,1.24,0,2.3-.057,3.115-.123.119.008.259.013.42.013h.038c.1,0,.215,0,.335-.008v-.234c-.421.033-.829.075-1.154.13h0l-.009,0h0l-.018,0h0l-.036.006h-.1l.007,0c-.808.037-1.547.058-2.238.058l-.384,0c-1.6-.163-1.127-.119-2.372-.194-1.857-.114-3.5-.357-3.5-.357a16.274,16.274,0,0,0,2.4.529m-.529-.469a12.689,12.689,0,0,0,1.56.133c.109,0,.221,0,.337-.009a1.627,1.627,0,0,1,.427-.041c.333,0,.726.04.906.041.313.005.625.008.93.008,1.2,0,2.314-.037,3.157-.078a4.179,4.179,0,0,0,.624.057v-.184c-.2.023-.384.047-.551.074-.732.016-1.393.023-2,.023-.973,0-1.815-.019-2.609-.05h-.062c-.1,0-.2.008-.316.016s-.239.016-.36.016a1.262,1.262,0,0,1-.495-.079,4.577,4.577,0,0,0-1.241-.182c-1.7-.16-2.3-.209-2.3-.209a11.669,11.669,0,0,0,1.993.466m6.556-.43h-.079c-1.03.031-1.884.062-2.082.069H175.2c.911.058,1.723.08,2.432.08h.338l.149,0h.205q.242,0,.464-.013v-.171c-.466.011-.94.024-1.383.037m-.91-.314h-.033c.868.045,1.64.06,2.321.061h.005v-.183c-1.32.039-2.125.1-2.293.119m-6.28.2a8,8,0,0,0,1.313.142c.088,0,.176,0,.266-.008a.689.689,0,0,1,.147-.015c.193,0,.4.063.588.071q.484.019,1.045.019c.423,0,.879-.008,1.37-.026,0,0-1.039-.027-2.5-.131-.026,0-.055,0-.087,0l-.146,0-.162,0a1.529,1.529,0,0,1-.493-.063,7.107,7.107,0,0,0-1.148-.223c-.731-.1-1.444-.182-1.729-.2a8.316,8.316,0,0,0,1.534.437M178,176.31h-.058l-.014,0h-.016c-.337.042-.557.082-.616.093h-.016a13.159,13.159,0,0,0,1.323.07h.182v-.245c-.3.018-.564.044-.786.07m-8.168.16a5.051,5.051,0,0,0,1.055.15,1.467,1.467,0,0,0,.171-.009.738.738,0,0,1,.1-.006,7.37,7.37,0,0,1,.744.115c.346.031.659.047,1,.047.277,0,.573-.01.92-.032,0,0-.648-.027-1.942-.177a.646.646,0,0,0-.093,0l-.128,0h-.128a1.669,1.669,0,0,1-.734-.117,4.135,4.135,0,0,0-.944-.265c-.58-.112-1.09-.138-1.367-.184a6.588,6.588,0,0,0,1.35.481M178,175.9h-.05c-.081.013-.141.024-.178.031h0l-.012,0h0l-.008,0h-.019a5.2,5.2,0,0,0,1.035.11h.016v-.231c-.328.015-.6.047-.78.074m-10.637,2.68.15-.156a2.578,2.578,0,0,1,.2,1.145c0,.163-.007.317-.016.448h.964V180s-.15-1.391-.252-1.87c0,0-.168-.762-.379-1.481a1.665,1.665,0,0,0-.669-.838Zm2.019-2.669a3.731,3.731,0,0,0,.82.147.609.609,0,0,0,.091-.006.445.445,0,0,1,.085-.007,5.388,5.388,0,0,1,.74.128,9.831,9.831,0,0,0,1.49.113c.29,0,.608-.011.979-.035,0,0-1.134-.063-2.527-.24a2.97,2.97,0,0,1-.944-.126,3.644,3.644,0,0,0-.709-.206,10.386,10.386,0,0,0-1.127-.2,6.273,6.273,0,0,0,1.1.435m8.4-.379h-.055a5.06,5.06,0,0,0,1.035.112h.016v-.233a8.29,8.29,0,0,0-1,.111m-10.421-.061a1.324,1.324,0,0,1,.524.508,1.651,1.651,0,0,0-.524-.715Zm1.652-.074a2.533,2.533,0,0,0,.607.1.511.511,0,0,0,.061,0,.353.353,0,0,1,.07-.006,5.131,5.131,0,0,1,.7.14,11.363,11.363,0,0,0,2.158.2c.29,0,.6-.009.937-.031,0,0-1.52-.078-3.049-.3a3.57,3.57,0,0,1-.92-.136,1.821,1.821,0,0,0-.554-.211,4.345,4.345,0,0,0-.821-.119,4.692,4.692,0,0,0,.806.362m-.969-.8s.354.17.66.282a1.628,1.628,0,0,0,.468.075h.036a4.974,4.974,0,0,1,.829.19,10.544,10.544,0,0,0,2.442.265c.327,0,.682-.011,1.072-.037,0,0-1.935-.1-3.583-.367a3.654,3.654,0,0,1-.86-.16,1.236,1.236,0,0,0-.354-.175,2.973,2.973,0,0,0-.624-.076c-.031,0-.06,0-.084,0m-.117-.5s.284.148.512.236a1.569,1.569,0,0,0,.384.061,4.158,4.158,0,0,1,.75.192,13.463,13.463,0,0,0,3.454.41c.364,0,.752-.011,1.166-.036a42.857,42.857,0,0,1-4.54-.469,4.4,4.4,0,0,1-.867-.173.973.973,0,0,0-.337-.155,2.477,2.477,0,0,0-.508-.066Zm-.138-.51s.2.1.386.18a.929.929,0,0,0,.3.073,12.565,12.565,0,0,0,4.389.7c.362,0,.744-.012,1.146-.038a40.559,40.559,0,0,1-5.535-.719.9.9,0,0,0-.26-.138,2.408,2.408,0,0,0-.416-.058Zm-.01-.534s.2.109.345.172a1.1,1.1,0,0,0,.262.061,12.884,12.884,0,0,0,4.557.734c.363,0,.744-.012,1.143-.037a39.9,39.9,0,0,1-5.693-.743c-.119-.053-.168-.1-.236-.124a1.546,1.546,0,0,0-.357-.064h-.022m5.315.479c.374,0,.768-.012,1.182-.037a27.185,27.185,0,0,1-6.339-.893,12.014,12.014,0,0,0,5.157.93m-.639-.486c.432,0,.893-.019,1.381-.064,0,0-4.183-.08-5.844-.777a10.369,10.369,0,0,0,4.463.841m.155-.4a13.776,13.776,0,0,0,1.44-.075s-.121,0-.338,0a22.579,22.579,0,0,1-5.72-.732,12.847,12.847,0,0,0,4.617.8m-.049-.4c.413,0,.847-.019,1.3-.062,0,0-.142.007-.4.007a21.029,21.029,0,0,1-5.474-.762,12.308,12.308,0,0,0,4.575.817m1.7-1.068c-.379,0-.876-.005-1.514-.02,0,0,.98.113,1.738.113a1.839,1.839,0,0,0,.821-.113s-.287.02-1.045.02m-3.007.584a12.213,12.213,0,0,0,2.01.193,5.372,5.372,0,0,0,1.078-.1l-.275,0c-.475,0-1.5-.012-2.536-.1a28.349,28.349,0,0,1-3.63-.794,11.038,11.038,0,0,0,3.353.794m-6.383-.393a.358.358,0,0,0,.02.118.349.349,0,0,0,.334.218.282.282,0,0,0,.3-.278c0-.006,0-.012,0-.018a.229.229,0,0,0-.261-.236.422.422,0,0,0-.062,0,.153.153,0,0,1-.12-.139.244.244,0,0,1,.03-.109.674.674,0,0,0-.241.44m8.554-.479s.694.044,1.21.044c.3,0,.536-.015.545-.061h0c0-.006-.015-.046-.432-.046-.257,0-.668.016-1.323.064m3.69.342a1.329,1.329,0,0,0,.654.16,1.56,1.56,0,0,0,.45-.067.825.825,0,0,1-.525.222.754.754,0,0,1-.58-.314m-1.345-.423a.075.075,0,0,0-.019.047.072.072,0,0,0,.021.048h-.035a1.763,1.763,0,0,1-.512-.088.946.946,0,0,0,.641.245l.063,0-.022.063a.247.247,0,0,1-.186.053,1.9,1.9,0,0,1-.416-.065.935.935,0,0,0,.568.3h.025a1.511,1.511,0,0,0,.264-.027,1.082,1.082,0,0,1,.212-.029.515.515,0,0,1,.23.055,1.045,1.045,0,0,1,.461.507c.172.282.464.107.6.27l.066.073a.953.953,0,0,1-.346.07.645.645,0,0,1-.433-.15.447.447,0,0,0,.472.331,1.269,1.269,0,0,0,.451-.1c.061.066.1.109.1.109a1.218,1.218,0,0,0-.418.233.975.975,0,0,1-.292.051c-.378,0-.49-.314-1.027-.33h-.036c-.532,0-.8.316-1.091.418a1.466,1.466,0,0,1-.493.087,2.019,2.019,0,0,1-.481-.065l-.372.35a5.486,5.486,0,0,0,1.037.124c.544,0,.68-.16,1.144-.16.672,0,.743.267,1.158.289h.056a2.208,2.208,0,0,0,.532-.084,1.975,1.975,0,0,1,.453-.084.554.554,0,0,1,.071,0,1.7,1.7,0,0,1,.374.1H178.6a.055.055,0,0,1,.02.04c0,.021-.018.043-.076.047a7.862,7.862,0,0,1-.9.175s.089.005.244.005c.178,0,.443-.007.761-.037a.077.077,0,0,1,.058.075.177.177,0,0,1-.116.148,8.439,8.439,0,0,1-1.216.078l-.25,0a3.959,3.959,0,0,0,.968.1c.133,0,.278-.005.433-.018.049,0,.068.015.068.036,0,.051-.109.14-.17.151a4.63,4.63,0,0,1-.836.066,10.972,10.972,0,0,1-1.762-.166,5.714,5.714,0,0,0,1.939.291c.136,0,.248,0,.326-.009.03,0,.054,0,.073,0,.039,0,.057.005.057.013s-.077.049-.21.08a3.94,3.94,0,0,1-.9.1h-.028c-.306-.019-.672-.053-1.088-.109-.289-.039-.918-.146-.918-.146a10.16,10.16,0,0,0,1.352.461,2.191,2.191,0,0,1-.818.1c-.372,0-.722-.026-.722-.026a7.516,7.516,0,0,0,1.51.233l.7.012h.008c.217.016.421.032.613.049h.044c.332.029.627.057.887.077h.009l.121.009v-2.527a1.475,1.475,0,0,0-.225-.11h-.006l0,0a.318.318,0,0,1-.206-.216h.015a1.636,1.636,0,0,1,.422.1h.005v-.214a1.383,1.383,0,0,0-.36-.058h-.09a.95.95,0,0,1,.087-.267h.008a2.2,2.2,0,0,1,.339.055h.014v-.18l-.047-.007h-.012c-.07-.009-.142-.014-.218-.018a1.821,1.821,0,0,1,.146-.187h.012c.025,0,.058,0,.1,0h.021v-.921a.344.344,0,0,0-.157.083h0a4.449,4.449,0,0,1-.9.143,7.014,7.014,0,0,0,.7.1.723.723,0,0,1-.5.17l-.115,0c-.607,0-.744-.254-1.138-.4a1.971,1.971,0,0,0-.625-.131.328.328,0,0,0-.266.085m-3.477.7a8.605,8.605,0,0,0,1.246.1,4.512,4.512,0,0,0,1.221-.147s-.585.046-1.393.046c-.4,0-.865-.012-1.335-.046a25.318,25.318,0,0,1-4.118-.913,12.253,12.253,0,0,0,4.38.961m6.43-.973h-.006a3.8,3.8,0,0,0-.4.021h0c.019,0,.142.019.33.059l.119.027v-.107h-.05m-4.75.031s.463.046.809.046c.2,0,.354-.015.371-.06,0,0,0-.042-.31-.042-.174,0-.446.014-.869.057m.364-.3a4.8,4.8,0,0,0,.592.052c.14,0,.255-.015.274-.064,0,0-.033-.036-.26-.036a4.869,4.869,0,0,0-.606.049m4.337-.128h-.006c-.11,0-.23.005-.359.018h0c.018,0,.115.017.263.05h.008c.056.012.12.028.189.045v-.114l-.087,0h-.011m-6.1.987a20.631,20.631,0,0,1-4.53-1.054,12.778,12.778,0,0,0,4.53,1.054m-5.214,3.68a.764.764,0,0,1,.373.435s-.246-2.28-.246-4.228c0-.34.008-.669.025-.975a1.381,1.381,0,0,1-.152-.061Zm7.5-4.816a2.181,2.181,0,0,0,.361.043c.085,0,.154-.013.166-.052,0,0-.02-.03-.158-.03a2.228,2.228,0,0,0-.368.039m-2.59.641a16.072,16.072,0,0,1-3.513-.816,9.475,9.475,0,0,0,3.513.816m6.327-.892H178.6a3.6,3.6,0,0,0-.39.023h0a4.482,4.482,0,0,1,.572.128v-.144q-.068,0-.141-.006h-.036m-6.5.436s-.908-.16-1.923-.449a4.935,4.935,0,0,0,1.923.449m6.488-.834h-.006a3.339,3.339,0,0,0-.406.026h0a4.757,4.757,0,0,1,.6.134v-.154l-.089,0h-.1m-11.226.321v-.207a1.569,1.569,0,0,1-.511-.221,1.653,1.653,0,0,0,.511.429m11.2-.716h-.006a3.474,3.474,0,0,0-.4.025h.01a4.872,4.872,0,0,1,.621.143v-.159l-.059,0h-.016l-.1,0h-.043m-.022-.395h0a3.466,3.466,0,0,0-.412.027h.008c.034,0,.179.027.388.078h.015l.007,0h0c.074.018.156.041.243.067v-.165q-.083-.009-.175-.012h-.069m-22.643-.017v.672c.08-.066.163-.134.248-.211l.078-.01.43-.07a2.494,2.494,0,0,1-.706.677l-.049-.015v.17l.036.007a11.933,11.933,0,0,0,1.335.17c.121.017.3.039.534.056l-.575.192-.235.078c.116-.008.233-.012.347-.012.093,0,.182,0,.268.007.236.01.435.029.546.044-.068.022-.133.041-.2.061-.18.056-.342.109-.493.16-.08.027-.155.051-.226.078a8.709,8.709,0,0,0-.935.371c.17-.044.706-.192,1.335-.364a2.943,2.943,0,0,1-.779.646,3.232,3.232,0,0,1-.33-.041c-.22-.04-.3-.135-.3-.255a1.068,1.068,0,0,1,.319-.566s-.463.277-.462.632a.4.4,0,0,0,.006.067c.061.374.788.41,1.059.41.063,0,.1,0,.1,0s-.277.141-.278.294c0,.126.185.26.861.332.449-.169.692-.653.776-.653h0c.016,0,.026.014.026.042a2,2,0,0,1-.315.672q.2.008.389.008.163,0,.317-.005a2.161,2.161,0,0,0,.881-.881l.1,0a1.927,1.927,0,0,1-.51.862c.114,0,.226-.012.33-.022-.163.1-.3.189-.42.272l-.182.134a3.313,3.313,0,0,0-.376.328c-.041.044-.061.068-.061.068.027-.024.058-.049.092-.075a2.829,2.829,0,0,1,.248-.17,2.318,2.318,0,0,1,.572-.089.891.891,0,0,1,.224.025c-.143.066-.284.129-.418.192-.1.049-.2.1-.3.143a4.572,4.572,0,0,0-.7.4.6.6,0,0,1,.036-.163.665.665,0,0,0-.214.432c0,.137.077.272.3.367a2.106,2.106,0,0,0,.287-.17v0a2.418,2.418,0,0,0,.833-.9l.4-.163a3.767,3.767,0,0,1-.92,1.114v0l-.014.012-.032.024c-.08.066-.187.146-.228.177a3.53,3.53,0,0,0,.6.05,5.179,5.179,0,0,0,1.288-.184c.034-.007.07-.017.1-.027a.68.68,0,0,1,.075-.019c-.129.1-.294.228-.476.388-.073.065-.148.134-.226.206a5.939,5.939,0,0,0-.471.51c-.041.051-.082.1-.121.158l0,0h0c-.049.065-.092.129-.134.194,0,0,.09-.092.253-.243a2.741,2.741,0,0,1,.874-.2.907.907,0,0,1,.116.007c-.053.041-.1.083-.155.121-.1.08-.194.155-.279.226a7.51,7.51,0,0,0-.988.908.575.575,0,0,1-.03-.2,1.07,1.07,0,0,1,.013-.159c0-.034.01-.07.017-.112a.982.982,0,0,0-.162.481c0,.325.307.474.737.474.033,0,.068,0,.1,0,.031-.029.08-.073.136-.134.036-.044.08-.095.126-.155l.01-.012,0,0a2.467,2.467,0,0,0,.469-1.194c.129-.092.257-.184.384-.272a2.582,2.582,0,0,1-.425,1.318l-.014.024,0,.007c-.036.056-.075.1-.112.153a2.832,2.832,0,0,1-.194.221c.058-.012.119-.024.18-.041a3.387,3.387,0,0,0,.505-.192,2.511,2.511,0,0,0-.226.33l-.019.036a2.659,2.659,0,0,0-.2.456s.151-.223.381-.5a1.564,1.564,0,0,1,.607-.176.464.464,0,0,1,.143.02l-.316.3-.2.189-.007,0c-.048.051-.529.556-.677.733a.418.418,0,0,1-.035-.174.858.858,0,0,1,.042-.249l0-.022-.015.029a.753.753,0,0,0-.127.385c0,.291.269.456.611.456a1.126,1.126,0,0,0,.155-.011,3.222,3.222,0,0,0,1.034-.289,2.647,2.647,0,0,0-.33,1.159.771.771,0,0,0,.029.24,2.18,2.18,0,0,1,.228-.85c.024-.053.051-.1.078-.153a1.8,1.8,0,0,1,.741-.233.558.558,0,0,1,.1.008c-.044.051-.085.1-.126.153-.1.121-.2.243-.291.362l-.184.243c-.185.245-.359.486-.512.719,0,0,.235-.238.595-.6a1.328,1.328,0,0,1,.008.144,1.592,1.592,0,0,1-.117.594,1.669,1.669,0,0,1-.167.009,1.261,1.261,0,0,1-.188-.013,1.475,1.475,0,0,0,.541.1,1.6,1.6,0,0,0,.481-.073s-.124.122-.265.289h.954l0,0,0,0h.248c0-.109-.01-.2-.015-.258.1-.114.211-.228.318-.34.019.2.027.405.029.6h.163c.008-.164.011-.317.011-.45,0-.148,0-.272-.006-.359l.316-.335a4.732,4.732,0,0,1,.062.8c0,.119,0,.234-.009.34h.138a7.139,7.139,0,0,0,.049-.867c0-.222-.008-.406-.015-.517.1-.1.192-.2.287-.3a4.689,4.689,0,0,1,.052.732,7.691,7.691,0,0,1-.059.919l-.034.034h.677a.841.841,0,0,0-.078-.122l.3-.272a3.237,3.237,0,0,1,.141.393h.354a3.135,3.135,0,0,0-.177-.692l.3-.282a3.825,3.825,0,0,1,.2.974h.226a3.608,3.608,0,0,0-.189-1.229l.2-.208V175.81a1.213,1.213,0,0,0-.406-.193c-.461-.085-.92-.291-.961-.886.054.211.24.452.779.541a1.767,1.767,0,0,1,.588.2v-.207a1.23,1.23,0,0,0-.413-.2c-.633-.175-.946-.292-.946-.611a.58.58,0,0,1,.006-.083c.075-.405.3-.418.327-.418h0a.413.413,0,0,0-.042.18c0,.156.094.375.569.488a2.772,2.772,0,0,1,.5.2v-4.829a2.318,2.318,0,0,1-1.091-1.058s.255,1.039.77,1.275c.034.016.049.028.049.038s-.046.025-.12.025a2.283,2.283,0,0,1-1-.249,2.464,2.464,0,0,1,.674,1.441q0,.046,0,.091c-.216-.656-.612-.767-.612-.767a2.11,2.11,0,0,1,.324,1,.889.889,0,0,1-.47.812,1.209,1.209,0,0,0,.276-.684.653.653,0,0,0-.189-.462s0,.033,0,.085a.711.711,0,0,1-.649.8h-.04a.864.864,0,0,1-.8-.911,1.7,1.7,0,0,1,.753-1.28,2.189,2.189,0,0,0-.765.439.844.844,0,0,1-.58.246.3.3,0,0,1-.316-.178l0-.02,0-.015a.393.393,0,0,1,0-.052,1.154,1.154,0,0,1,.023-.2,6.922,6.922,0,0,1,.626-1.707q.033-.058.057-.114Zm8.786,0q-.011.034-.024.068a5.066,5.066,0,0,0-.556,1.483,4.062,4.062,0,0,1,.672-1.112.812.812,0,0,0,.277-.439Zm.39,0a1.368,1.368,0,0,1,.011.175.957.957,0,0,1-.2.611,1.466,1.466,0,0,0-.3.835h0a2.2,2.2,0,0,1,.4-.6.745.745,0,0,0,.3-.569c0-.009,0-.013,0-.013a2.3,2.3,0,0,0,.529.91,2.11,2.11,0,0,1-.192-.838,2.783,2.783,0,0,0-.1-.507Zm.954,0c.059.064.1.109.1.109q-.012-.057-.022-.109Zm.871,0a1,1,0,0,0,.239.33,1.545,1.545,0,0,1,.229.251v-.363a.778.778,0,0,0-.069-.049,1.088,1.088,0,0,1-.2-.17Zm.569,0c.054.064.114.13.182.2.2.2.263.317.263.406a.222.222,0,0,1-.1.167.03.03,0,0,1-.019.008c-.076,0-.156-.347-.427-.561v.363a1.056,1.056,0,0,1,.2.38,1.928,1.928,0,0,1-.2-.041v.207a1.406,1.406,0,0,0,.673.174h.052a.959.959,0,0,0-.294-1.192q-.067-.055-.127-.109Zm.8,0a1.284,1.284,0,0,1,.095.469.626.626,0,0,1,0,.075,1.258,1.258,0,0,0,.1-.47q0-.037,0-.073Zm-.9-.127q.046.061.1.127h.2a3.741,3.741,0,0,1-.3-.307Zm11.135-.251H178.5a3.282,3.282,0,0,0-.4.026h.029l.01,0h0l.011,0h0c.05.008.134.023.242.048h0l.056.013h.031l.007,0h.013l.007,0h.063c.067.018.14.038.217.062v-.17c-.061-.007-.125-.012-.193-.015h-.09m-11.6.378h.2a2.2,2.2,0,0,1-.36-.508,2.038,2.038,0,0,0,.159.508m.468-.127v-.18a2.771,2.771,0,0,1-.3-.4,1.608,1.608,0,0,0,.3.585m11.16-.652h0a3.113,3.113,0,0,0-.425.031h.02a4.876,4.876,0,0,1,.667.158v-.177l-.025,0h-.008c-.06-.006-.123-.01-.189-.011h-.035m-.035-.4h-.006a2.982,2.982,0,0,0-.418.031h0a4.5,4.5,0,0,1,.5.108h.024c.058.016.12.034.185.054v-.182c-.069-.009-.142-.015-.221-.017h-.072m.018-.4h-.005a3.119,3.119,0,0,0-.437.032h.006a4.279,4.279,0,0,1,.424.088h.015c.083.021.174.047.272.077v-.186l-.063-.006H178.7q-.059,0-.123-.006h-.065m-4.433.242a2.647,2.647,0,0,0,1.107-.232,5.919,5.919,0,0,1-1.076.091,5.5,5.5,0,0,1-1.543-.208,3.628,3.628,0,0,0,1.513.348m4.445-.635h-.005a3.237,3.237,0,0,0-.42.029h0c.019,0,.11.016.248.046h.029c.111.025.25.06.406.108v-.175c-.057-.007-.116-.011-.179-.013h-.083m.078-.4H178.6a3.294,3.294,0,0,0-.439.031h.012l.023,0h0c.037.006.1.017.184.035h0l.048.01h.006l.032.007h.008l.008,0h.03l.011,0h0c.079.019.169.043.265.071v-.168q-.067-.005-.14-.007H178.6m.081-.414h-.006a4.886,4.886,0,0,0-.655.047h0a6.616,6.616,0,0,1,.761.115v-.161h-.1m-.017-.445h-.01c-.224,0-.474.008-.756.028h.024c.089.007.413.035.862.1v-.133h-.12m-.061-.449h-.01c-.283,0-.6.014-.965.047h0c.025,0,.3.016.714.061.133.014.281.032.44.053v-.159H178.6m-.495-.358h-.172c.055,0,.268.017.577.053h0l.019,0h.021l.23.029v-.14c-.2,0-.428.012-.676.034m-1.961-.212a2.418,2.418,0,0,1,.4.168.825.825,0,0,0,.379.09.844.844,0,0,0,.146-.012,2.365,2.365,0,0,1-.466-.187.718.718,0,0,0-.324-.072.586.586,0,0,0-.132.014m-1.861,1.771c0-.017,0-.035,0-.055s0-.038,0-.054c0-.046.008-.077.066-.077.083,0,.248.058.248.131s-.165.134-.248.134c-.059,0-.067-.033-.066-.079m-1.533-.045a1.2,1.2,0,0,1,.376-.18.542.542,0,0,1,.154-.024.334.334,0,0,1,.1.014s0,0,0,0c0,.021-.008.173-.231.173h-.034a1.069,1.069,0,0,0,.759.227,2.346,2.346,0,0,0,.3-.018,1.468,1.468,0,0,1-.531.094,1.524,1.524,0,0,1-.894-.288m1.056-1.78a8.757,8.757,0,0,0-1.77.163s.292,0,.686,0a17,17,0,0,1,1.979.074.331.331,0,0,1,.073.158c0,.036-.024.06-.086.06h-.026c-.029,0-.063-.007-.1-.012a5.781,5.781,0,0,0-.609-.051c-.29-.02-.637-.035-1.011-.035a10.391,10.391,0,0,0-1.732.132s.777.017,1.607.039a2.776,2.776,0,0,0-.493.209,4.9,4.9,0,0,0-.525-.025,8.206,8.206,0,0,0-1.111.081l1.357.121c-.068.046-.129.092-.184.131-.032.022-.061.041-.092.061a6.907,6.907,0,0,0-.725-.041,2.946,2.946,0,0,0-.642.058l1.083.138a1.91,1.91,0,0,1-.793.19.825.825,0,0,1-.108-.006,1.788,1.788,0,0,0,.851.292c.027,0,.053,0,.079,0a3.625,3.625,0,0,1,2.248-1.16h.034a1.6,1.6,0,0,1,1.54.765,2.671,2.671,0,0,0-1.317-.355,2.41,2.41,0,0,0-.271.015,5.145,5.145,0,0,0-1.867.75s.028,0,.073,0a1.009,1.009,0,0,1,.59.15,2.429,2.429,0,0,0,1.247.356,1.343,1.343,0,0,0,.309-.033,5.975,5.975,0,0,1,1.071-.232c.128,0,.22.032.252.115a3.572,3.572,0,0,1-1.328.471,2.957,2.957,0,0,0,.328.016,2.869,2.869,0,0,0,.6-.06c.285-.034.994-.11,1.151-.11h.022a5.969,5.969,0,0,0-.687-.075c-.023,0-.033-.006-.033-.015,0-.035.148-.119.215-.125l0,0c.233-.024.767-.075.908-.085a2.051,2.051,0,0,0-.651-.09h-.007c-.034,0-.049-.014-.049-.034,0-.058.117-.171.24-.179.255,0,.673-.01.813-.019a1.86,1.86,0,0,0-.612-.15.243.243,0,0,1-.212-.174c0-.02.012-.033.04-.033.437-.007,1.093-.036,1.093-.036a7.927,7.927,0,0,0-1.042-.163c-.037,0-.061-.045-.061-.094a.144.144,0,0,1,.163-.142h.01c.2.007.612.027.612.027-.168-.063-.386-.141-.532-.2-.067-.031-.094-.058-.094-.08,0-.044.109-.07.2-.078a.523.523,0,0,0,.2-.041,5.107,5.107,0,0,0-2.056-.7c-.192,0-.578.073-.859.075m4.859-.121h-.018c-.082,0-.167.009-.256.016h.068c.065,0,.176.014.32.029v-.054l-.115,0m-16.369.837a2.35,2.35,0,0,0,.679,1.571,2.829,2.829,0,0,1-.423-1.571,3.951,3.951,0,0,1,.217-1.265,1.985,1.985,0,0,0-.472,1.265m15.549-2.6h-.089c.015,0,.426.046,1.024.153v-.114c-.247-.022-.522-.036-.831-.039h-.1m.106-.579h-.011c-.289,0-.616.014-.986.045h0a17.354,17.354,0,0,1,1.823.165v-.166c-.192-.022-.412-.037-.662-.042h-.167m-.137-.527h-.012c-.327,0-.695.013-1.11.043,0,0,.912.019,2.088.168v-.166q-.124-.012-.262-.022h-.042q-.2-.013-.434-.018h-.229m.38-.518h-.01c-.3,0-.64.013-1.021.044h.005c.064,0,.728.022,1.612.127v-.153c-.147-.01-.307-.016-.479-.018H178.2m.356-.519h-.009c-.291,0-.62.014-.994.046h.01c.057,0,.365.011.814.049h.023c.12.01.249.023.386.037v-.132l-.182,0h-.048m-14.2.437a1.013,1.013,0,0,1-.666-.284.805.805,0,0,1,.091.361.638.638,0,0,1-.093.336.516.516,0,0,1,.363-.219.144.144,0,0,1,.052.008,2.267,2.267,0,0,0-.442.881,3.362,3.362,0,0,1-.75,1.088A2.983,2.983,0,0,0,164.1,161.2a.945.945,0,0,1,.558-.4c0,.008,0,.016,0,.024a1,1,0,0,0,.2.506.554.554,0,0,1-.038-.21,1.975,1.975,0,0,1,.346-.907,1.085,1.085,0,0,1-.817.444m13.4-.913h.009c.043,0,.239.007.535.028h.018c.138.01.3.023.474.04v-.114h-.038c-.293,0-.623.011-1,.044M167,160.129a.652.652,0,0,0,.094.323s0-.024,0-.063a.5.5,0,0,1,.224-.464.6.6,0,0,0-.013.132.678.678,0,0,0,.067.3V159.5a.887.887,0,0,0-.369.63m11.117-.914h-.167c.033,0,.267.007.624.034l.211.017v-.094c-.205,0-.426.011-.669.029m-10.861-.569a1.2,1.2,0,0,0-.677.823,1.709,1.709,0,0,1,.736-.617l.054-.025v-.242a.89.89,0,0,1-.112.061m.1-.66a.981.981,0,0,0-.736.748,1.182,1.182,0,0,1,.692-.529l.054-.011v-.21l-.01,0m-1.9.588c-.26.531-.642,1.046-1.1,1.046a.735.735,0,0,1-.428-.15.818.818,0,0,0,.56.261.922.922,0,0,0,.7-.409c.677-.823.515-.983.956-1.071a1.361,1.361,0,0,0-.167.685,1.8,1.8,0,0,0,.153.711,1.857,1.857,0,0,1-.031-.362,1.927,1.927,0,0,1,.471-1.3.9.9,0,0,0-.11-.006,1.083,1.083,0,0,0-1.007.593m9.836-.656.006.007-.006-.007h0m0,0h0m0,0,0,0,0,0m0,0h0m0,0h0m0,0h0m-7.924.073v.21a1.653,1.653,0,0,0,.49-.236,1.38,1.38,0,0,1-.49.628v.242a1.656,1.656,0,0,0,.783-1.415,1.376,1.376,0,0,1-.783.57m.635,1.03c-.193.154-.437.311-.635.487v.856a.659.659,0,0,0,.21.245s-.008-.073-.008-.183a1.37,1.37,0,0,1,.229-.832,3.671,3.671,0,0,0,1.088-2.188,4.452,4.452,0,0,1-.884,1.615m6.611-.617h.031s-1.542-.206-1.954-1.233c0,0,.161,1.233,1.923,1.233m-10.27-1.283a.7.7,0,0,1,.082.134v0h0v0h0v0h0v0h0v0h0v0h0v0h0v0h0v0h0v0h0v0h0v0h0v0h0v0h0v0h0a.637.637,0,0,1,.027.336h0v0h0v0h0v0h0v0h0v0h0v0h0v0h0v0h0a.766.766,0,0,1-.035.114h0l-.034.041,0,0h-.008l0,0h0l0,0h0l0,0h0l0,0h0l0,0h0l0,0h0l0,0h0l0,0h0l-.017-.015,0,0-.008-.007h0l0,0h0l-.007-.006h-.006l0,0H164.3l-.006-.006h0l0,0h0l0,0h0l0,0h0l0,0h0l0,0-.007-.006,0,0h0l-.021-.018h0c-.138-.12-.326-.274-.566-.446h0l-.009-.006h0l-.009-.006h0l0,0h0l0,0h0l0,0h0l0,0h0l0,0h0l0,0,0,0,0,0,0,0,0,0,0,0h0l0,0h0l0,0h0l0,0h0l-.082-.057h-1.54a1.835,1.835,0,0,1,.256.571h0l0,.006h0l0,.006c-.117-.061-.233-.117-.352-.17a1.421,1.421,0,0,0-.131-.3h0l0,0h0l0,0h0l0,0h0l0,0h0l0,0h0l0,0h0l0,0h0l0,0h0v0h0l0,0h0l0,0h0l0,0h0c-.016-.024-.033-.048-.051-.072h-.3l0,0h0a.944.944,0,0,1,.086.157h0l0,0h0l0,.007h0l0,0h0v.022h0v0h0v0h0v0h0v0h0v0h0v0h0v0h0v0h0v0c-.155-.066-.308-.126-.464-.184l-.02-.041h0l-.008-.015h-1.457q-.041.04-.086.078h0l0,0,0,0h0l0,0h0l0,0h0l0,0h0l0,0h0l0,0h0l-.021.017h0l0,0h0l0,0h0l0,0,0,0,0,0,0,0,0,0,0,0h0l0,0h0l0,0h0l0,0h0l0,0h0l0,0h0l0,0h0l0,0h0l0,0h0l0,0h0l0,0h0l0,0h0l0,0h0l0,0h0l0,0h0l0,0h0l-.088.062h0l0,0h0l0,0h0l0,0h0l0,0h0l0,0h0l0,0h0l0,0h0l0,0h0l0,0h0l0,0h0l0,0h0l-.068.043h0l0,0h0l0,0h0l0,0h-.009l0,0h0l0,0h0l0,0h0l0,0h0l0,0h0l0,0h0l0,0h0l0,0h0l0,0h0l0,0h0l0,0h0l0,0h0l0,0h0l0,0h0a4.476,4.476,0,0,1-.6.283c-.187-.044-.381-.085-.578-.126l.005,0h0l0,0h0l0,0h0l0,0h0l0,0h0l0,0h0l0,0h0l0,0h0l.005,0h0a3.781,3.781,0,0,0,.832-.458h.027l.052-.039h-.4a3.018,3.018,0,0,1-.289.209h0l-.006,0h0l-.005,0h0l-.005,0h0l0,0h0l0,0h0l0,0h0l0,0h0l0,0,0,0,0,0,0,0,0,0,0,0,0,0,0,0,0,0,0,0,0,0,0,0,0,0,0,0h0l-.006,0h0l-.02.012h0l-.006,0h0l-.005,0h0l-.005,0h0l-.005,0h0l-.006,0h0l-.006,0h0l-.006,0h0l-.006,0h0l-.006,0h0l-.006,0h0c-.089.05-.177.1-.261.137h0l-.006,0h0l-.006,0h0l-.006,0h0l-.006,0h0l-.006,0h0l-.006,0h0l-.006,0h0l-.012.006-.07-.017c-.216-.041-.425-.08-.626-.121l.008,0h0l.006,0h0l.006,0h0l.006,0h0l.006,0h0l.006,0h0l.006,0h0l.006,0h0l.007,0h0a3.9,3.9,0,0,0,.721-.325h-.4a4.473,4.473,0,0,1-.53.271h0l-.029.012h0l0,0h0l0,0h-.038l0,0c-.262-.053-.515-.107-.755-.16l.008,0h0l.008,0h0l.026-.005h0a3.185,3.185,0,0,0,.479-.135h-.56v.668c.141.01.372.027.67.056a2.406,2.406,0,0,1-.67.452v.277a4.488,4.488,0,0,0,1.168-.675c.163.019.337.044.519.07a3.624,3.624,0,0,1-1.5.9c-.063-.012-.126-.029-.189-.041v.937c.07-.075.138-.155.206-.238l.49-.056.226-.027-.01.015-.032.046a4.049,4.049,0,0,1-.881.825v.25a7.087,7.087,0,0,0,1.2-1.124l.01-.012.7-.058-.032.046-.012.017a5.2,5.2,0,0,1-1.865,1.406v1.292a2.567,2.567,0,0,0,.454-.7l.24-.051a3.127,3.127,0,0,1-.694.983v.381l.162,0a3.188,3.188,0,0,1,1.576.345c-.2.017-.41.039-.619.068a3.109,3.109,0,0,0-1.119-.379v.216a3.942,3.942,0,0,1,.568.253c-.189.034-.379.078-.568.124v.2c.138-.024.277-.046.413-.066l-.007.036a2.305,2.305,0,0,1-.405.876v.294l.068-.056a2.811,2.811,0,0,0,.748-1.182l.007-.027c.143-.017.284-.034.425-.049l-.012.039a2.461,2.461,0,0,1-.792,1.26l-.444.061v.065l.223-.019c.428-.041,1-.082,1.574-.082.213,0,.426.006.635.019-.76.092-1.466.2-2.11.323l-.306.058-.017,0v.512c.119-.172.206-.318.257-.408.192-.036.376-.07.551-.1a4.471,4.471,0,0,1-.809,1.139v.221a5.167,5.167,0,0,0,1.194-1.423c.182-.027.354-.051.52-.07a5.347,5.347,0,0,1-1.173,1.544c-.184.019-.364.039-.541.061v.442a.971.971,0,0,0,.187-.289c.019,0,.141-.012.189-.017a.936.936,0,0,1-.364.471l-.012.007v.442l.3-.048a2.146,2.146,0,0,1-.3.452v.155a3,3,0,0,0,.556-.648l.434-.068a2.414,2.414,0,0,1-.808.94c-.053,0-.114,0-.182,0v.1h8.379a.929.929,0,0,0,.084-.376.894.894,0,0,0-.338-.668,3.109,3.109,0,0,0,.483.038,2.161,2.161,0,0,0,.265-.014,2.629,2.629,0,0,1,.015.295,2.378,2.378,0,0,1-.1.725h.37a.375.375,0,0,0,.006-.062.229.229,0,0,0,0-.051,1.059,1.059,0,0,1,.02.112h.446c-.069-.25-.147-.479-.147-.479.211.023.505.315.655.479h.074a2.116,2.116,0,0,1-.041-.377c0-.313.118-.4.25-.4a.74.74,0,0,1,.356.139,1.868,1.868,0,0,1-.174-.766,1.068,1.068,0,0,1,.026-.249c.04-.163.208-.429.278-.429.019,0,.031.02.031.068a.685.685,0,0,1-.016.126,1.006,1.006,0,0,0-.017.188,2.146,2.146,0,0,0,.209.826,1.6,1.6,0,0,1-.044-.362,1.49,1.49,0,0,1,.291-.873,1.54,1.54,0,0,0-.01.187,1.965,1.965,0,0,0,.125.7V161.57c-.748-.622-.952-1.073-.953-1.524a1.8,1.8,0,0,1,.017-.24,1.42,1.42,0,0,1-.456.544c-.2.133-.6.418-.6.8a.941.941,0,0,0,.468.712,1.127,1.127,0,0,1-.232-.581.446.446,0,0,1,.025-.152,1.749,1.749,0,0,0,.66.852,1.99,1.99,0,0,1-.329-.825.379.379,0,0,1,.02-.129,2.9,2.9,0,0,0,1.015,1.233,1.217,1.217,0,0,1-.617-.192,2.368,2.368,0,0,0,.544.544,1.2,1.2,0,0,1-.395.06,1.851,1.851,0,0,1-1.6-1.133,1.162,1.162,0,0,0-.427.369.486.486,0,0,1,.266-.111.219.219,0,0,1,.191.111.5.5,0,0,1,.092.263.456.456,0,0,1-.2.339,4.322,4.322,0,0,0-1.4.983,2.169,2.169,0,0,0-.551,1.442,2.68,2.68,0,0,0,.022.338,3.06,3.06,0,0,0,1,2,2.592,2.592,0,0,1-1.821-1.661,2.921,2.921,0,0,1-.22-1.072,2.954,2.954,0,0,1,.88-2,.514.514,0,0,1-.224-.478,3.235,3.235,0,0,1,1.033-1.874.83.83,0,0,1-.013-.159c0-.283.114-.863,1.011-1.06h0a2.22,2.22,0,0,1,.761-1.791h0l0,0h0l0,0h0l0,0,0,0,0,0,0,0,0,0,0,0,0,0,0,0,0,0,0,0,0,0,0,0,0,0,0,0,0,0,0,0,0,0,0,0Zm2.851,0h-.015l-.026.006h-.088l-.03.006h-.06c-.427.075-.8.086-1.124.17h-.032l-.041.012h-.052l-.019.007h-.065l-.005,0a1.517,1.517,0,0,0-.779,1.2,1.627,1.627,0,0,1,.881-1.029,1.719,1.719,0,0,1,.759-.122c.252,0,.462.02.462.02a1.223,1.223,0,0,0-.221.337,2.61,2.61,0,0,1,.627-.363v-.332Zm.172,0v.332l.108-.047,0,0h0l0,0h0l0,0h0l0,0h0a3.119,3.119,0,0,0,.441-.237h0l0,0h0l0,0h0l.046-.031Zm3.443,0a3.487,3.487,0,0,0,.095.462h0v0h0v0h0v0h0v0h0v0h0v0h0v.008h0v0h0v0h0v0h0v0h0a1.872,1.872,0,0,0,.792,1.122h0l0,0h0l0,0h0l0,0h0l0,0h0l0,0h0l0,0h0l0,0h0l0,0h0l0,0h0l0,0h.005l0,0h.014l0,0h.087l0,0a.535.535,0,0,1-.111-.284.261.261,0,0,1,.186-.245,2.956,2.956,0,0,0,1.219.733,1.491,1.491,0,0,1-.763.2,1.724,1.724,0,0,1-1.148-.469,1.62,1.62,0,0,0,.94.736,1.907,1.907,0,0,1-.545.079,1.225,1.225,0,0,1-1.261-.961s-.134,1.411-.9,1.573h0a1.054,1.054,0,0,1,.189-.558v0l0,0h.069v0h0v0h.027v0h0v0h0v0h0v0h0v0h0v0h0v0h0v0h0v0h0v0h0v0h0v0h0v0h0v0h0v0h0v0h0v0h0v0h0v0h0l0-.006h0l0-.006h0l.007-.016h0l.008-.016h0q.029-.062.06-.134h0l.006-.015h0l.007-.015h0l.007-.015h0l0,0h0l0,0h0l0,0h0v0h0v0h0l0-.008h0l0,0h0l0,0h0l0,0h0l0,0h0v0h0v0h0v0h0l0,0h0v0h0v0h0v0h0v0h0V159.1h0v0h0v0h0v0h0v0h0l0,0h0l0,0h0v0h0v0h0v0h0l0,0h0v0h0v0h0v0h0v0h0v0h0v0h0v0h0v0h0v0h0v0h0v0h0v0h0v0h0v0h0v0h0v0h0v0h0v0h0v0h0v0h0v0h0v0h0v0h0v0h0v0h0v0h0v0h0v0h0v0h0v0h0l0-.009h0v0h0l0-.014h0v0h0v0h0v0h0l0,0h0v0h0l0,0h0l0-.014h0v0h0v0h0l0-.01h0l0,0h0l.025-.077h0l0-.009h0V158.7h0v0h0l0-.011h0v-.106h0v-.01h0v-.078h0v0h0v0h0v0h0v0h0v0h0v-.005h0v0h0v0h0v0h0v0h0v0h0v-.005h0v-.005h0V158.4h0V158.4h0v-.005h0l0-.006h0l0-.006h0v-.005h0v-.005h0l0-.018.006-.024h0a7.837,7.837,0,0,0,.213-1.212h-.047c-.02.092-.043.2-.071.315v.007h0v0l0,.008h0v0h0v0a8.414,8.414,0,0,1-.617,1.872q-.026.045-.051.084h0l0,0h0l0,0h0l0,0h0l0,0h0l0,0h0l0,0h0l0,0h0l0,0h0l0,0h0l0,0h0l0,0h0v0h0v0h0v0h0v0h0v0h0v0h0v0h0v0h0v0h0v0h0v0h-.005v0h0v0h0v0h-.062l0,0a1.333,1.333,0,0,0-.583.962.879.879,0,0,0,.069.332.869.869,0,0,1-.236-.6q0-.016,0-.032a3.145,3.145,0,0,0-.131.8,1.115,1.115,0,0,0,.03.271,1.467,1.467,0,0,1-.325-.9,1.34,1.34,0,0,1,.046-.348c.1-.544.808-.5,1.027-1.454a1.955,1.955,0,0,1-.808.808,2.907,2.907,0,0,0,.765-1.838,3.329,3.329,0,0,1-1.042,1.748,1.291,1.291,0,0,0-.565.96.62.62,0,0,0,.079.32.94.94,0,0,1,.352-.721,2.372,2.372,0,0,0-.055.512,1.377,1.377,0,0,0,.276.9,1.215,1.215,0,0,1-.5-.41v0c0,.059.019,1.1,1.406,1.1a3.961,3.961,0,0,0,.842-.1,2.9,2.9,0,0,1-1.222.275,2.329,2.329,0,0,1-1.512-.54l-.033-.028v5.746a1.4,1.4,0,0,0,.419.587,1.584,1.584,0,0,1,.482.639h.191a1.042,1.042,0,0,0-.286-.6c.279-.01.466-.012.466-.012-.24-.053-.439-.1-.612-.15-.068-.075-.138-.151-.206-.231l.641-.019c-.337-.08-.595-.158-.809-.219a1.337,1.337,0,0,1-.107-.214l.75-.027c-.345-.088-.6-.175-.823-.241a1.018,1.018,0,0,1-.015-.167c.527-.027.838-.063.838-.063-.323-.068-.585-.155-.813-.209a1.333,1.333,0,0,1,.046-.172c.544-.053.983-.095.983-.095-.35-.061-.619-.124-.84-.17a2.8,2.8,0,0,0,.194-.211l1.122-.049c-.393-.068-.709-.136-.974-.177a1.277,1.277,0,0,0,.085-.233c.566-.024,1.029-.046,1.029-.046-.41-.068-.726-.117-.976-.153l.012-.049c.029-.109.053-.187.075-.245.571-.041.981-.058.981-.058-.371-.049-.677-.092-.937-.129a.582.582,0,0,0-.061-.2.161.161,0,0,1-.013-.06.115.115,0,0,1,0-.013c.724-.065,1.294-.095,1.294-.095-.456-.061-.8-.112-1.073-.146.119-.066.262-.126.381-.185.573-.068,1-.109,1-.109-.284-.036-.529-.073-.75-.1a.426.426,0,0,0,.043-.194.6.6,0,0,0,0-.073c.546-.061.957-.095.957-.095-.226-.049-.435-.087-.629-.112q.313-.146.568-.291c.051-.032.1-.061.15-.09a2.635,2.635,0,0,0,1.209-1.345,2.158,2.158,0,0,1,1.335-1.316,1.76,1.76,0,0,0-1.178.447,1.126,1.126,0,0,1-.86.414.9.9,0,0,1-.932-.723,1.05,1.05,0,0,0,.9.437,1.53,1.53,0,0,0,.171-.01s-.69-.119-.852-.6a1.524,1.524,0,0,0,.764.286l.057,0s-.576-.206-.575-.595a.407.407,0,0,1,0-.056,1.082,1.082,0,0,0,.76.4.771.771,0,0,0,.078,0c.51-.056.8-.245,1.241-.257h.068c.4,0,.677.116,1.049.13a9.248,9.248,0,0,0,3.049-.886h.121a3.875,3.875,0,0,0,.719-.1h.07l.006,0h0l.023-.006h.1a2.69,2.69,0,0,0,1.313-.86v-.613q-.054.079-.115.155h0l0,0h0l0,0h0l0,0h0l0,0h0l0,0h0l0,0h0l0,0h0l0,0h0l0,0h0l0,0h0l0,0h0v0h0v0h0v0h0v0h-.007v0h0v0h0l0,0h0l0,0h0l0,0h0l0,0h0l0,0h0l0,0h0a2.111,2.111,0,0,1-.788.571l0,0h0l0,0h0l0,0h0q-.053.021-.107.039h-.008l-.008,0h-.143l-.013,0h0l-.03.007h-.218l-.014,0h-.247a2.538,2.538,0,0,1-.283-.016,3.181,3.181,0,0,1-1.429-.544,1.788,1.788,0,0,0,.856.559c.282.082.422.183.423.265s-.132.141-.393.148h-.03a1.741,1.741,0,0,1-.589-.112,1.479,1.479,0,0,0-.5-.112c-.023,0-.047,0-.072,0-.392.027-.636.255-1.054.255-.035,0-.07,0-.107,0a1.3,1.3,0,0,1-1.2-1.117s-.048,0-.128,0h-.093a1.922,1.922,0,0,1-1.331-.519l0,0h0l0,0h0l0,0h0l0,0h0l0,0h0v0h0v-.006h0l0,0h0l0,0h0l0,0h0l0,0h0l0,0h0l0,0h0l0,0h0l0,0h0l0,0h0l0,0h0l0,0h0a1.22,1.22,0,0,1-.081-.116Zm3.322,0a1.069,1.069,0,0,0,.41.489h-.1l-.046-.006h-.036a3.025,3.025,0,0,1-.958-.391h0l0,0h0l0,0h0l0,0h0l0,0h0l0,0h0l0,0h0l-.1-.061h-.172l0,0h0l0,0h0l0,0,0,0,0,0,0,0h0l0,0h0a2.371,2.371,0,0,0,1.574.705h.074a1.537,1.537,0,0,0,.341-.033l0,0h0l0,0h0l0,0h0l0,0h0l0,0h0l0,0h0l0,0h0a2.552,2.552,0,0,1-.774-.678Zm4.246,0c-.037.025-.076.05-.117.074h0l0,0h0l0,0h0l-.029.016h0l0,0h-.041l-.012.006h-.048l-.007,0h-.052l-.011,0h0l0,0H178l-.016.006h-.048l-.016.006h-.053l-.012,0H177.8l-.008,0h-.061l-.013,0h-.454l-.026,0H177.2a1.927,1.927,0,0,1-.757-.3h-.181l.014.014h0l0,0h.005l0,0h0l0,0h0l0,0h0l0,0h0a1.987,1.987,0,0,0,.7.453h0l0,0h.04l0,0h-.014a1.88,1.88,0,0,1-1.118-.486h0l0,0h0l0,0h0l0,0h0l0,0h-.156l.055.08h0l0,0h0l0,.005h0l0,0h0l0,0a2.972,2.972,0,0,0,.243.3h0l0,0h0l0,0h0v0h0v0h.005v0h0v0h0l0,0h0l0,0h0l0,0h0l0,0h0l0,0h0l0,0h0l0,0h0l.04.039h0a1.578,1.578,0,0,0,.128.11h0l.034.026h0l.006,0h0l0,0h0l0,0h0l0,0h0l0,0h0l0,0h0l0,0h0l0,0h.027l0,0h0a2.5,2.5,0,0,1-1.036-.651h-.126a2.149,2.149,0,0,0,1.407.962h.108q.119.01.233.01h.248l.068-.008h.115a1.855,1.855,0,0,0,1.373-.948Z" transform="translate(41.103 546.903)" fill="#631631"/>
  </g>
</svg>
