<svg xmlns="http://www.w3.org/2000/svg" width="55" height="35" viewBox="0 0 55 35">
  <g id="blik" transform="translate(4 -0.66)">
    <rect id="_55x35" data-name="55x35" width="55" height="35" transform="translate(-4 0.66)" fill="#fff" opacity="0"/>
    <g id="Group_23" data-name="Group 23" transform="translate(1 0.267)">
      <path id="Path_1069" data-name="Path 1069" d="M3.259,43.523l-.043.006h0l-.021,0h0l-.02,0h0l-.021,0h0l-.041.007h0l-.019,0h0l-.018,0h0l-.018,0h0l-.017,0h0l-.017,0H3l-.015,0h0l-.016,0H2.959l-.015,0H2.937l-.015,0-.007,0-.014,0-.007,0-.011,0-.011,0-.009,0-.012,0-.009,0-.012,0-.009,0-.009,0-.012,0-.01,0-.007,0-.015,0H2.763l-.017,0h0l-.017,0h0l-.019.005h0A3.741,3.741,0,0,0,.263,45.847h0l-.008.02v0l-.007.019v0l-.007.018v0l-.008.02h0l-.011.031v0l-.006.017,0,0L.2,46l0,.005L.2,46.025l0,.006,0,.014,0,.007,0,.01,0,.011,0,.01,0,.007,0,.014,0,.007,0,.013,0,.008,0,.013,0,.008,0,.011,0,.01,0,.008,0,.013,0,.008,0,.013,0,.008,0,.012,0,.009,0,.011,0,.01,0,.01,0,.01,0,.011,0,.008,0,.014,0,.007,0,.014,0,.007,0,.015v.006l0,.013,0,.008,0,.012,0,.008,0,.013v.006l0,.015v.006l0,.015v.006l0,.016v.005l0,.016v0l0,.016v0l0,.016v0l0,.017v.005l0,.016V46.6l0,.017v0l0,.017v0l0,.017v0l0,.016v0l0,.018v0l0,.018v0l0,.018v0l0,.018v0l0,.019v0l0,.018v0c0,.006,0,.013,0,.019v0l0,.018v0l0,.018v0l0,.019v0l0,.019v0l0,.019h0v.13H0c0,.007,0,.014,0,.021H0c0,.007,0,.014,0,.021v0c0,.006,0,.013,0,.02v.026c0,.006,0,.013,0,.019v0c0,.007,0,.013,0,.02v16.2a3.733,3.733,0,0,0,3.733,3.733H41.208a3.733,3.733,0,0,0,3.733-3.733V47.2c0-.006,0-.013,0-.02v0c0-.006,0-.013,0-.019v-.026c0-.006,0-.013,0-.019v0c0-.006,0-.013,0-.02v0c0-.006,0-.013,0-.019v0c0-.006,0-.013,0-.019v-.026c0-.006,0-.012,0-.019v0c0-.006,0-.012,0-.019v-.025c0-.006,0-.013,0-.02h0c0-.007,0-.013,0-.02v0l0-.019v0l0-.018v0l0-.018v0l0-.019v0l0-.019v0l0-.017v0l0-.018v0l0-.017v-.005l0-.017V46.72l0-.017V46.7l0-.017v0l0-.016v0l0-.017v0l0-.016v-.006l0-.016v-.006l0-.016V46.57l0-.016v-.005l0-.014v-.008l0-.013v-.006l0-.015v-.006l0-.015v-.006l0-.015v-.007l0-.015v-.006l0-.013,0-.008,0-.012,0-.008,0-.012,0-.007,0-.014,0-.007,0-.014,0-.008,0-.014,0-.007,0-.011,0-.01,0-.009,0-.011,0-.009,0-.012,0-.009,0-.009,0-.012,0-.009,0-.012,0-.009,0-.008,0-.013,0-.007,0-.014,0-.007,0-.014,0-.007,0-.016,0,0-.01-.031v0l-.006-.017,0,0-.006-.016v0l-.006-.017v0l-.007-.019v0c-.023-.064-.048-.128-.074-.19h0a3.742,3.742,0,0,0-2.406-2.135h0l-.019-.005h0l-.018-.005h0l-.018,0h0l-.016,0h-.006l-.01,0-.011,0-.01,0-.008,0-.013,0-.009,0-.012,0-.009,0-.011,0-.011,0-.007,0-.014,0-.008,0-.014,0H42l-.015,0h-.006l-.016,0h0l-.015,0h0l-.017,0h0l-.017,0h0l-.018,0h0l-.018,0h0l-.018,0h0l-.02,0-.021,0h0l-.02,0h0l-.02,0h0l-.02,0h0l-.021,0-.022,0Z" transform="translate(0 -37.131)" fill="#131313"/>
      <rect id="Rectangle_16" data-name="Rectangle 16" width="3.047" height="17.073" transform="translate(18.505 9.899)" fill="#fff"/>
      <rect id="Rectangle_17" data-name="Rectangle 17" width="3.047" height="11.309" transform="translate(24.16 15.664)" fill="#fff"/>
      <path id="Path_399" data-name="Path 399" d="M214.052,84.475l-4.579-5.985,4.212-5.324h-3.6l-4.039,5.165V67.4H203V84.475h3.047V78.669l4.039,5.806Z" transform="translate(-173.186 -57.503)" fill="#fff"/>
      <path id="Path_400" data-name="Path 400" d="M39.533,81.556a2.735,2.735,0,1,1,2.735-2.735,2.736,2.736,0,0,1-2.735,2.735m0-8.518a5.754,5.754,0,0,0-2.735.687V67.4H33.75V78.821a5.783,5.783,0,1,0,5.783-5.783" transform="translate(-28.793 -57.503)" fill="#fff"/>
      <path id="Path_1070" data-name="Path 1070" d="M75,64.052v.635h0c0,.014,0,.027.005.041h0l0,.012v0l0,.011v0l0,.011h0l0,.025h0l0,.01v.006l0,.009v.021l0,.017v.028l0,.008V64.9l0,.009a.034.034,0,0,0,0,.006l0,.015v0l0,.011v.006l0,.01v.006l0,.011v0l0,.015h0l0,.014v0l0,.011v0l0,.012v0l.008.031v0l0,.013v0l0,.012v0l.014.046v0l0,.014v0l.015.047h0l0,.014h0A2.725,2.725,0,0,0,76.476,66.8h0l.058.029h0l.014.007h0l.044.02h0l.013.006h0l.045.019h0l.013.005h0l.014.006h0l.03.012h0l.011,0h0l.011,0h0l.029.011h0l.01,0h0l.01,0h0l.013,0h0l.015,0h0l.01,0,.005,0,.009,0,.005,0,.011,0h0l.014,0h0l.01,0,.006,0,.009,0,.006,0,.009,0,.006,0,.009,0,.011,0,.008,0,.007,0L77,67l.007,0,.008,0,.007,0,.008,0,.012,0,.008,0,.008,0,.007,0,.009,0h.006l.009,0h.006l.031.007h.006l.009,0h.006l.009,0h.005l.023,0h1.03l.028-.006h0l.011,0h0l.011,0h0l.011,0h0l.011,0h0l.011,0h0L78.372,67h0l.011,0h0l.011,0h0l.011,0h0l.012,0h0l.054-.016h0l.011,0h0l.011,0h0l.01,0h0l.01,0h0l.011,0h0l.053-.018h0l.011,0h0l.011,0h0l.011,0h0l.011,0h0l.052-.02h0l.01,0,0,0,.01,0,0,0,.01,0,0,0,.01,0,0,0,.01,0h0l.048-.022h0l.01,0,0,0,.01,0,0,0,.009,0,0,0,.009,0,0,0,.009,0h0l.034-.017h0l.009,0,0,0,.008,0,.005,0,.008,0,.005,0,.008,0,.005,0,.008,0,0,0,.009,0h0l.02-.011,0,0,.008,0,.005,0,.008,0,.006,0,.008,0,.005,0,.007,0,.006,0,.007,0,.006,0,.007,0,.006,0,.007,0,0,0,.015-.01.006,0,.007,0,.006,0,.007,0,.006,0,.007,0,.006,0,.007,0,.006,0,.006,0,.007,0,.006,0,.008-.005.007,0,.01-.007.006,0,.007,0,.006,0,.007,0,.006,0,.007,0,.006,0,.007,0,.005,0,.007-.005.005,0,.008-.006,0,0,.012-.009,0,0,.009-.007,0,0,.007-.006,0,0,.007-.006,0,0,.007-.006,0,0,.007-.006,0,0,.008-.006,0,0,.01-.009h0l.012-.01,0,0,.008-.007,0,0,.007-.006,0,0,.007-.006,0,0L79.5,66.4l0,0,.008-.007,0,0,.01-.008,0,0,.012-.011h0l.011-.01,0,0,.008-.008,0,0,.007-.007,0,0,.007-.007,0,0,.008-.007,0,0,.009-.008,0,0,.022-.022,0,0,.009-.009,0,0,.008-.008,0,0,.007-.008,0,0,.007-.008,0,0,.008-.008,0,0,.009-.01h0l.021-.023,0,0,.009-.01,0,0,.008-.009,0,0,.007-.008,0,0,.007-.008,0,0,.008-.01,0,0L79.8,66.1h0l.009-.011,0,0,.008-.01,0,0,.007-.009,0,0,.007-.009,0,0,.008-.01,0,0,.029-.038h0l.008-.011,0,0,.007-.01,0,0,.007-.01,0,0,.007-.01,0,0,.008-.011v0l.018-.026h0l.009-.013,0,0,.007-.01,0,0,.006-.01,0,0,.006-.01,0,0,.007-.011,0,0L80,65.82h0l.017-.028h0l.007-.012,0,0,.006-.011,0,0,.006-.01,0,0,.006-.011,0,0,.007-.012v0l.016-.028h0l.008-.014v0l.006-.011,0,0,.005-.01,0,0,.006-.011,0,0,.006-.011v0l.007-.014h0l.015-.029v0l.006-.012,0,0,.005-.01,0,0,.005-.01,0,0,0-.01,0,0,.005-.012v0l.013-.029h0l.006-.014v0l0-.011h0l-3.974-3.355A2.717,2.717,0,0,0,75,64.052m2.682-2.4h-.415l-.01,0-.013,0-.009,0H77.2l-.008,0h-.008l-.008,0-.008,0-.008,0-.008,0-.008,0-.008,0-.008,0-.008,0-.008,0-.008,0-.007,0-.009,0-.007,0-.008,0-.008,0-.008,0h0l-.024.006h0l-.01,0h-.006l-.009,0-.007,0-.008,0-.007,0-.008,0-.007,0-.008,0-.007,0-.008,0-.007,0-.009,0-.007,0-.009,0-.006,0-.009,0-.006,0-.01,0,0,0-.01,0h0L76.8,61.8h0l-.011,0,0,0-.01,0-.005,0-.01,0-.005,0-.01,0-.005,0-.01,0-.005,0-.01,0,0,0-.01,0,0,0-.01,0,0,0-.011,0h0l-.012.005h0l-.069.03h0l-.012.005h0l-.012.005h0l-.011.005h0l-.011.005h0l-.011.005h0l-.011.006h0l-.012.006h0l-.107.057L76.366,62h0l-.012.007h0l-.012.007h0l-.013.007h0c-.036.021-.071.042-.105.065L80.2,65.443l0,0,0-.01,0,0,0-.01,0,0,0-.011v0l.005-.013v0l.012-.03v0l0-.012,0,0,0-.01,0,0,0-.01,0,0,0-.01v0l0-.011v0l.011-.03v0l0-.013v0l0-.011,0,0,0-.011,0,0,0-.01v0l0-.011v0l0-.013v0l.009-.031v0l0-.012v0l0-.011v-.005l0-.01v-.006l0-.01v-.006l0-.011v0l0-.014h0l0-.016v0l0-.013v0l0-.011v-.005l0-.01v-.006l0-.01v-.006l0-.01v-.006l0-.011V64.9l0-.016h0l0-.016v0l0-.012v-.005l0-.011V64.83l0-.011a.037.037,0,0,1,0-.006l0-.011V64.8l0-.011v0l0-.014v0l0-.016v0l0-.013s0,0,0-.005v-.033s0-.006,0-.01v-.017s0,0,0-.006v-.016l0-.016h0c0-.005,0-.011,0-.016V64.6s0,0,0-.006v-.033s0-.007,0-.01v-.023s0-.008,0-.012v0c0-.006,0-.011,0-.017v0s0-.009,0-.013,0,0,0-.006v-.027s0,0,0-.007,0-.007,0-.01,0,0,0-.006,0-.007,0-.01V64.4s0-.007,0-.011v-.022A2.717,2.717,0,0,0,77.7,61.652h-.017" transform="translate(-63.985 -52.597)" fill="#ef434b"/>
    </g>
  </g>
</svg>
