<svg xmlns="http://www.w3.org/2000/svg" xmlns:xlink="http://www.w3.org/1999/xlink" width="55" height="35" viewBox="0 0 55 35">
  <defs>
    <clipPath id="clip-path">
      <rect id="Rectangle_201" data-name="Rectangle 201" width="55" height="22.574" fill="none"/>
    </clipPath>
  </defs>
  <g id="Apple_pay" data-name="Apple pay" transform="translate(-197 -1061)">
    <rect id="_55x35" data-name="55x35" width="55" height="35" transform="translate(197 1061)" fill="#fff" opacity="0"/>
    <g id="Group_525" data-name="Group 525" transform="translate(197 1067)">
      <g id="Group_524" data-name="Group 524" clip-path="url(#clip-path)">
        <path id="Path_1091" data-name="Path 1091" d="M10.05,2.9a3.374,3.374,0,0,1-2.707,1.28,3.809,3.809,0,0,1,.971-2.8A4.04,4.04,0,0,1,11,0a4.088,4.088,0,0,1-.954,2.9m.937,1.478c-1.5-.086-2.776.851-3.48.851-.722,0-1.8-.808-2.99-.782A4.417,4.417,0,0,0,.77,6.728C-.846,9.5.349,13.6,1.913,15.863c.765,1.117,1.676,2.346,2.879,2.3,1.143-.043,1.59-.739,2.965-.739s1.787.739,2.99.722c1.246-.026,2.028-1.117,2.793-2.234a9.714,9.714,0,0,0,1.246-2.569,4.06,4.06,0,0,1-2.432-3.686A4.134,4.134,0,0,1,14.321,6.2a4.247,4.247,0,0,0-3.334-1.813m8.627-3.111V18.02h2.6V12.3h3.6a5.314,5.314,0,0,0,5.594-5.525,5.253,5.253,0,0,0-5.508-5.5Zm2.6,2.191h3c2.26,0,3.549,1.2,3.549,3.317s-1.289,3.334-3.558,3.334h-2.99ZM36.156,18.148a4.29,4.29,0,0,0,3.832-2.14h.052V18.02h2.406V9.684c0-2.415-1.933-3.979-4.907-3.979-2.758,0-4.8,1.581-4.881,3.747H35a2.287,2.287,0,0,1,2.458-1.71c1.59,0,2.483.739,2.483,2.105v.928l-3.248.2c-3.016.18-4.649,1.418-4.649,3.566.009,2.165,1.693,3.609,4.107,3.609m.7-1.985c-1.383,0-2.269-.67-2.269-1.684,0-1.057.851-1.667,2.475-1.762l2.887-.18v.945a2.824,2.824,0,0,1-3.093,2.681m8.808,6.41c2.535,0,3.729-.971,4.769-3.9L55,5.869H52.354L49.295,15.76h-.052L46.184,5.869H43.468l4.4,12.194-.241.739a2.069,2.069,0,0,1-2.191,1.744c-.206,0-.6-.026-.765-.043v2.011A9.008,9.008,0,0,0,45.668,22.574Z" transform="translate(0)"/>
      </g>
    </g>
  </g>
</svg>
