<svg xmlns="http://www.w3.org/2000/svg" width="55" height="35" viewBox="0 0 55 35">
  <g id="pragma_Go" data-name="pragma Go" transform="translate(-146 -1207)">
    <rect id="_55x35" data-name="55x35" width="55" height="35" transform="translate(146 1207)" fill="#fff" opacity="0"/>
    <g id="Group_528" data-name="Group 528" transform="translate(146 1221)">
      <path id="Path_1092" data-name="Path 1092" d="M30.553,3.374H27.632V5h2.955a.833.833,0,0,1,.827.646.815.815,0,0,1-.8.982H27.632V9.886h1.791V8.258h1.194a2.443,2.443,0,0,0,2.427-2.719,2.483,2.483,0,0,0-2.491-2.165" transform="translate(-25.844 -3.156)" fill="#13293d"/>
      <path id="Path_1093" data-name="Path 1093" d="M213.151,9.951h1.815l-2.255-6.508h-1.632l-2.264,6.508h1.824l.253-.838h2Zm-.679-2.469h-1.181l.6-2.013Z" transform="translate(-195.303 -3.22)" fill="#13293d"/>
      <path id="Path_1094" data-name="Path 1094" d="M413.948,9.95V6.522l-1.091,2.411H411.9l-1.091-2.411V9.95h-1.787V3.442h1.953l1.4,3.061,1.411-3.061h1.943V9.95Z" transform="translate(-382.559 -3.219)" fill="#13293d"/>
      <path id="Path_1095" data-name="Path 1095" d="M521.639,9.951h1.815L521.2,3.443h-1.631L517.3,9.951h1.824l.253-.838h2Zm-.68-2.469h-1.18l.6-2.013Z" transform="translate(-483.83 -3.22)" fill="#13293d"/>
      <path id="Path_1096" data-name="Path 1096" d="M125.328,9.875l-1.152-2a2.442,2.442,0,0,0,1.119-2.4,2.482,2.482,0,0,0-2.482-2.1h-2.922V9.874h1.791V8.246h.7l.934,1.629ZM121.682,4.99h1.163a.834.834,0,0,1,.828.646.815.815,0,0,1-.8.983h-1.194Z" transform="translate(-112.133 -3.144)" fill="#13293d"/>
      <path id="Path_1097" data-name="Path 1097" d="M304.447,2.657h-3.119V4.289H302.8a1.683,1.683,0,1,1-.322-2.044L303.743.979A3.46,3.46,0,0,0,301.33,0a3.473,3.473,0,1,0,3.118,4.994Z" transform="translate(-278.582 0)" fill="#13293d"/>
      <rect id="Rectangle_202" data-name="Rectangle 202" width="1.788" height="1.627" transform="translate(0 1.847)" fill="#ff143b"/>
      <path id="Path_1098" data-name="Path 1098" d="M720.437.089a3.457,3.457,0,0,0-3.971,3.971,3.4,3.4,0,0,0,2.875,2.875,3.457,3.457,0,0,0,3.971-3.971A3.4,3.4,0,0,0,720.437.089m2.235,3.423a2.783,2.783,0,1,1-5.566,0,2.783,2.783,0,1,1,5.566,0" transform="translate(-670.07 -0.048)" fill="#ff143b"/>
      <rect id="Rectangle_203" data-name="Rectangle 203" width="1.94" height="0.665" transform="translate(43.752 4.658)" fill="#ff143b"/>
      <rect id="Rectangle_204" data-name="Rectangle 204" width="0.665" height="1.94" transform="translate(45.027 4.658)" fill="#ff143b"/>
      <path id="Path_1099" data-name="Path 1099" d="M611.615,6.49l-.495.044a2.488,2.488,0,0,1-1.945.923A2.71,2.71,0,0,1,606.451,4.7a2.742,2.742,0,0,1,4.626-2l.108.119.458-.458-.1-.107a3.368,3.368,0,0,0-2.989-.89,3.278,3.278,0,0,0-2.667,2.47,3.444,3.444,0,0,0,.875,3.278,3.554,3.554,0,0,0,2.4.98,3.131,3.131,0,0,0,1.416-.243,3.062,3.062,0,0,0,1.08-.788,1.825,1.825,0,0,1-.031-.182,3.767,3.767,0,0,1-.016-.391" transform="translate(-566.588 -1.23)" fill="#ff143b"/>
      <path id="Path_1100" data-name="Path 1100" d="M830.657,1.731a.663.663,0,0,1-.672.666.653.653,0,0,1-.666-.66.663.663,0,0,1,.672-.666.653.653,0,0,1,.666.66m-.132,0a.537.537,0,1,0-1.074,0,.537.537,0,1,0,1.074,0m-.261-.114a.2.2,0,0,1-.147.2l.175.239h-.147l-.16-.227h-.114v.227h-.123V1.412h.285a.209.209,0,0,1,.23.209m-.246.107c.08,0,.126-.04.126-.1s-.046-.107-.126-.107h-.147v.212Z" transform="translate(-775.657 -1.002)" fill="#13293d"/>
    </g>
  </g>
</svg>
