<svg xmlns="http://www.w3.org/2000/svg" width="55" height="35" viewBox="0 0 55 35">
  <g id="sg-integracje-paypo" transform="translate(-356.095 -486.487)">
    <rect id="_55x35" data-name="55x35" width="55" height="35" transform="translate(356.095 486.487)" fill="#fff" opacity="0"/>
    <g id="Group_508" data-name="Group 508" transform="translate(1 -0.044)">
      <path id="Path_116" data-name="Path 116" d="M418.935,504.493v3.635h-2.629V496.634c.056-.027.115-.082.173-.081,1.54,0,3.085-.065,4.62.03a3.922,3.922,0,0,1,3.71,4.066,3.984,3.984,0,0,1-3.953,3.842C420.233,504.508,419.609,504.493,418.935,504.493Zm.058-5.475v3c.629,0,1.212.041,1.787-.01a1.441,1.441,0,0,0,1.36-1.43,1.46,1.46,0,0,0-1.31-1.549A17.243,17.243,0,0,0,418.993,499.019Z" transform="translate(-52.63)"/>
      <path id="Path_117" data-name="Path 117" d="M623.948,504.743V508.4h-2.615V496.889a45.061,45.061,0,0,1,5.278.043,3.813,3.813,0,0,1,3.184,4.144,3.97,3.97,0,0,1-3.834,3.663C625.315,504.766,624.665,504.743,623.948,504.743Zm.038-2.453c.66,0,1.287.047,1.9-.012a1.523,1.523,0,0,0,.039-3,18.677,18.677,0,0,0-1.943-.014Z" transform="translate(-228.916 -0.255)"/>
      <path id="Path_118" data-name="Path 118" d="M487.031,525.964c-.745,0-1.421.036-2.09-.022-.206-.018-.39-.294-.666-.519a3.635,3.635,0,0,1-3.307.636,3.836,3.836,0,0,1-2.207-1.511,4.875,4.875,0,0,1,.252-6.019c1.438-1.576,3.287-1.737,5.449-.456l.1-.588h2.469Zm-2.522-4.234a2.056,2.056,0,1,0-2.08,2.058A1.99,1.99,0,0,0,484.509,521.73Z" transform="translate(-105.54 -17.786)"/>
      <path id="Path_119" data-name="Path 119" d="M549.542,518.757c.883,0,1.654-.034,2.418.024.189.014.439.294.52.506.566,1.48,1.1,2.974,1.71,4.666l1.619-5.155h2.679c-.447,1.267-.864,2.474-1.3,3.675-.648,1.8-1.239,3.619-1.977,5.378a4.036,4.036,0,0,1-4.4,2.709v-2.212a7.941,7.941,0,0,0,1.048-.274,1.31,1.31,0,0,0,.772-1.85q-1.4-3.352-2.806-6.705C549.74,519.309,549.667,519.092,549.542,518.757Z" transform="translate(-167.188 -19.102)"/>
      <path id="Path_120" data-name="Path 120" d="M688.774,527.584a4.367,4.367,0,1,1,4.425-4.292A4.33,4.33,0,0,1,688.774,527.584Zm.014-6.327a1.845,1.845,0,0,0-1.945,1.911,1.87,1.87,0,0,0,1.926,2.011,1.961,1.961,0,0,0,.019-3.921Z" transform="translate(-283.105 -19.191)"/>
      <path id="Path_121" data-name="Path 121" d="M388.722,560.808h-3.1V557.7h3.1Z" transform="translate(-26.246 -52.592)" fill="#a70584"/>
      <path id="Path_122" data-name="Path 122" d="M388.7,527.084v3.055h-3.113v-3.055Z" transform="translate(-26.219 -26.27)" fill="#36b588"/>
      <path id="Path_123" data-name="Path 123" d="M358.137,560.739H355.1v-3.026h3.042Z" transform="translate(0 -52.605)" fill="#fad05b"/>
    </g>
  </g>
</svg>
