<svg xmlns="http://www.w3.org/2000/svg" width="55" height="35" viewBox="0 0 55 35">
  <g id="payU" transform="translate(-193 -1200)">
    <rect id="_55x35" data-name="55x35" width="55" height="35" transform="translate(193 1200)" fill="#fff" opacity="0"/>
    <path id="sg-integracje-payU" d="M676.235,4165.338a3.566,3.566,0,0,0,1.786-.467,3.606,3.606,0,0,0,1.172-1.8c.01,0,.085-.235.1-.261l-.276.042c-2.35.306-2.816-1.442-3.224-2.776l-2.046-7.622a.53.53,0,0,1,.539-.7h.485a1,1,0,0,1,.918.7l2.049,7.63c.222.563.506,1.083,1.12,1.083s.938-.126,1.22-1.178l1.776-7.529a.966.966,0,0,1,.9-.711h.478a.547.547,0,0,1,.556.709l-2.349,9.633c-1.081,4.25-2.472,4.869-4.717,4.958C676.029,4166.957,675.676,4165.564,676.235,4165.338Zm14.187-2.535a5.221,5.221,0,0,1-5.219-5.223v-8.022a1.335,1.335,0,0,1,1.334-1.335H688a1.335,1.335,0,0,1,1.334,1.336v8.385s.069,1.458,2.488,1.458,2.488-1.458,2.488-1.458v-8.385a1.335,1.335,0,0,1,1.333-1.336h.729v-.366a.608.608,0,0,1,.606-.607h3.036a.607.607,0,0,1,.606.607v3.04a.608.608,0,0,1-.606.607h-1.579v-1.947a1.336,1.336,0,0,0-1.333-1.335h-.729v2.674a.608.608,0,0,0,.606.607h1.457v6.076a5.22,5.22,0,0,1-5.218,5.223Zm-23-.122a3.219,3.219,0,0,1,0-6.438h3.7v-1.459c0-1.58-1.678-1.58-2.643-1.58-1.009,0-2.7.192-2.7.192a.427.427,0,0,1-.482-.434v-.732a.552.552,0,0,1,.482-.538,27.607,27.607,0,0,1,2.795-.188c.968,0,4.49,0,4.49,3.279v4.679a3.218,3.218,0,0,1-3.217,3.219Zm-1.276-3.28a1.7,1.7,0,0,0,1.7,1.7h1.579a1.7,1.7,0,0,0,1.7-1.7v-1.7h-3.277A1.7,1.7,0,0,0,666.15,4159.4Zm-11.892,3.28a.609.609,0,0,1-.609-.606V4150.29a2.067,2.067,0,0,1,2.064-2.067h4.49a4.011,4.011,0,0,1,4,4.008v1.339a4.01,4.01,0,0,1-4,4.008h-4.49v4.5a.608.608,0,0,1-.608.607Zm1.455-11.92v4.875h3.821a2.735,2.735,0,0,0,0-5.469h-3.226A.6.6,0,0,0,655.713,4150.761ZM698.431,4151.5Zm2.55-4.254a.485.485,0,0,1-.486-.486v-2.187a.487.487,0,0,1,.486-.488h2.182a.487.487,0,0,1,.487.488v2.187a.486.486,0,0,1-.487.486Zm-2.187-3.038a.365.365,0,0,1-.363-.363v-1.461a.365.365,0,0,1,.363-.363h1.458a.364.364,0,0,1,.363.363v1.461a.364.364,0,0,1-.363.363Z" transform="translate(-457.65 -2937.025)" fill="#a6c307"/>
  </g>
</svg>
