<svg xmlns="http://www.w3.org/2000/svg" width="55" height="35" viewBox="0 0 55 35">
  <g id="pal" transform="translate(21.498 8.393)">
    <rect id="_55x35" data-name="55x35" width="55" height="35" transform="translate(-21.498 -8.393)" fill="#fff" opacity="0"/>
    <g id="Group_507" data-name="Group 507" transform="translate(-3.5 -2.393)">
      <path id="Path_885" data-name="Path 885" d="M31.386,32.33h6.56c3.522,0,4.848,1.783,4.643,4.4-.339,4.325-2.953,6.718-6.421,6.718H34.417c-.476,0-.8.315-.925,1.168l-.743,4.962c-.049.322-.218.508-.472.533H28.155c-.388,0-.525-.3-.423-.938L30.245,33.27A1,1,0,0,1,31.386,32.33Z" transform="translate(-23.007 -26.855)" fill="#009ee3" fill-rule="evenodd"/>
      <path id="Path_888" data-name="Path 888" d="M4.276,0h6.567c1.849,0,4.044.059,5.51,1.355A4.451,4.451,0,0,1,17.73,5.08c-.4,5.014-3.4,7.824-7.426,7.824H7.066c-.552,0-.916.366-1.072,1.355l-.9,5.758c-.059.373-.22.593-.508.62H.53c-.449,0-.608-.339-.491-1.087L2.951,1.094A1.165,1.165,0,0,1,4.276,0Z" fill="#113984" fill-rule="evenodd"/>
      <path id="Path_889" data-name="Path 889" d="M35.95,40.521l1.146-7.26a1,1,0,0,1,1.143-.942H44.8a6.4,6.4,0,0,1,2.652.483c-.659,4.464-3.546,6.943-7.326,6.943H36.893A.955.955,0,0,0,35.95,40.521Z" transform="translate(-29.861 -26.847)" fill="#172c70" fill-rule="evenodd"/>
    </g>
  </g>
</svg>
