<svg xmlns="http://www.w3.org/2000/svg" xmlns:xlink="http://www.w3.org/1999/xlink" width="55" height="35" viewBox="0 0 55 35">
  <defs>
    <clipPath id="clip-path">
      <rect id="Rectangle_199" data-name="Rectangle 199" width="20.291" height="9.006" fill="none"/>
    </clipPath>
  </defs>
  <g id="payU_Raty" data-name="payU Raty" transform="translate(-195 -1200)">
    <rect id="_55x35" data-name="55x35" width="55" height="35" transform="translate(195 1200)" fill="#fff" opacity="0"/>
    <g id="Group_516" data-name="Group 516" transform="translate(-1 5)">
      <path id="sg-integracje-payU" d="M13.286,13.715a2.1,2.1,0,0,0,1.051-.275,2.123,2.123,0,0,0,.689-1.061c.006,0,.05-.139.057-.154l-.162.025c-1.383.18-1.657-.848-1.9-1.633l-1.2-4.484a.312.312,0,0,1,.317-.415h.285a.588.588,0,0,1,.54.415l1.205,4.489c.131.332.3.637.659.637s.552-.074.718-.693l1.045-4.429a.568.568,0,0,1,.528-.418H17.4a.322.322,0,0,1,.327.417L16.343,11.8c-.636,2.5-1.454,2.865-2.775,2.917C13.165,14.667,12.958,13.848,13.286,13.715Zm8.346-1.491a3.072,3.072,0,0,1-3.07-3.073V4.431a.785.785,0,0,1,.785-.785h.858a.786.786,0,0,1,.785.786V9.365s.041.857,1.464.857,1.464-.857,1.464-.857V4.432a.785.785,0,0,1,.784-.786h.429V3.431a.358.358,0,0,1,.356-.357h1.786a.357.357,0,0,1,.356.357V5.219a.358.358,0,0,1-.356.357h-.929V4.431a.786.786,0,0,0-.784-.785h-.429V5.219a.358.358,0,0,0,.356.357h.857V9.151a3.071,3.071,0,0,1-3.07,3.073ZM8.1,12.152a1.894,1.894,0,0,1,0-3.788h2.177V7.506c0-.929-.987-.929-1.555-.929-.593,0-1.589.113-1.589.113a.251.251,0,0,1-.284-.255V6a.325.325,0,0,1,.284-.316,16.246,16.246,0,0,1,1.644-.111c.569,0,2.642,0,2.642,1.929v2.752A1.893,1.893,0,0,1,9.53,12.152Zm-.751-1.93a1,1,0,0,0,1,1h.929a1,1,0,0,0,1-1v-1H8.353A1,1,0,0,0,7.354,10.222Zm-7,1.93A.358.358,0,0,1,0,11.8V4.862A1.216,1.216,0,0,1,1.214,3.646H3.855A2.36,2.36,0,0,1,6.211,6v.788A2.359,2.359,0,0,1,3.855,9.15H1.214v2.645a.358.358,0,0,1-.358.357Zm.856-7.013V8.007H3.462a1.609,1.609,0,0,0,0-3.218h-1.9A.351.351,0,0,0,1.214,5.139ZM26.344,5.577Zm1.5-2.5a.286.286,0,0,1-.286-.286V1.5a.287.287,0,0,1,.286-.287h1.284a.287.287,0,0,1,.286.287V2.788a.286.286,0,0,1-.286.286ZM26.558,1.287a.215.215,0,0,1-.214-.214V.214A.215.215,0,0,1,26.558,0h.858a.214.214,0,0,1,.214.214v.859a.214.214,0,0,1-.214.214Z" transform="translate(196 1205)" fill="#a6c307"/>
      <g id="Group_515" data-name="Group 515" transform="translate(230.709 1209.706)">
        <g id="Group_514" data-name="Group 514" transform="translate(0 0)" clip-path="url(#clip-path)">
          <path id="Path_1071" data-name="Path 1071" d="M3.6,4.065l1.428,2.2c.227.361.185.455-.249.455H4.6a.792.792,0,0,1-.828-.455L2.42,4.148H1.086v2.1c0,.382-.092.475-.476.475H.475C.093,6.724,0,6.631,0,6.249V1.179C0,.352.352,0,1.18,0H2.814C4.479,0,5.049.807,5.049,2.079A1.745,1.745,0,0,1,3.6,4.065M1.49,1.024c-.279,0-.4.114-.4.393V3.124H2.814c.911,0,1.148-.393,1.148-1.045,0-.693-.237-1.055-1.148-1.055Z" transform="translate(0 0)" fill="#808285"/>
          <path id="Path_1072" data-name="Path 1072" d="M11.2,5.419c0,1.138-.673,1.655-2.2,1.655-1.346,0-2.1-.5-2.1-1.593,0-1.158.819-1.562,2.112-1.562h1.138V3.412c0-.642-.486-.787-1.221-.787a5.7,5.7,0,0,0-1.087.093c-.31.063-.382-.021-.382-.33V2.243c0-.311.083-.393.372-.445a5.109,5.109,0,0,1,1.035-.083c1.4,0,2.338.4,2.338,1.7Zm-1.055-.694H9.011c-.7,0-1.045.207-1.045.735,0,.611.487.713,1.014.713.672,0,1.169-.1,1.169-.807Z" transform="translate(-0.948 -0.235)" fill="#808285"/>
          <path id="Path_1073" data-name="Path 1073" d="M12.588,2.161c0-.29.072-.373.351-.424l.549-.1.124-.972c.041-.3.124-.373.424-.373h.135c.3,0,.373.072.373.373v.972h1.447c.353,0,.435.083.435.435v.124c0,.351-.082.435-.435.435H14.544V4.974c0,.683.321.9.807.9a3.956,3.956,0,0,0,.838-.093c.341-.072.424.009.424.361v.124c0,.352-.083.445-.424.518a4.18,4.18,0,0,1-.838.083,1.66,1.66,0,0,1-1.862-1.9V2.627H12.95c-.29,0-.362-.072-.362-.362Z" transform="translate(-1.73 -0.039)" fill="#808285"/>
          <path id="Path_1074" data-name="Path 1074" d="M19.814,5.644c.1.435.248.507.558.507.228,0,.383-.072.487-.507l.775-3.331c.083-.372.2-.465.58-.465h.135c.383,0,.455.093.361.465L21.593,6.979c-.342,1.407-1.014,2.152-2.214,2.276-.269.031-.393-.072-.466-.383l-.031-.135c-.072-.31.031-.373.29-.414A1.574,1.574,0,0,0,20.507,6.99a1.3,1.3,0,0,1-.476.072c-.838,0-1.055-.537-1.252-1.324L17.91,2.313c-.093-.372-.021-.465.362-.465h.134c.384,0,.5.093.59.465Z" transform="translate(-2.456 -0.254)" fill="#808285"/>
        </g>
      </g>
      <line id="Line_12" data-name="Line 12" y2="11.766" transform="translate(226.885 1207.647)" fill="none" stroke="#808285" stroke-width="1"/>
    </g>
  </g>
</svg>
