<svg xmlns="http://www.w3.org/2000/svg" width="55" height="35" viewBox="0 0 55 35">
  <g id="płatności_online" data-name="płatności online" transform="translate(12 -5)">
    <rect id="_55x35" data-name="55x35" width="55" height="35" transform="translate(-12 5)" fill="#fff" opacity="0"/>
    <g id="Group_537" data-name="Group 537" transform="translate(-3 10)">
      <path id="Path_1057" data-name="Path 1057" d="M32.6,132.927H4.4a3.079,3.079,0,0,1-2.565-1.373L.1,128.951a.617.617,0,0,1,.513-.959h11.1a.616.616,0,0,1,.436.181l.636.636a1.43,1.43,0,0,0,1.007.417H23.2a1.429,1.429,0,0,0,1.006-.416l.637-.637a.617.617,0,0,1,.436-.181h11.1a.617.617,0,0,1,.513.959l-1.734,2.6a3.079,3.079,0,0,1-2.565,1.373m-30.828-3.7,1.1,1.644a1.848,1.848,0,0,0,1.539.824H32.6a1.848,1.848,0,0,0,1.54-.824l1.1-1.644H25.539l-.455.455a2.67,2.67,0,0,1-1.879.778H13.8a2.671,2.671,0,0,1-1.88-.779l-.455-.455Z" transform="translate(0 -108.26)" fill="#39393c"/>
      <path id="Path_1058" data-name="Path 1058" d="M52.983,18.5a.617.617,0,0,1-.617-.617V1.233H25.233V17.882a.617.617,0,1,1-1.233,0V.617A.617.617,0,0,1,24.617,0H52.983A.617.617,0,0,1,53.6.617V17.882a.617.617,0,0,1-.617.617" transform="translate(-20.3 0)" fill="#39393c"/>
    </g>
    <g id="Group_569" data-name="Group 569" transform="translate(8 14)">
      <circle id="Ellipse_4" data-name="Ellipse 4" cx="7.295" cy="7.295" r="7.295" fill="none" stroke="#2e2d2c" stroke-linecap="round" stroke-linejoin="round" stroke-width="1.2"/>
      <path id="Path_1126" data-name="Path 1126" d="M19.165,13.975c-.7-1.872-3.87-1.65-3.894.3-.011.872,1.012,1.274,1.867,1.409,3.115.492,2.255,3.421,0,3.31a2.251,2.251,0,0,1-2.258-1.518" transform="translate(-9.728 -8.547)" fill="none" stroke="#2e2d2c" stroke-linecap="round" stroke-linejoin="round" stroke-width="1.2"/>
      <line id="Line_13" data-name="Line 13" y2="1.571" transform="translate(7.447 2.568)" fill="#fff" stroke="#707070" stroke-width="1.2"/>
      <line id="Line_14" data-name="Line 14" y2="1.571" transform="translate(7.447 2.568)" fill="none" stroke="#2e2d2c" stroke-linecap="round" stroke-linejoin="round" stroke-width="1.2"/>
      <line id="Line_15" data-name="Line 15" y2="1.571" transform="translate(7.447 10.451)" fill="#fff" stroke="#707070" stroke-width="1.2"/>
      <line id="Line_16" data-name="Line 16" y2="1.571" transform="translate(7.447 10.451)" fill="none" stroke="#2e2d2c" stroke-linecap="round" stroke-linejoin="round" stroke-width="1.2"/>
    </g>
  </g>
</svg>
