<svg xmlns="http://www.w3.org/2000/svg" width="55" height="35" viewBox="0 0 55 35">
  <g id="metody-platnosci-wplata-na-konto" transform="translate(5.404 2.043)">
    <rect id="_55x35" data-name="55x35" width="55" height="35" transform="translate(-5.404 -2.043)" fill="#fff" opacity="0"/>
    <g id="Group_501" data-name="Group 501" transform="translate(-1.506 0.477)">
      <path id="Path_1046" data-name="Path 1046" d="M.733,11.969H27.115a.734.734,0,0,0,.693-.505.757.757,0,0,0-.243-.833L14.374.157a.721.721,0,0,0-.9,0L.283,10.63a.758.758,0,0,0-.243.833.734.734,0,0,0,.693.505m24.246-1.5H2.869L13.924,1.7Z" transform="translate(12.67 -0.453)" fill="#3a3a3c"/>
      <path id="Path_1047" data-name="Path 1047" d="M47.373,25.451h9.3a.734.734,0,0,0,.693-.505.758.758,0,0,0-.243-.833l-4.646-3.69a.721.721,0,0,0-.9,0l-4.6,3.655a.751.751,0,0,0-.33.625.741.741,0,0,0,.733.748m7.16-1.5H49.513l2.51-1.994Z" transform="translate(-25.429 -16.927)" fill="#3a3a3c"/>
      <path id="Path_1048" data-name="Path 1048" d="M.733,153.488H27.115a.748.748,0,0,0,0-1.5H.733a.748.748,0,0,0,0,1.5" transform="translate(12.67 -124.016)" fill="#3a3a3c"/>
      <path id="Path_1049" data-name="Path 1049" d="M8.733,137.488H32.184a.748.748,0,0,0,0-1.5H8.733a.748.748,0,0,0,0,1.5" transform="translate(6.136 -111.008)" fill="#3a3a3c"/>
      <path id="Path_1050" data-name="Path 1050" d="M56.733,88.97a.741.741,0,0,0,.733-.748V81.488h4.4v6.734a.733.733,0,1,0,1.466,0V80.74a.741.741,0,0,0-.733-.748H56.733A.741.741,0,0,0,56,80.74v7.482a.741.741,0,0,0,.733.748" transform="translate(-33.07 -65.483)" fill="#3a3a3c"/>
      <path id="Path_1051" data-name="Path 1051" d="M104.733,82.467a.741.741,0,0,0,.733-.748V72.74a.733.733,0,1,0-1.466,0v8.978a.741.741,0,0,0,.733.748" transform="translate(-84.001 -58.979)" fill="#3a3a3c"/>
      <path id="Path_1052" data-name="Path 1052" d="M120.733,82.467a.741.741,0,0,0,.733-.748V72.74a.733.733,0,1,0-1.466,0v8.978a.741.741,0,0,0,.733.748" transform="translate(-102.933 -58.979)" fill="#3a3a3c"/>
      <path id="Path_1053" data-name="Path 1053" d="M24.733,82.467a.741.741,0,0,0,.733-.748V72.74a.733.733,0,1,0-1.466,0v8.978a.741.741,0,0,0,.733.748" transform="translate(10.655 -58.979)" fill="#3a3a3c"/>
      <path id="Path_1054" data-name="Path 1054" d="M40.733,82.467a.741.741,0,0,0,.733-.748V72.74a.733.733,0,1,0-1.466,0v8.978a.741.741,0,0,0,.733.748" transform="translate(-8.276 -58.979)" fill="#3a3a3c"/>
      <path id="Path_1055" data-name="Path 1055" d="M144.733,74.467a.723.723,0,0,0,.518-.219l4.4-4.489a.759.759,0,0,0,0-1.058l-4.4-4.489a.722.722,0,0,0-1.036,0,.759.759,0,0,0,0,1.058l3.879,3.96-3.879,3.96a.759.759,0,0,0,0,1.058.723.723,0,0,0,.518.219" transform="translate(-135.727 -52.476)" fill="#3a3a3c"/>
      <path id="Path_1056" data-name="Path 1056" d="M144.733,89.488h13.191a.748.748,0,0,0,0-1.5H144.733a.748.748,0,0,0,0,1.5" transform="translate(-144.521 -71.987)" fill="#3a3a3c"/>
    </g>
  </g>
</svg>
